<svg width="33" height="33" viewBox="0 0 33 33" xmlns="http://www.w3.org/2000/svg">
    <g fill="none" fill-rule="evenodd">
        <circle fill="#FAE1E4" cx="16.5" cy="16.5" r="16.5"/>
        <g fill="#E21B1B" fill-rule="nonzero">
            <path d="M19.072 14.246a.472.472 0 0 0-.477.469v8.852c0 .258.213.468.477.468.263 0 .476-.21.476-.468v-8.852a.472.472 0 0 0-.476-.469zM13.45 14.246a.472.472 0 0 0-.476.469v8.852c0 .258.213.468.476.468s.477-.21.477-.468v-8.852a.472.472 0 0 0-.477-.469z"/>
            <path d="M9.353 12.954v11.54c0 .682.254 1.323.699 1.782.442.461 1.058.723 1.702.724h9.014a2.365 2.365 0 0 0 1.702-.724c.444-.46.699-1.1.699-1.782v-11.54a1.79 1.79 0 0 0 1.337-1.96 1.81 1.81 0 0 0-1.804-1.558h-2.44V8.85a1.825 1.825 0 0 0-.55-1.313A1.889 1.889 0 0 0 18.377 7h-4.23c-.501-.004-.983.19-1.337.537-.355.348-.553.82-.55 1.313v.586H9.82a1.81 1.81 0 0 0-1.805 1.557 1.79 1.79 0 0 0 1.338 1.961zm11.415 13.11h-9.014c-.814 0-1.448-.689-1.448-1.57V12.995h11.91v11.5c0 .88-.634 1.568-1.448 1.568zM13.212 8.85a.894.894 0 0 1 .27-.65.926.926 0 0 1 .664-.263h4.23a.926.926 0 0 1 .663.262.894.894 0 0 1 .27.651v.586h-6.097V8.85zM9.82 10.372h12.882a.85.85 0 0 1 .857.844.85.85 0 0 1-.857.843H9.82a.85.85 0 0 1-.858-.843.85.85 0 0 1 .858-.844z"/>
            <path d="M16.26 14.246a.472.472 0 0 0-.476.469v8.852c0 .258.214.468.477.468s.476-.21.476-.468v-8.852a.472.472 0 0 0-.476-.469z"/>
        </g>
    </g>
</svg>
