<svg width="33" height="33" viewBox="0 0 33 33" xmlns="http://www.w3.org/2000/svg">
    <g fill="none" fill-rule="evenodd">
        <circle fill="#F1FFF2" cx="16.5" cy="16.5" r="16.5"/>
        <g fill="#4BAE4F" fill-rule="nonzero">
            <path d="M8.55 23h.112l5.437-1.135a.544.544 0 0 0 .281-.135l9.212-8.838a3.337 3.337 0 0 0 1.042-2.432A3.44 3.44 0 0 0 23.592 8a3.628 3.628 0 0 0-2.536-1 3.539 3.539 0 0 0-2.535 1.027l-9.183 8.838a.486.486 0 0 0-.169.243l-1.183 5.216a.58.58 0 0 0 .563.676zM21.055 8.081c1.354 0 2.451 1.053 2.451 2.351v.028a2.224 2.224 0 0 1-.704 1.648l-3.465-3.351a2.476 2.476 0 0 1 1.718-.676zm-2.507 1.46 3.465 3.324-8.028 7.676-3.465-3.298 8.028-7.702zm-8.479 8.783L12.86 21l-3.578.757.788-3.433zM26.437 25.919H7.563a.552.552 0 0 0-.563.54c0 .299.252.541.563.541h18.874a.552.552 0 0 0 .563-.54.552.552 0 0 0-.563-.541z"/>
        </g>
    </g>
</svg>
