<svg width="20" height="19" viewBox="0 0 20 19" xmlns="http://www.w3.org/2000/svg">
    <g fill="#F00707" fill-rule="nonzero">
        <path d="M19.348 10.148H6.739a.65.65 0 0 1-.652-.648.65.65 0 0 1 .652-.648h12.609c.36 0 .652.29.652.648a.65.65 0 0 1-.652.648z"/>
        <path d="M10.217 13.602a.65.65 0 0 1-.46-.19L6.277 9.958a.645.645 0 0 1 0-.917l3.478-3.454a.656.656 0 0 1 .923 0 .645.645 0 0 1 0 .916L7.662 9.5l3.017 2.997a.645.645 0 0 1 0 .916.655.655 0 0 1-.462.19z"/>
        <path d="M9.565 19C4.291 19 0 14.738 0 9.5S4.291 0 9.565 0c3.958 0 7.452 2.365 8.903 6.025a.647.647 0 0 1-.368.84.655.655 0 0 1-.846-.366C16 3.338 12.983 1.295 9.565 1.295c-4.555 0-8.26 3.681-8.26 8.205s3.705 8.205 8.26 8.205c3.418 0 6.436-2.043 7.689-5.203a.654.654 0 0 1 .846-.366c.335.131.5.508.368.84C17.017 16.636 13.523 19 9.565 19z"/>
    </g>
</svg>
