<svg width="244" height="153" viewBox="0 0 244 153" xmlns="http://www.w3.org/2000/svg">
    <g fill-rule="nonzero" fill="none">
        <path d="M156.184 148.37a5.985 5.985 0 0 1 5.697-.094 6.018 6.018 0 0 1 3.206 4.724c-3.638 0-7.203-.849-8.903-4.63M160.42 144.63a7.744 7.744 0 0 0 7.258-1.308 7.794 7.794 0 0 0 2.891-6.804c-4.621.91-8.958 2.89-10.15 8.113" fill="#EBEBEB"/>
        <path d="M144.582 150.804c.073-.037.15-.067.227-.09l.666-.224c.577-.188 1.412-.463 2.439-.82 2.057-.723 4.877-1.749 7.924-3.074a86.843 86.843 0 0 0 4.225-1.998 48.548 48.548 0 0 0 3.331-1.86c.732-.44 1.438-.923 2.115-1.445.475-.361.72-.617.72-.603a1.083 1.083 0 0 1-.162.18c-.163.17-.335.33-.515.481a19.188 19.188 0 0 1-2.093 1.514 47.706 47.706 0 0 1-3.32 1.9 68.419 68.419 0 0 1-4.233 2.019 91.758 91.758 0 0 1-7.945 3.027 60.499 60.499 0 0 1-2.46.762l-.674.191a.973.973 0 0 1-.245.04z" fill="#E0E0E0"/>
        <path d="M160.866 150.493c0 .03-.44-.267-1.164-.66a14.51 14.51 0 0 0-2.978-1.2 14.197 14.197 0 0 0-3.177-.488c-.821-.032-1.336 0-1.336-.029.117-.034.238-.053.36-.057.327-.035.655-.05.983-.047 2.186.01 4.33.597 6.217 1.705.284.165.558.347.821.545.102.063.194.141.274.231z" fill="#E0E0E0"/>
        <path d="M75.046 134.253a7.603 7.603 0 0 0 .974 7.138 7.556 7.556 0 0 0 6.482 3.103c-.691-4.544-2.435-8.864-7.456-10.24" fill="#EBEBEB"/>
        <path d="M74.337 132.021c.029 0 .151.499.414 1.29.342 1.03.77 2.031 1.279 2.99.516.956 1.11 1.867 1.775 2.724.515.657.865 1.04.843 1.062a1.417 1.417 0 0 1-.273-.242c-.17-.166-.4-.416-.67-.723a15.76 15.76 0 0 1-3.08-5.757 9.166 9.166 0 0 1-.238-.968 1.177 1.177 0 0 1-.05-.376z" fill="#E0E0E0"/>
        <path d="M3.069 43.106a11.778 11.778 0 0 0 1.508 11.067 11.704 11.704 0 0 0 10.057 4.8c-1.08-7.043-3.771-13.725-11.55-15.867" fill="#EBEBEB"/>
        <path d="M1.967 39.653c.073.174.13.354.169.538.093.361.241.853.44 1.47a29.165 29.165 0 0 0 1.973 4.645 28.832 28.832 0 0 0 2.766 4.226c.404.506.72.91.976 1.182.13.136.251.283.36.437a3.054 3.054 0 0 1-.41-.387c-.256-.26-.609-.65-1.023-1.148a25.109 25.109 0 0 1-4.765-8.911 18.809 18.809 0 0 1-.386-1.489 4.056 4.056 0 0 1-.1-.563z" fill="#E0E0E0"/>
        <path d="M15.24 115a7.595 7.595 0 0 0-2.788 6.644 7.586 7.586 0 0 0 4.008 5.981c1.71-4.266 2.402-8.871-1.22-12.624" fill="#EBEBEB"/>
        <path d="M15.758 112.718c.029 0-.12.51-.296 1.322a18.723 18.723 0 0 0-.27 6.48c.108.827.216 1.337.184 1.344a1.57 1.57 0 0 1-.112-.361c-.06-.228-.133-.56-.205-.972a15.937 15.937 0 0 1 .274-6.53c.104-.409.205-.723.284-.954.034-.115.082-.225.14-.329z" fill="#E0E0E0"/>
        <path d="M82.08 23.666a7.545 7.545 0 0 0 7.181-.237 7.588 7.588 0 0 0 3.744-6.15c-4.582.221-9.04 1.518-10.924 6.387" fill="#EBEBEB"/>
        <path d="M79.794 24.164c0-.029.511-.1 1.321-.281a18.65 18.65 0 0 0 5.983-2.46c.72-.448 1.12-.755 1.138-.723-.076.096-.166.18-.266.25-.18.151-.454.36-.8.592a15.74 15.74 0 0 1-6.026 2.481c-.414.076-.749.12-.983.141a1.368 1.368 0 0 1-.367 0z" fill="#E0E0E0"/>
        <path d="M72.745 23.012a9.981 9.981 0 0 0 7.207-6.167 10.026 10.026 0 0 0-1.185-9.426c-4.538 4.005-8.075 9.03-6.022 15.593" fill="#EBEBEB"/>
        <path d="M70.782 25.389c.09-.13.19-.25.303-.361.205-.228.497-.568.842-.994a24.22 24.22 0 0 0 4.153-7.477c.18-.52.314-.946.4-1.242.036-.157.088-.31.155-.455-.011.16-.04.319-.087.473-.06.303-.18.722-.36 1.264a21.21 21.21 0 0 1-4.174 7.52c-.36.42-.67.748-.893.961a2.21 2.21 0 0 1-.339.31z" fill="#E0E0E0"/>
        <path d="M102.29 146.747a4.55 4.55 0 0 0 7.564.856c-2.29-1.545-4.913-2.528-7.564-.856" fill="#EBEBEB"/>
        <path d="M101.015 146.155a21.01 21.01 0 0 0 2.594.954c.9.2 1.811.337 2.73.411-.269.06-.544.077-.818.051a9.124 9.124 0 0 1-3.81-.979 2.743 2.743 0 0 1-.696-.437z" fill="#E0E0E0"/>
        <path d="M135.679 17.06a4.547 4.547 0 0 0 7.589-.63c-2.547-1.083-5.306-1.527-7.59.63" fill="#EBEBEB"/>
        <path d="M134.314 16.727c1.79.47 3.655.574 5.485.307-.253.107-.52.176-.792.206a9.102 9.102 0 0 1-3.93-.22 2.707 2.707 0 0 1-.763-.293z" fill="#E0E0E0"/>
        <path d="M222.208 28.17a7.548 7.548 0 0 0 6.996-1.613 7.597 7.597 0 0 0 2.501-6.749c-4.451 1.084-8.579 3.226-9.497 8.362" fill="#EBEBEB"/>
        <path d="M220.054 29.08c0-.029.479-.198 1.242-.53a18.667 18.667 0 0 0 5.403-3.562c.609-.574.954-.957.98-.936a1.39 1.39 0 0 1-.216.293c-.148.184-.36.437-.67.722a15.783 15.783 0 0 1-5.443 3.59c-.389.152-.72.264-.936.326-.116.047-.237.08-.36.097z" fill="#E0E0E0"/>
        <path d="M230.74 138.263a13.177 13.177 0 0 0 9.378-8.284 13.233 13.233 0 0 0-1.75-12.41c-5.917 5.378-10.477 12.068-7.628 20.694" fill="#EBEBEB"/>
        <path d="M228.187 141.441a4.43 4.43 0 0 1 .403-.49c.27-.304.648-.756 1.098-1.323a33.45 33.45 0 0 0 1.506-2.059 32.736 32.736 0 0 0 1.61-2.676 30.56 30.56 0 0 0 1.333-2.825c.37-.889.662-1.701.882-2.395.22-.693.385-1.257.49-1.65a3.74 3.74 0 0 1 .187-.607c-.023.21-.062.42-.115.625-.083.4-.23.971-.436 1.672a28.293 28.293 0 0 1-2.175 5.27 31.316 31.316 0 0 1-1.632 2.684 30.017 30.017 0 0 1-1.545 2.044c-.465.56-.864 1-1.149 1.29a4 4 0 0 1-.457.44z" fill="#E0E0E0"/>
        <g transform="translate(52.929 31.48)">
            <path d="M128.906 61.241c-2.272-12.732-13.175-23.84-26.03-24.901-7.005-.571-14.046 1.643-21.023.798a24.47 24.47 0 0 1-15.304-8.091c-5.763-6.574-7.711-15.926-13.813-22.182-8.406-8.63-23.076-8.763-33.305-2.416C9.2 10.795 3.017 22.249.186 33.97l-.111 3.565c-.616 12.158 2.575 26.307 9.61 37.143 7.127 10.98 11.813 15.532 24.801 23.41 11.029 6.704 32.625 9.652 45.52 9.962 12.894.31 26.137-3.54 35.837-12.071 9.7-8.532 15.34-22.005 13.063-34.738z" fill="#FF8C5D"/>
            <path d="M128.906 61.241c-2.272-12.732-13.175-23.84-26.03-24.901-7.005-.571-14.046 1.643-21.023.798a24.47 24.47 0 0 1-15.304-8.091c-5.763-6.574-7.711-15.926-13.813-22.182-8.406-8.63-23.076-8.763-33.305-2.416C9.2 10.795 3.017 22.249.186 33.97l-.111 3.565c-.616 12.158 2.575 26.307 9.61 37.143 7.127 10.98 11.813 15.532 24.801 23.41 11.029 6.704 32.625 9.652 45.52 9.962 12.894.31 26.137-3.54 35.837-12.071 9.7-8.532 15.34-22.005 13.063-34.738z" opacity=".8" fill="#FFF"/>
            <ellipse fill="#FF725E" transform="rotate(-81.74 135.398 105.806)" cx="135.398" cy="105.806" rx="6.23" ry="6.213"/>
            <ellipse fill="#FFF" opacity=".8" transform="rotate(-81.74 135.398 105.806)" cx="135.398" cy="105.806" rx="6.23" ry="6.213"/>
        </g>
        <g>
            <path d="M144.716 89.344c.117 12.44-2.587 21.952-8.112 28.536-5.525 6.583-13.089 9.919-22.69 10.005-9.654.094-17.327-3.094-23.02-9.565-5.693-6.47-8.6-15.924-8.723-28.362l-.21-21.874c-.12-12.392 2.585-21.904 8.112-28.536 5.528-6.632 13.117-9.988 22.767-10.07 9.605-.094 17.256 3.117 22.954 9.633 5.698 6.516 8.605 15.97 8.72 28.359l.202 21.874zm-16.147-24.172c-.08-7.833-1.44-13.617-4.081-17.352-2.641-3.735-6.483-5.58-11.526-5.534-5.025.048-8.818 1.966-11.378 5.754-2.56 3.788-3.81 9.597-3.75 17.428l.253 26.582c.074 7.874 1.452 13.69 4.131 17.45 2.68 3.759 6.53 5.614 11.551 5.566 5.021-.048 8.802-1.966 11.342-5.754 2.54-3.788 3.774-9.64 3.7-17.558l-.242-26.582z" fill="#FF725E"/>
            <path d="M144.716 89.344c.117 12.44-2.587 21.952-8.112 28.536-5.525 6.583-13.088 9.919-22.69 10.005-9.654.094-17.327-3.094-23.02-9.565-5.693-6.47-8.6-15.924-8.723-28.362l-.21-21.874c-.12-12.392 2.585-21.904 8.112-28.536 5.528-6.632 13.117-9.988 22.767-10.07 9.605-.094 17.256 3.117 22.954 9.633 5.698 6.516 8.605 15.97 8.72 28.359l.202 21.874zm-16.147-24.172c-.08-7.833-1.44-13.617-4.081-17.352-2.641-3.735-6.483-5.58-11.526-5.534-5.025.048-8.818 1.966-11.378 5.754-2.56 3.788-3.81 9.597-3.75 17.428l.253 26.582c.074 7.874 1.452 13.69 4.131 17.45 2.68 3.759 6.53 5.614 11.551 5.566 5.021-.048 8.802-1.966 11.342-5.754 2.54-3.788 3.774-9.64 3.7-17.558l-.242-26.582z" opacity=".4" fill="#000"/>
            <path d="M153.886 89.258c.12 12.437-2.584 21.949-8.112 28.535-5.527 6.586-13.09 9.921-22.69 10.006-9.653.093-17.326-3.096-23.02-9.569-5.693-6.473-8.597-15.93-8.712-28.37l-.21-21.874c-.12-12.392 2.584-21.904 8.112-28.535 5.527-6.632 13.116-9.99 22.767-10.074 9.604-.09 17.256 3.122 22.954 9.633 5.698 6.511 8.594 15.969 8.687 28.373l.224 21.875zm-16.147-24.172c-.077-7.831-1.443-13.61-4.099-17.338-2.656-3.728-6.498-5.573-11.526-5.535-5.025.051-8.818 1.97-11.378 5.755-2.56 3.785-3.803 9.596-3.731 17.432l.256 26.578c.077 7.876 1.454 13.694 4.13 17.453 2.678 3.76 6.529 5.614 11.552 5.566 5.02-.05 8.801-1.968 11.342-5.754 2.54-3.785 3.772-9.64 3.695-17.562l-.241-26.595z" fill="#FF6121"/>
            <path d="M91.19 69.286c.018.047-2.111.896-4.755 1.893-2.643.997-4.808 1.748-4.808 1.716 0-.033 2.11-.896 4.754-1.893 2.644-.997 4.79-1.766 4.809-1.716zM91.712 77.93c.018.047-2.11.896-4.758 1.893-2.647.997-4.801 1.763-4.82 1.716-.017-.047 2.111-.896 4.755-1.893 2.644-.997 4.823-1.766 4.823-1.716zM92.249 86.574c.018.047-2.111.896-4.758 1.893-2.648.996-4.784 1.762-4.82 1.715-.036-.047 2.111-.895 4.755-1.892 2.643-.997 4.805-1.767 4.823-1.716zM92.792 95.218c.018.047-2.11.895-4.758 1.892-2.647.997-4.804 1.763-4.822 1.716-.018-.047 2.114-.896 4.758-1.893 2.643-.997 4.79-1.766 4.822-1.715zM93.307 103.861a1.594 1.594 0 0 1-.33.163c-.217.094-.534.224-.923.38-.785.313-1.87.721-3.072 1.187-1.203.466-2.298.853-3.094 1.135-.396.14-.72.252-.944.325-.115.048-.236.08-.36.094.103-.068.215-.123.331-.163.216-.094.53-.224.922-.361.782-.314 1.87-.723 3.073-1.188a98.78 98.78 0 0 1 3.094-1.135c.396-.14.72-.253.943-.325.114-.055.235-.093.36-.112zM95.767 111.768a7.707 7.707 0 0 1-1.08.48c-.684.275-1.632.643-2.68 1.04a116.01 116.01 0 0 1-2.698.987c-.369.15-.75.271-1.138.361.347-.189.709-.35 1.08-.48.682-.278 1.629-.647 2.68-1.04 1.052-.394 2.003-.745 2.698-.987.369-.152.75-.273 1.138-.36zM101.037 119.021c-.31.173-.634.32-.969.437-.609.246-1.44.575-2.384.929-.944.354-1.801.66-2.406.874a6.225 6.225 0 0 1-1.016.314 5.86 5.86 0 0 1 .969-.437c.605-.246 1.44-.574 2.384-.928.944-.354 1.801-.661 2.406-.878a5.948 5.948 0 0 1 1.016-.31zM109.793 123.778c-.31.17-.635.316-.97.434-.608.249-1.44.578-2.383.928-.944.35-1.801.661-2.406.878a5.948 5.948 0 0 1-1.016.31c.31-.173.634-.319.969-.437.608-.245 1.44-.574 2.384-.928.944-.354 1.801-.661 2.406-.874a5.56 5.56 0 0 1 1.016-.31zM136.2 105.331c.023.047-2.711 1.326-6.104 2.858-3.393 1.531-6.163 2.73-6.184 2.683-.022-.047 2.712-1.325 6.123-2.857 3.41-1.531 6.144-2.73 6.166-2.684zM137.995 97.927c.021.047-2.237 1.109-5.043 2.373-2.806 1.264-5.096 2.254-5.118 2.207-.022-.047 2.233-1.113 5.043-2.377 2.809-1.264 5.096-2.25 5.118-2.203zM138.82 89.608c.021.047-2.237 1.109-5.043 2.373-2.806 1.264-5.097 2.254-5.118 2.207-.022-.047 2.233-1.112 5.042-2.377 2.81-1.264 5.097-2.268 5.118-2.203zM139.644 81.286c.022.047-2.233 1.112-5.042 2.376-2.81 1.265-5.097 2.25-5.118 2.204-.022-.047 2.236-1.109 5.042-2.373 2.806-1.264 5.09-2.258 5.118-2.207zM140.473 72.967c.018.047-2.237 1.113-5.043 2.377-2.806 1.264-5.096 2.25-5.118 2.203-.022-.047 2.237-1.109 5.043-2.377 2.805-1.267 5.096-2.243 5.118-2.203zM138.82 65.559c.021.047-2.237 1.112-5.043 2.376-2.806 1.265-5.097 2.25-5.118 2.204-.022-.047 2.233-1.113 5.042-2.377 2.81-1.264 5.097-2.25 5.118-2.203zM138.82 57.583c.021.047-2.237 1.113-5.043 2.377-2.806 1.264-5.097 2.25-5.118 2.203-.022-.047 2.233-1.112 5.042-2.376 2.81-1.265 5.097-2.25 5.118-2.204zM137.995 50.074c.021.047-2.237 1.109-5.043 2.373-2.806 1.264-5.096 2.254-5.118 2.207-.022-.047 2.233-1.113 5.043-2.377 2.809-1.264 5.096-2.25 5.118-2.203zM130.881 44.84a30.732 30.732 0 0 1-3.05 1.48 30.76 30.76 0 0 1-3.13 1.308 29.354 29.354 0 0 1 3.05-1.48 30.76 30.76 0 0 1 3.13-1.308zM127.078 41.636c-.99.546-2.009 1.04-3.051 1.477a30.76 30.76 0 0 1-3.13 1.308 30.739 30.739 0 0 1 3.05-1.474 30.761 30.761 0 0 1 3.13-1.311zM91.597 58.808c.018.047-2.111.896-4.755 1.892-2.643.997-4.804 1.767-4.822 1.716-.019-.05 2.11-.896 4.757-1.892 2.648-.997 4.802-1.763 4.82-1.716zM94.233 48.03c.022.046-2.29.96-5.154 2.044-2.863 1.083-5.208 1.914-5.226 1.867-.018-.047 2.29-.964 5.158-2.044 2.867-1.08 5.222-1.918 5.222-1.868zM101.174 37.36c.018.05-2.91 1.195-6.541 2.564-3.63 1.369-6.588 2.438-6.606 2.391-.018-.047 2.91-1.2 6.541-2.568 3.63-1.37 6.588-2.435 6.606-2.388z" fill="#FF725E"/>
            <path d="m152.333 105.436-.151-.05-.432-.17c-.191-.069-.44-.123-.72-.202a7.4 7.4 0 0 0-1.02-.127c-1.538-.097-3.843.462-6.072 2.138a17.28 17.28 0 0 0-3.217 3.19c-1.034 1.268-2.046 2.702-3.195 4.147a18.966 18.966 0 0 1-4.149 4.034 14.952 14.952 0 0 1-5.741 2.334 14.726 14.726 0 0 1-6.192-.206 29.233 29.233 0 0 1-5.424-2.02c-1.675-.776-3.241-1.567-4.733-2.22a25.087 25.087 0 0 0-4.3-1.456 15.823 15.823 0 0 0-3.71-.427c-.943.008-1.88.135-2.791.38a10.15 10.15 0 0 0-1.664.653l-.41.217a.72.72 0 0 1-.145.069l.133-.083.404-.235a9.21 9.21 0 0 1 1.66-.69 11.043 11.043 0 0 1 2.81-.415 15.765 15.765 0 0 1 3.742.4c1.481.35 2.928.834 4.322 1.445 1.505.65 3.072 1.445 4.743 2.21 1.731.843 3.54 1.511 5.403 1.995 2.004.502 4.09.57 6.123.202a14.84 14.84 0 0 0 5.673-2.3 18.8 18.8 0 0 0 4.12-3.992c1.15-1.445 2.161-2.868 3.21-4.14a17.377 17.377 0 0 1 3.241-3.196c2.262-1.676 4.6-2.225 6.156-2.103.346.023.69.07 1.03.141.288.09.536.148.72.224l.429.188.147.065zM154.606 81.344c0 .018-.256.05-.702.198a6.995 6.995 0 0 0-1.74.936c-.684.48-1.44 1.152-2.309 1.846-.958.749-1.995 1.39-3.094 1.91a16.973 16.973 0 0 1-6.36 1.647c-.422.037-.807.026-1.142.033-.335.007-.623-.022-.857-.04l-.544-.054a.586.586 0 0 1-.184-.033.679.679 0 0 1 .187 0l.544.019h.854c.335-.019.72 0 1.13-.058a17.742 17.742 0 0 0 6.293-1.687 17.236 17.236 0 0 0 3.069-1.878c.875-.68 1.635-1.348 2.34-1.806a6.476 6.476 0 0 1 1.802-.896c.175-.05.353-.089.533-.116a.59.59 0 0 1 .18-.021zM107.56 89.713a.973.973 0 0 1-.195-.03c-.13-.028-.32-.057-.562-.126a8.409 8.409 0 0 1-1.93-.848 19.531 19.531 0 0 1-2.522-1.846c-.904-.752-1.869-1.608-2.975-2.373a10.183 10.183 0 0 0-3.418-1.572 10.52 10.52 0 0 0-5.129.022c-.479.123-.738.217-.742.199a.665.665 0 0 1 .18-.083c.123-.047.303-.12.544-.188a9.34 9.34 0 0 1 2.071-.361c1.046-.078 2.097.009 3.116.256 1.25.304 2.432.842 3.483 1.586 1.12.776 2.085 1.64 2.982 2.395a20.647 20.647 0 0 0 2.478 1.867 9.353 9.353 0 0 0 1.884.892c.248.057.494.127.735.21zM107.62 55.568c-.193.09-.394.164-.6.22a7.213 7.213 0 0 1-.721.213c-.285.072-.605.17-.969.235-.364.065-.756.155-1.188.21-.433.054-.89.104-1.376.148a20.852 20.852 0 0 1-3.17-.04A21.113 21.113 0 0 1 96.473 56c-.468-.133-.918-.256-1.325-.404-.407-.148-.789-.286-1.127-.427-.339-.14-.642-.289-.908-.411a9.154 9.154 0 0 1-.666-.344 4.165 4.165 0 0 1-.548-.328c.2.073.393.162.58.263.184.09.41.203.677.315.267.112.57.256.915.379.346.123.72.278 1.127.405.407.126.85.256 1.319.382 2.037.516 4.14.714 6.238.59.483-.04.94-.066 1.369-.13.428-.066.82-.12 1.181-.185.36-.065.68-.145.965-.206.285-.061.53-.126.72-.18a4.51 4.51 0 0 1 .63-.152zM152.56 55.477a.755.755 0 0 1-.151-.075l-.418-.242a7.082 7.082 0 0 0-.67-.362 9.55 9.55 0 0 0-.911-.43l-.54-.227c-.191-.076-.393-.134-.602-.206-.41-.152-.868-.256-1.347-.383a14.866 14.866 0 0 0-6.368-.054c-.457.097-.91.218-1.354.361-.209.069-.414.123-.605.195l-.544.217c-.313.123-.62.261-.919.415a5.941 5.941 0 0 0-.673.362l-.425.234c-.097.05-.151.076-.155.069a.648.648 0 0 1 .137-.101l.403-.267c.214-.143.436-.27.667-.383a8.39 8.39 0 0 1 .915-.445l.543-.23c.191-.077.4-.134.61-.207a12.83 12.83 0 0 1 1.364-.379 14.41 14.41 0 0 1 6.444.058c.482.13.943.242 1.358.4.208.077.414.138.601.221l.544.239c.31.137.613.29.908.458.226.118.445.251.655.398l.404.274c.09.047.15.083.13.09zM130.539 30.94a1.548 1.548 0 0 1-.26.16l-.749.415c-.666.361-1.631.863-2.841 1.47-2.414 1.196-5.803 2.832-9.815 3.85a26.819 26.819 0 0 1-5.763.802 20.613 20.613 0 0 1-4.73-.408 16.382 16.382 0 0 1-3.06-.935c-.36-.138-.61-.282-.79-.362a2.073 2.073 0 0 1-.27-.14c.099.025.194.062.285.108.187.069.447.202.803.329.991.382 2.015.675 3.058.874a20.98 20.98 0 0 0 4.7.361 27.178 27.178 0 0 0 5.716-.813c3.988-1.011 7.38-2.618 9.804-3.785l2.882-1.42.742-.383c.093-.047.19-.088.288-.122z" fill="#FFF"/>
            <path d="m58.237 93.877 12.04.528-.558 12.797-12.04-.527-.926 21.264-15.848-.693.926-21.264L.947 104.19l.033-9.753L44.56 31.66l16.36.723-2.684 61.495zm-41.42-1.806 25.572 1.12 1.686-38.786-.386-.148-1.44 2.763L16.817 92.07z" fill="#058478"/>
            <path d="m58.237 93.877 12.04.528-.558 12.797-12.04-.527-.926 21.264-15.848-.693.926-21.264L.947 104.19l.033-9.753L44.56 31.66l16.36.723-2.684 61.495zm-41.42-1.806 25.572 1.12 1.686-38.786-.386-.148-1.44 2.763L16.817 92.07z" opacity=".4" fill="#0B7F74"/>
            <path d="m68.3 94.318 12.041.527-.558 12.798-12.04-.527-.927 21.264-15.847-.693.925-21.265-40.901-1.806.032-9.752L54.614 32.11l16.362.722L68.3 94.318zm-41.42-1.806 25.59 1.12 1.686-38.787-.385-.148-1.44 2.763L26.88 92.512z" fill="#0CAC9D"/>
            <path d="M11.245 96.738a1.983 1.983 0 0 1-.39.22c-.255.13-.63.311-1.08.528-.925.437-2.218 1.019-3.663 1.633a107.526 107.526 0 0 1-3.717 1.499c-.479.18-.871.321-1.142.415a2.264 2.264 0 0 1-.428.13c.126-.082.262-.148.403-.199l1.117-.473 3.68-1.557 3.682-1.578 1.12-.477c.134-.061.274-.108.418-.14zM17.108 85.93a4.472 4.472 0 0 1-.543.286c-.36.174-.872.42-1.513.723a242.035 242.035 0 0 1-5.043 2.21c-1.973.842-3.8 1.56-5.1 2.074-.655.26-1.188.462-1.563.596-.188.08-.384.143-.583.187.18-.098.366-.184.558-.256l1.538-.65 5.082-2.142 5.071-2.167 1.538-.654c.18-.086.366-.155.558-.206zM24.265 76.276a3.77 3.77 0 0 1-.569.289c-.36.173-.911.419-1.581.722a228.837 228.837 0 0 1-5.273 2.214 235.247 235.247 0 0 1-5.327 2.092c-.684.256-1.243.459-1.628.592-.197.081-.4.144-.609.188.189-.098.384-.184.584-.256l1.606-.65 5.302-2.143 5.29-2.167 1.607-.654c.193-.09.393-.167.598-.227zM52.932 87.415a2.048 2.048 0 0 1-.393.214c-.256.126-.63.3-1.099.509-.929.422-2.225.982-3.67 1.571-1.444.589-2.766 1.084-3.724 1.445-.483.173-.872.31-1.142.4a2.35 2.35 0 0 1-.428.12c.125-.078.26-.141.4-.188l1.123-.455 3.703-1.488 3.688-1.517 1.12-.459c.135-.066.276-.117.422-.152zM51.765 107.26a1.947 1.947 0 0 1-.379.213c-.248.123-.612.3-1.062.51-.9.422-2.161.982-3.555 1.567-1.394.585-2.683 1.084-3.602 1.445-.468.173-.846.31-1.11.397a1.98 1.98 0 0 1-.417.123c.122-.078.253-.142.39-.191l1.08-.455 3.601-1.485 3.573-1.517 1.08-.455c.128-.065.262-.115.4-.152zM51.599 114.217a1.85 1.85 0 0 1-.36.21c-.249.126-.613.3-1.08.513-.901.419-2.162.978-3.56 1.567-1.397.589-2.679 1.084-3.601 1.445-.465.173-.843.31-1.11.4a1.646 1.646 0 0 1-.414.12c.124-.075.254-.138.39-.188l1.08-.455 3.602-1.484 3.576-1.517 1.08-.456c.126-.068.259-.12.397-.155zM51.433 121.17a2.11 2.11 0 0 1-.36.213c-.248.127-.612.3-1.08.51-.904.422-2.161.982-3.559 1.567-1.397.586-2.68 1.084-3.602 1.445-.464.174-.846.31-1.11.398a2.063 2.063 0 0 1-.413.122c.122-.078.252-.142.389-.191l1.08-.452 3.602-1.488 3.577-1.517 1.08-.455c.126-.065.26-.116.396-.152zM53.119 80.068a2.332 2.332 0 0 1-.393.214c-.255.126-.63.3-1.08.509-.93.423-2.226.982-3.67 1.571-1.445.589-2.767 1.084-3.725 1.445-.482.173-.871.31-1.141.397a2.232 2.232 0 0 1-.429.123c.125-.08.259-.145.4-.191l1.124-.455 3.702-1.485 3.688-1.517 1.12-.455c.13-.066.264-.118.404-.156zM53.306 72.722a2.332 2.332 0 0 1-.392.213c-.256.122-.63.3-1.099.509-.93.423-2.226.982-3.67 1.568a153.89 153.89 0 0 1-3.724 1.444c-.483.174-.872.307-1.142.398a2.232 2.232 0 0 1-.429.123c.126-.081.262-.146.404-.192l1.12-.455 3.702-1.485 3.689-1.517 1.12-.455c.134-.066.276-.117.421-.151zM53.493 65.375c-.113.079-.233.147-.36.202-.241.119-.598.285-1.04.487a101.715 101.715 0 0 1-7.049 2.864c-.458.163-.829.293-1.08.362-.133.054-.27.093-.411.116.12-.076.25-.138.385-.185l1.08-.433 3.527-1.412 3.515-1.445 1.08-.434c.113-.054.232-.095.353-.122zM54.322 58.508c-.575.312-1.178.57-1.801.77-.603.257-1.229.456-1.87.595a10.516 10.516 0 0 1 1.802-.773 10.147 10.147 0 0 1 1.869-.592zM31.407 66.278c-.181.109-.37.205-.565.289-.36.173-.911.415-1.585.722-1.34.589-3.202 1.373-5.273 2.214a232.138 232.138 0 0 1-5.323 2.092c-.685.256-1.243.458-1.628.592a4.694 4.694 0 0 1-.609.191c.187-.103.382-.19.584-.26l1.606-.646 5.302-2.157 5.29-2.167 1.604-.654c.194-.085.394-.158.597-.216zM38.553 56.276a3.77 3.77 0 0 1-.569.289c-.36.173-.911.419-1.58.722-1.34.585-3.206 1.373-5.274 2.21a242.85 242.85 0 0 1-5.323 2.092c-.688.26-1.243.462-1.632.596-.196.08-.398.143-.605.188.187-.1.38-.185.58-.257l1.606-.65 5.302-2.142 5.295-2.167 1.602-.657c.194-.09.394-.165.598-.224zM45.155 46.277c-.182.11-.372.207-.569.29-.36.173-.91.415-1.58.722-1.34.589-3.206 1.372-5.274 2.214a225.764 225.764 0 0 1-5.323 2.091c-.685.257-1.243.46-1.628.593a4.694 4.694 0 0 1-.609.191c.187-.103.382-.19.584-.26l1.606-.646 5.302-2.142 5.29-2.168 1.603-.653c.193-.095.393-.172.598-.232zM52.028 36.662a4.875 4.875 0 0 1-.57.29c-.36.172-.91.414-1.58.721a228.837 228.837 0 0 1-5.274 2.215 219.196 219.196 0 0 1-5.327 2.091 68.06 68.06 0 0 1-1.628.592 4.313 4.313 0 0 1-.608.192c.187-.102.382-.19.583-.26l1.606-.647 5.299-2.16 5.29-2.167 1.607-.654c.195-.086.396-.157.602-.213z" fill="#FF725E"/>
            <path d="M70.26 51.352c-.06.088-.13.168-.21.239a7.134 7.134 0 0 1-.651.632 11.44 11.44 0 0 1-2.799 1.806 12.296 12.296 0 0 1-4.812 1.084 11.24 11.24 0 0 1-2.913-.33 14.74 14.74 0 0 1-2.943-1.1c-1.938-.947-3.66-2.063-5.342-2.84a12.218 12.218 0 0 0-4.718-1.235 6.977 6.977 0 0 0-3.216.603 5.575 5.575 0 0 0-.782.448c-.085.063-.174.12-.266.17a2.22 2.22 0 0 1 .245-.199c.241-.184.5-.346.77-.484a6.895 6.895 0 0 1 3.242-.672c1.663.08 3.292.498 4.787 1.232 1.7.776 3.429 1.889 5.348 2.828.93.462 1.906.825 2.91 1.084.937.234 1.9.345 2.864.332a12.1 12.1 0 0 0 7.564-2.792c.306-.246.522-.462.673-.603.078-.074.16-.142.249-.203zM65.246 33.494c-.145.101-.298.19-.457.268-.3.162-.746.36-1.308.614a20.39 20.39 0 0 1-9.343 1.524 16.115 16.115 0 0 1-1.44-.166 3.032 3.032 0 0 1-.52-.105c.178-.006.355.005.53.033.335.04.825.075 1.441.104.616.03 1.33.036 2.129 0 .866-.043 1.729-.132 2.586-.267.85-.146 1.691-.337 2.521-.57a24.12 24.12 0 0 0 2.013-.68 26.836 26.836 0 0 0 1.326-.556c.167-.083.342-.15.522-.199zM39.673 73.61a2.678 2.678 0 0 1-.324-.361l-.85-1.019a40.575 40.575 0 0 0-3.018-3.16 11.043 11.043 0 0 0-1.89-1.445 5.731 5.731 0 0 0-1.802-.7 5.053 5.053 0 0 0-1.783 0s.04-.023.12-.048c.116-.039.237-.067.36-.083a4.023 4.023 0 0 1 1.336 0 5.58 5.58 0 0 1 1.862.683c.699.413 1.348.906 1.934 1.47a31.57 31.57 0 0 1 2.99 3.215c.36.437.626.802.806 1.054.1.122.187.254.26.394zM68.405 84.522s-.047.044-.14.109c-.094.065-.235.17-.43.278-.54.318-1.108.587-1.696.805a10.998 10.998 0 0 1-11.525-2.366c-.456-.429-.87-.9-1.24-1.405-.133-.177-.22-.325-.284-.422-.065-.098-.094-.152-.086-.156.152.17.295.349.428.535.39.482.815.933 1.272 1.35a11.196 11.196 0 0 0 11.378 2.338 11.768 11.768 0 0 0 1.696-.744c.203-.119.412-.226.627-.322zM78.897 107.394s-.036-.054-.101-.17c-.065-.115-.166-.282-.288-.498a13.862 13.862 0 0 0-1.232-1.832l-.49-.578-.263-.314-.306-.3-.648-.643-.757-.628a17.019 17.019 0 0 0-3.962-2.359 16.213 16.213 0 0 0-5.402-1.26 15.01 15.01 0 0 0-6.278 1.01c-2.107.832-4.142 2.085-6.296 3.299a29.817 29.817 0 0 1-3.382 1.683 13.774 13.774 0 0 1-3.771.993c-1.299.131-2.61.052-3.883-.234a17.337 17.337 0 0 1-3.576-1.21 37.438 37.438 0 0 1-6.095-3.714c-1.847-1.318-3.601-2.593-5.334-3.612a19.165 19.165 0 0 0-5.125-2.196 13.106 13.106 0 0 0-4.578-.303 9.743 9.743 0 0 0-3.324.964 8.399 8.399 0 0 0-1.801 1.246l-.418.39c-.09.09-.14.134-.14.134s.039-.05.13-.148l.392-.423a8.241 8.241 0 0 1 1.8-1.282 9.73 9.73 0 0 1 3.35-1.004 13.128 13.128 0 0 1 4.621.278 19.463 19.463 0 0 1 5.172 2.189c1.754 1.018 3.505 2.29 5.356 3.612a37.348 37.348 0 0 0 6.07 3.684c1.13.532 2.317.938 3.536 1.21 1.256.282 2.549.36 3.829.232a13.656 13.656 0 0 0 3.713-.976 30.702 30.702 0 0 0 3.364-1.669c2.161-1.21 4.193-2.467 6.318-3.301a13.62 13.62 0 0 1 1.606-.52c.27-.069.537-.152.803-.206l.807-.134a15.365 15.365 0 0 1 3.134-.144c1.882.112 3.73.55 5.464 1.293a17.229 17.229 0 0 1 3.962 2.398c.259.22.511.437.756.64l.645.654.302.303c.09.108.18.213.263.318a12.816 12.816 0 0 1 1.693 2.445l.27.51c.069.111.094.173.094.173zM68.012 122.482a.719.719 0 0 1-.183.046l-.534.102c-.28.056-.562.098-.846.126-.331.033-.72.087-1.13.098l-.664.028h-.72c-.493 0-1.023-.046-1.578-.09a21.725 21.725 0 0 1-3.555-.693 22.03 22.03 0 0 1-3.37-1.33c-.49-.263-.962-.505-1.38-.776-.21-.13-.418-.25-.609-.361l-.54-.38c-.36-.234-.638-.484-.9-.693a7.93 7.93 0 0 1-.653-.56 6.834 6.834 0 0 0-.392-.361.772.772 0 0 1-.13-.141.818.818 0 0 1 .155.112l.418.361c.176.152.396.336.666.531s.558.44.911.668l.544.361c.191.127.4.242.609.362.418.263.89.498 1.38.755a20.533 20.533 0 0 0 6.864 2.004c.552.047 1.081.105 1.567.109.245 0 .483.021.72 0h.656c.418 0 .796-.047 1.127-.069a9.42 9.42 0 0 0 .847-.094l.537-.065a.643.643 0 0 1 .183-.05z" fill="#FFF"/>
            <path d="m214.647 94.026 11.994-1.174 1.243 12.747-11.994 1.177 2.064 21.181-15.776 1.55-2.053-21.181-40.757 3.995-1.337-9.655 34.343-68.301 16.298-1.6 5.975 61.26zm-41.269 4.049 25.49-2.5-3.767-38.65-.404-.09-1.03 2.94-20.289 38.3z" fill="#22AD9F"/>
            <path d="m214.647 94.026 11.994-1.174 1.243 12.747-11.994 1.177 2.064 21.181-15.776 1.55-2.053-21.181-40.757 3.995-1.337-9.655 34.343-68.301 16.298-1.6 5.975 61.26zm-41.269 4.049 25.49-2.5-3.767-38.65-.404-.09-1.03 2.94-20.289 38.3z" opacity=".4" fill="#000"/>
            <path d="m224.678 93.043 11.994-1.177 1.247 12.75-11.998 1.181 2.067 21.185-15.779 1.546-2.064-21.181-40.747 3.988-1.329-9.652 34.343-68.3 16.298-1.6 5.968 61.26zm-41.265 4.046 25.49-2.49-3.768-38.648-.407-.094-1.026 2.94-20.29 38.292z" fill="#0CAC9D"/>
            <path d="M168.523 103.49c-.11.102-.23.193-.36.27-.234.166-.58.397-1.008.68-.861.563-2.057 1.321-3.4 2.13a105.73 105.73 0 0 1-3.473 2.009 27.97 27.97 0 0 1-1.08.574c-.13.076-.265.14-.407.188.11-.099.23-.184.36-.253l1.04-.625 3.444-2.055 3.422-2.08 1.04-.63c.133-.085.274-.156.422-.209zM172.81 91.952a3.937 3.937 0 0 1-.498.361c-.324.22-.803.535-1.397.918a149.366 149.366 0 0 1-4.683 2.89c-1.836 1.083-3.53 2.098-4.757 2.792-.613.36-1.113.625-1.463.809a4.285 4.285 0 0 1-.55.27c.162-.125.334-.237.514-.335l1.44-.86 4.73-2.835 4.715-2.858 1.44-.863a3.84 3.84 0 0 1 .508-.289zM178.543 81.394c-.164.134-.339.255-.522.361-.36.224-.843.542-1.466.929-1.246.769-2.982 1.806-4.913 2.933a343.476 343.476 0 0 1-4.977 2.842c-.641.362-1.164.632-1.527.82a4.209 4.209 0 0 1-.577.271c.172-.125.352-.238.54-.336l1.499-.87 4.949-2.868 4.938-2.89 1.494-.874c.18-.12.367-.226.562-.318zM208.488 88.38c-.11.1-.23.19-.36.264-.234.162-.583.386-1.012.66-.864.55-2.067 1.286-3.414 2.074a94.215 94.215 0 0 1-3.49 1.943c-.45.242-.818.43-1.08.556a2.079 2.079 0 0 1-.408.181c.111-.094.232-.177.36-.246l1.048-.606 3.454-1.994 3.44-2.02 1.048-.61c.13-.083.27-.15.414-.202zM210.116 108.189c-.109.102-.23.19-.36.263-.227.16-.562.383-.98.658-.831.541-1.995 1.275-3.299 2.055a111.71 111.71 0 0 1-3.378 1.929c-.436.238-.792.426-1.041.552a1.798 1.798 0 0 1-.396.177 2.06 2.06 0 0 1 .36-.242l1.012-.603 3.346-1.976 3.328-2.008 1.012-.603c.124-.083.257-.151.396-.202zM210.93 115.098c-.109.103-.23.191-.36.264-.227.159-.562.383-.98.658a100.03 100.03 0 0 1-3.299 2.051 131.5 131.5 0 0 1-3.378 1.933c-.436.238-.792.426-1.041.552a1.798 1.798 0 0 1-.396.177 2.06 2.06 0 0 1 .36-.242l1.012-.603 3.346-1.976 3.328-2.008 1.012-.603c.124-.083.257-.151.396-.203zM211.737 122.008c-.109.103-.23.191-.36.264-.227.159-.562.383-.98.654a93.595 93.595 0 0 1-3.299 2.055c-1.304.777-2.503 1.445-3.378 1.933-.436.238-.793.426-1.041.552a2.068 2.068 0 0 1-.396.177 2.06 2.06 0 0 1 .36-.242l1.012-.603 3.346-1.976 3.328-2.008 1.012-.603c.124-.084.257-.151.396-.203zM207.642 81.076c-.11.101-.231.191-.36.268-.238.158-.584.386-1.016.66a113.585 113.585 0 0 1-6.9 4.017c-.455.239-.822.43-1.081.556a2.079 2.079 0 0 1-.407.181c.111-.094.232-.176.36-.246l1.044-.606 3.458-1.994 3.44-2.023 1.044-.607c.132-.083.272-.152.418-.206zM206.796 73.776c-.11.103-.23.192-.36.268a98.308 98.308 0 0 1-4.43 2.73c-1.351.784-2.583 1.467-3.487 1.947-.45.239-.818.43-1.08.556a1.762 1.762 0 0 1-.408.177c.111-.093.232-.175.36-.242l1.045-.61 3.458-1.99 3.44-2.023 1.044-.61c.132-.082.272-.15.418-.203zM205.953 66.476a1.84 1.84 0 0 1-.339.253c-.227.155-.558.361-.969.632a97.614 97.614 0 0 1-6.566 3.829l-1.026.527c-.123.071-.254.128-.39.17.113-.09.233-.169.361-.235l.994-.581 3.296-1.897 3.274-1.928.997-.578c.115-.078.239-.142.368-.192zM205.809 59.563c-.526.393-1.088.734-1.679 1.018-.562.339-1.154.625-1.768.856a10.191 10.191 0 0 1 1.678-1.018c.562-.34 1.154-.626 1.769-.856zM184.213 70.486a3.857 3.857 0 0 1-.52.36c-.36.225-.846.543-1.469.93a235.3 235.3 0 0 1-4.909 2.932 204.062 204.062 0 0 1-4.978 2.821c-.64.361-1.166.632-1.53.82a4.6 4.6 0 0 1-.573.271c.17-.126.351-.239.54-.336l1.499-.87 4.948-2.868 4.935-2.89 1.498-.874c.179-.112.366-.211.559-.296zM189.885 59.563c-.164.133-.339.254-.522.36-.36.225-.843.543-1.466.93a255.96 255.96 0 0 1-4.91 2.932 196.818 196.818 0 0 1-4.98 2.821c-.641.361-1.164.632-1.527.82a4.209 4.209 0 0 1-.577.271c.172-.125.352-.238.54-.336l1.499-.87 4.949-2.868 4.938-2.89 1.498-.874c.178-.113.365-.212.558-.296zM195.021 48.745c-.164.133-.339.254-.522.36-.36.225-.843.543-1.466.929-1.246.77-2.982 1.806-4.913 2.933a204.063 204.063 0 0 1-4.977 2.821c-.641.361-1.164.632-1.527.82a4.464 4.464 0 0 1-.577.27c.172-.124.352-.237.54-.335l1.499-.87 4.949-2.869 4.938-2.89 1.495-.873a3.98 3.98 0 0 1 .561-.296zM200.485 38.251c-.164.134-.339.255-.522.362-.342.224-.843.541-1.466.928a263.14 263.14 0 0 1-4.913 2.937 204.062 204.062 0 0 1-4.977 2.82c-.641.362-1.164.63-1.527.817a4.27 4.27 0 0 1-.577.274c.17-.129.35-.242.54-.34l1.499-.866 4.949-2.89 4.938-2.89 1.494-.873c.18-.107.368-.2.562-.279z" fill="#FF725E"/>
            <path d="M220.587 50.23c-.05.092-.108.18-.173.263a7.02 7.02 0 0 1-.558.722 11.384 11.384 0 0 1-2.522 2.19c-1.401.896-2.97 1.498-4.61 1.769-.968.155-1.953.183-2.928.083a14.767 14.767 0 0 1-3.069-.675c-2.053-.661-3.911-1.525-5.687-2.06a12.267 12.267 0 0 0-4.84-.545c-1.103.101-2.165.461-3.102 1.051-.253.166-.494.351-.72.553a1.63 1.63 0 0 1-.238.206c.064-.083.135-.16.213-.231.213-.217.446-.414.695-.589a6.892 6.892 0 0 1 3.126-1.12 12.177 12.177 0 0 1 4.92.492c1.8.53 3.66 1.387 5.69 2.048.986.327 2.002.553 3.034.671.96.099 1.928.073 2.88-.075 1.62-.259 3.172-.84 4.564-1.709a11.955 11.955 0 0 0 2.522-2.124c.205-.22.399-.452.58-.693.068-.081.143-.157.223-.228zM213.117 33.256a2.912 2.912 0 0 1-.414.329 14.92 14.92 0 0 1-1.207.79 19.43 19.43 0 0 1-1.895 1.001c-.797.362-1.615.676-2.449.943-.837.258-1.688.467-2.55.625-.703.123-1.413.21-2.125.26-.609.04-1.102.047-1.44.036a2.564 2.564 0 0 1-.53-.032c.174-.03.35-.044.526-.04.338 0 .828-.044 1.44-.098a22.944 22.944 0 0 0 2.104-.296c.85-.168 1.692-.379 2.521-.632.828-.265 1.64-.573 2.435-.925.72-.328 1.372-.654 1.898-.957.526-.303.947-.553 1.232-.722.143-.107.295-.202.454-.282zM193.426 76.58a2.711 2.711 0 0 1-.36-.319l-.987-.885a40.422 40.422 0 0 0-3.43-2.705 10.984 10.984 0 0 0-2.077-1.178 5.699 5.699 0 0 0-1.88-.437 5.1 5.1 0 0 0-1.769.239s.036-.03.112-.065c.11-.052.222-.096.338-.13a4.009 4.009 0 0 1 1.326-.177c.665.02 1.321.16 1.938.411.749.31 1.46.707 2.117 1.182 1.2.84 2.342 1.764 3.415 2.763.41.383.72.722.947.932.117.11.22.234.31.368zM223.4 83.334s-.036.047-.123.126c-.086.08-.209.199-.385.333-.487.393-1.009.74-1.56 1.036a11.013 11.013 0 0 1-11.73-.722c-.51-.361-.985-.769-1.42-1.217-.158-.156-.266-.29-.36-.362a.618.618 0 0 1-.108-.144s.18.166.5.47c.45.423.932.81 1.441 1.159a11.185 11.185 0 0 0 11.59.722c.551-.284 1.079-.61 1.579-.975.183-.153.376-.295.576-.426zM237 104.493a1.623 1.623 0 0 1-.137-.14c-.086-.105-.201-.257-.36-.452a14.17 14.17 0 0 0-1.477-1.64l-.569-.506-.302-.27-.36-.257-.72-.542-.84-.516a16.967 16.967 0 0 0-4.243-1.777 16.253 16.253 0 0 0-5.536-.499c-2.135.19-4.205.833-6.072 1.89-1.97 1.119-3.808 2.647-5.763 4.153a30.58 30.58 0 0 1-3.112 2.142 13.795 13.795 0 0 1-3.602 1.514 12.28 12.28 0 0 1-3.88.314 17.28 17.28 0 0 1-3.713-.723 37.042 37.042 0 0 1-6.551-2.813c-2.017-1.048-3.922-2.06-5.788-2.821a19.352 19.352 0 0 0-5.403-1.445 13.114 13.114 0 0 0-4.574.36 9.74 9.74 0 0 0-3.155 1.424c-.601.425-1.146.925-1.621 1.488l-.342.463c-.08.104-.123.155-.123.155s.033-.058.105-.166l.331-.473a8.153 8.153 0 0 1 1.607-1.525 9.597 9.597 0 0 1 3.173-1.466 13.114 13.114 0 0 1 4.614-.38c1.869.216 3.697.703 5.427 1.445 1.88.759 3.793 1.77 5.81 2.81a37.401 37.401 0 0 0 6.523 2.796c1.196.365 2.428.599 3.674.697a12 12 0 0 0 3.821-.31 13.64 13.64 0 0 0 3.54-1.492 29.852 29.852 0 0 0 3.095-2.128c1.959-1.499 3.807-3.03 5.795-4.157.49-.278.998-.525 1.52-.74.256-.109.504-.224.763-.318l.778-.246c1.006-.3 2.039-.497 3.084-.589 1.878-.151 3.77.022 5.59.513a16.967 16.967 0 0 1 4.264 1.806l.84.524.72.556.36.257.302.278.566.513a13.596 13.596 0 0 1 1.44 1.668c.144.203.26.362.339.466l.162.16zM228.334 120.968a.96.96 0 0 1-.173.072l-.511.177c-.27.095-.544.175-.821.242-.328.08-.692.188-1.11.257l-.648.123c-.227.04-.465.061-.72.093-.49.073-1.02.098-1.578.134a22.15 22.15 0 0 1-3.602-.184 21.44 21.44 0 0 1-3.522-.845c-.526-.188-1.027-.362-1.477-.571-.227-.101-.45-.188-.655-.289l-.588-.3c-.381-.184-.702-.39-.99-.56a8.044 8.044 0 0 1-.72-.462l-.443-.314a.75.75 0 0 1-.148-.12c.06.021.117.05.17.087l.46.286c.195.126.44.278.72.433.282.155.613.361.995.531l.59.285c.206.102.429.185.656.282.45.199.947.361 1.47.55 1.15.366 2.33.64 3.526.815 1.187.161 2.385.228 3.583.2.551-.033 1.08-.048 1.563-.116.242-.03.48-.047.72-.084l.65-.108c.413-.058.777-.159 1.105-.227a9.19 9.19 0 0 0 .825-.214l.522-.14c.05-.017.1-.028.151-.033zM153.331 68.066l-2.521-.398-15.621-5.057-9.134-2.647a9.815 9.815 0 0 0-7.906.541c-4.322 2.204-16.23 13.322-16.23 13.322l8.576 8.867-4.037 17.945c4.52 12.888 13.37 14.366 13.37 14.366 4.325.185 8.642-.531 12.678-2.103 8.215-3.131 16.834-10.504 17.915-13.671.648-1.9 1.185-5.895 1.61-10.407l13.01-5.317 3.525-18.06-15.235 2.619z" fill="#FFF"/>
            <path d="M134.328 100.018s-.04.043-.126.112-.213.173-.389.289a8.888 8.888 0 0 1-1.563.842 9.533 9.533 0 0 1-10.806-2.363 9.028 9.028 0 0 1-1.08-1.423c-.112-.177-.18-.325-.234-.423a.76.76 0 0 1-.069-.151c.131.17.252.349.36.534.33.488.701.946 1.11 1.37a9.63 9.63 0 0 0 10.643 2.333 10.048 10.048 0 0 0 1.574-.784c.382-.228.57-.358.58-.336zM129.386 63.359a.271.271 0 0 1 .03.087c.017.068.039.151.064.256.054.224.13.56.22.99.266 1.216.439 2.452.515 3.695.046.863-.004 1.727-.148 2.579a8.406 8.406 0 0 1-1.026 2.785 11.008 11.008 0 0 1-2.136 2.481c-.847.759-1.783 1.445-2.738 2.19-2.031 1.527-4.005 2.91-5.762 4.168-1.758 1.257-3.325 2.38-4.571 3.326l-.04.033-.04-.033c-.879-.7-1.713-1.453-2.499-2.257a6.18 6.18 0 0 1-.587-.694c-.061-.083-.097-.151-.126-.195a.633.633 0 0 1-.04-.072l.195.246a8.3 8.3 0 0 0 .605.668c.801.78 1.643 1.516 2.521 2.207h-.08c1.24-.96 2.789-2.106 4.554-3.367 1.764-1.26 3.731-2.65 5.762-4.179.951-.722 1.888-1.426 2.727-2.167a10.907 10.907 0 0 0 2.11-2.435c.5-.838.845-1.759 1.02-2.72.15-.84.206-1.696.17-2.55a26.31 26.31 0 0 0-.455-3.684c-.079-.422-.14-.755-.187-.997a5.81 5.81 0 0 1-.043-.26.279.279 0 0 1-.015-.101z" fill="#263238"/>
            <path d="M197.219 71.483c3.655-3.147 4.894-8.807 2.88-13.195l-5.15-.531a7.371 7.371 0 0 0 3.735-7.427 9.816 9.816 0 0 1-11.248 2.077c-2.406-1.192-4.358-3.413-7.002-3.88-2.399-.422-4.758.723-7.056 1.525-2.298.802-5.078 1.268-6.98-.26-1.505-1.21-1.974-3.33-1.876-5.266.097-1.936.655-3.822.774-5.754a13.09 13.09 0 0 0-4.174-10.194 9.905 9.905 0 0 0-6.466-6.568 9.868 9.868 0 0 0-9.062 1.616c-1.127.874-2.078 2.005-3.356 2.637-1.441.722-3.123.722-4.683 1.084-1.56.36-3.205 1.423-3.371 3.03l-.63 3.29a5.295 5.295 0 0 1-.36.694c-1.326 2.334-4.042 3.869-4.636 6.502-.331 1.47.08 3.063-.414 4.486-.652 1.875-2.67 2.93-3.602 4.674-1.29 2.399-.414 6.6 1.65 8.37 2.063 1.77 6.317 3.648 8.975 4.215.72-2.77 1.358-5.733 1.974-8.763 1.08 1.044 2.222 2.037 3.353 3.023 2.957 2.58 5.98 5.198 8.032 8.546 3.9 6.368 3.962 14.81 8.879 20.423.961 1.102 2.132 2.08 3.53 2.507 1.397.426 3.054.198 4.087-.835 1.221-1.22 1.38-3.28 2.73-4.352 1.801-1.427 4.416-.29 6.343.95 1.398.896 2.795 1.842 4.376 2.333 1.581.491 3.426.459 4.773-.51 1.347-.967 1.937-3.033.965-4.38-.39-.539-.969-.914-1.354-1.445-.386-.531-.497-1.398.032-1.806.53-.409 1.398 0 2.028.36a12.046 12.046 0 0 0 10.33.91 12.095 12.095 0 0 0 7.225-7.458 9.983 9.983 0 0 1-5.251-.628z" fill="#000"/>
            <path d="M194.002 43.146c.165.12.32.253.465.397.434.406.8.88 1.08 1.405.195.383.33.793.396 1.217a2.893 2.893 0 0 1-1.282 2.858c-.273.177-.584.29-.907.328a2.073 2.073 0 0 1-1.009-.144c-1.336-.55-2.01-2.099-3.454-2.789-1.408-.747-3.21-.798-4.938-.4-1.729.397-3.418 1.34-5.122 2.3-1.703.961-3.515 1.99-5.6 2.348a7.84 7.84 0 0 1-3.098-.022 5.903 5.903 0 0 1-1.44-.534 5.598 5.598 0 0 1-1.21-.896 6.844 6.844 0 0 1-1.55-2.463 11.137 11.137 0 0 1-.64-2.72c-.192-1.806-.04-3.54-.022-5.14a15.158 15.158 0 0 0-.436-4.414 10.2 10.2 0 0 0-.688-1.806c-.25-.52-.543-1.02-.875-1.492a11.24 11.24 0 0 0-1.84-2.059c-.444-.381-.915-.73-1.41-1.04l-.392-.235-.13-.083a.791.791 0 0 1 .141.069l.403.216a10.738 10.738 0 0 1 3.314 3.074 10.802 10.802 0 0 1 1.603 3.323 15.05 15.05 0 0 1 .464 4.45c0 1.611-.154 3.33.04 5.119.098.914.31 1.812.63 2.673a6.67 6.67 0 0 0 1.513 2.394c.348.342.74.633 1.167.867.44.23.905.403 1.387.517a7.75 7.75 0 0 0 3.025.018c2.046-.361 3.84-1.37 5.543-2.326 1.704-.957 3.386-1.9 5.173-2.308a9.015 9.015 0 0 1 2.64-.224c.424.03.845.098 1.257.206.399.108.785.26 1.152.451 1.495.722 2.161 2.29 3.433 2.8.589.251 1.264.191 1.8-.16a2.772 2.772 0 0 0 1.261-2.73 3.913 3.913 0 0 0-.36-1.196 5.674 5.674 0 0 0-1.023-1.412 7.261 7.261 0 0 0-.328-.318l-.133-.12zM135.131 63.995s0-.054-.029-.163a2.82 2.82 0 0 0-.097-.473 4.013 4.013 0 0 0-.882-1.611 6.897 6.897 0 0 0-2.388-1.665c-1.045-.48-2.341-.723-3.76-.983-1.42-.26-3.03-.57-4.478-1.538a6.676 6.676 0 0 1-1.059-10.154c1.492-1.535 3.602-2.297 5.324-3.645.422-.34.802-.728 1.13-1.159a4.8 4.8 0 0 0 .692-1.445c.289-1.026.263-2.098.36-3.142.04-.524.136-1.04.289-1.543.16-.497.418-.956.76-1.35a5.399 5.399 0 0 1 2.575-1.445c.926-.271 1.848-.441 2.716-.68a7.388 7.388 0 0 0 2.373-1.083 8.921 8.921 0 0 0 1.776-1.669c.48-.569.93-1.165 1.343-1.784.796-1.207 1.477-2.337 2.201-3.251.6-.789 1.306-1.49 2.1-2.08a5.854 5.854 0 0 1 1.66-.853c.205-.072.416-.126.63-.16 0 0-.219.051-.619.196a5.977 5.977 0 0 0-1.628.878 10.518 10.518 0 0 0-2.06 2.084c-.72.903-1.383 2.03-2.161 3.25a19.03 19.03 0 0 1-1.34 1.846 9.141 9.141 0 0 1-1.8 1.705c-.736.5-1.552.868-2.414 1.084-.879.246-1.8.415-2.712.686a5.197 5.197 0 0 0-2.493 1.39 3.702 3.702 0 0 0-.72 1.287 6.92 6.92 0 0 0-.277 1.502c-.097 1.034-.069 2.114-.36 3.18a4.904 4.904 0 0 1-.72 1.487c-.34.444-.732.844-1.168 1.192a24 24 0 0 1-2.77 1.767 12.097 12.097 0 0 0-2.52 1.86 6.513 6.513 0 0 0 1.015 9.897c1.405.95 3.004 1.253 4.412 1.539 1.408.285 2.723.52 3.775 1.015.914.39 1.734.974 2.402 1.712.415.473.711 1.04.865 1.65.041.158.068.319.079.48-.022.135-.022.189-.022.189z" fill="#263238"/>
            <path d="M163.888 31.57a.895.895 0 0 1-.274-.073 6.005 6.005 0 0 1-.72-.29 9.527 9.527 0 0 1-3.85-3.319 6.474 6.474 0 0 1-.393-.671.875.875 0 0 1-.112-.264c.025 0 .23.332.612.856 1 1.37 2.3 2.492 3.8 3.28.573.3.951.451.937.48zM175.864 56.207s-.227-.058-.634-.144a10.295 10.295 0 0 0-1.75-.217 23.252 23.252 0 0 0-2.616.076c-.987.068-2.074.17-3.223.144a8.734 8.734 0 0 1-3.18-.6 5.674 5.674 0 0 1-2.133-1.56 4.003 4.003 0 0 1-.817-1.586 2.745 2.745 0 0 1-.076-.48.605.605 0 0 1 0-.17c.022 0 .032.231.148.632.175.56.466 1.077.853 1.517a5.608 5.608 0 0 0 2.096 1.489c.996.377 2.052.57 3.116.57 1.135.026 2.219-.068 3.21-.13.875-.068 1.755-.08 2.632-.036a9.092 9.092 0 0 1 1.761.278c.156.042.31.091.461.148a.525.525 0 0 1 .152.07zM197.089 72.631s-.033 0-.105.047c-.102.047-.21.082-.32.105a2.554 2.554 0 0 1-1.29-.058 4.155 4.155 0 0 1-1.728-1.084 7.25 7.25 0 0 1-1.39-2.337c-.393-.924-.721-1.986-1.366-2.969a7.794 7.794 0 0 0-1.142-1.398 9.144 9.144 0 0 0-1.527-1.159c-2.262-1.369-5.233-1.929-8.284-1.748-3.05.18-5.921.758-8.576.942a16.847 16.847 0 0 1-6.987-.722 9.674 9.674 0 0 1-4.009-2.528 5.942 5.942 0 0 1-.479-.575 3.425 3.425 0 0 1-.31-.451c-.072-.12-.13-.217-.176-.29a.437.437 0 0 1-.054-.1s.029.029.072.09l.187.278c.099.152.207.298.324.437.151.197.315.384.49.56a9.76 9.76 0 0 0 3.995 2.442c2.24.704 4.6.935 6.933.679 2.64-.195 5.507-.802 8.58-.96 3.072-.16 6.068.386 8.366 1.787a9.3 9.3 0 0 1 1.553 1.188c.44.435.83.92 1.16 1.445.651 1.008.972 2.08 1.357 3.002a7.12 7.12 0 0 0 1.34 2.315 4.101 4.101 0 0 0 1.675 1.084c.406.137.84.168 1.26.09.307-.05.447-.126.45-.112z" fill="#455A64"/>
            <path d="M140.44 31.565a2.697 2.697 0 0 0-2.744 2.402l-2.914 30.418c-.504 4.277 5.075 13.448 9.645 13.953 4.614.51 5.068-1.734 5.666-5.779 1.001-6.77 1.336-9.32 1.333-9.28-.004.04 5.943-.198 8.147-7.65 1.08-3.706 1.721-9.937 2.07-15.051.314-4.606-1.966-10.605-6.569-10.725l-14.634 1.712z" fill="#FFBE9D"/>
            <path d="M159.634 44.605a.977.977 0 0 1-1.08.86.939.939 0 0 1-.89-1.012.988.988 0 0 1 1.08-.863.939.939 0 0 1 .89 1.015zM160.048 42.636c-.115.138-.893-.36-1.948-.285-1.056.076-1.801.658-1.913.538-.057-.054.047-.292.36-.563a2.697 2.697 0 0 1 1.52-.589 2.573 2.573 0 0 1 1.56.387c.35.227.475.462.421.512z" fill="#000"/>
            <path d="M150.367 45.154c-.126.127-.854-.448-1.91-.473-1.055-.025-1.843.48-1.955.361-.054-.061.076-.289.421-.524a2.663 2.663 0 0 1 1.57-.437 2.581 2.581 0 0 1 1.514.539c.316.245.414.494.36.534z" fill="#263238"/>
            <path d="M152.333 50.75c0-.062.67-.087 1.744-.084.27 0 .529 0 .601-.191a1.38 1.38 0 0 0-.076-.817c-.165-.684-.34-1.406-.522-2.167-.72-3.052-1.2-5.548-1.08-5.577.118-.029.803 2.427 1.52 5.48.172.75.335 1.466.49 2.167.128.35.128.734 0 1.083a.673.673 0 0 1-.49.333c-.155.02-.31.02-.465 0-1.066-.083-1.725-.17-1.722-.228z" fill="#000"/>
            <path d="M151.426 63.272a19.42 19.42 0 0 1-9.808-4.07s1.877 5.57 9.566 5.862l.242-1.792z" fill="#EB996E"/>
            <path d="M150.514 43.344c-.165.257-1.163-.119-2.402-.256s-2.294-.036-2.395-.325c-.043-.137.187-.361.645-.538a3.97 3.97 0 0 1 1.876-.203c.636.07 1.245.29 1.78.643.403.282.572.557.496.68zM159.89 41.217c-.173.25-.911.04-1.801.072-.89.033-1.606.242-1.801 0-.08-.119.025-.361.335-.607.419-.304.923-.469 1.44-.47a2.484 2.484 0 0 1 1.441.409c.35.231.461.477.386.596z" fill="#000"/>
            <path d="M149.783 52.667a2.25 2.25 0 0 1 1.653-.361c.295.04.566.182.768.401.218.323.314.714.27 1.102.001.234-.034.467-.105.69a.902.902 0 0 1-.44.516 1.232 1.232 0 0 1-.72.036 2.704 2.704 0 0 1-1.112-.404 1.377 1.377 0 0 1-.62-.976.932.932 0 0 1 .558-.96" fill="#EB996E"/>
            <path d="M152.625 54.986c-.076.03-.216-.202-.468-.516a3.848 3.848 0 0 0-2.615-1.496c-.4-.058-.666-.061-.684-.14-.018-.08.234-.214.691-.26a3.008 3.008 0 0 1 1.733.39c.526.298.95.75 1.213 1.296.195.416.198.705.13.726z" fill="#000"/>
            <path d="M134.375 62.293c2.503-.502 4.434-2.658 5.294-5.056.861-2.399.814-5.04.588-7.586a1.22 1.22 0 0 0-.343-.896c-.378-.292-.922-.054-1.332.195a41.593 41.593 0 0 0-4.528 3.193c-1.34 1.084-2.665 2.33-3.18 3.974-.789 2.528.879 5.544 3.432 6.209" fill="#263238"/>
            <path d="M191.913 61.705 180.11 42.676l-3.263-6.697s-1.041-1.383-2.122-2.564c-1.772-1.94-3.526-.434-3.526-.434a1.195 1.195 0 0 0-1.185-.722c-.645 0-1.252.31-1.631.834 0 0-.483-.538-1.823-.62a1.391 1.391 0 0 0-.846.274c-.44-.387-1.246-.943-2.02-.661-.606.22-4.276 3.02-5.18 4.428-.447.697.382 1.6 1.498 1.178a9.9 9.9 0 0 0 1.34-.546c.339-.19.645-.435.908-.722 0 0-.926 1.625 0 1.91a2.117 2.117 0 0 0 1.74-.422c.36-.296.756-.683 1.141-1.062l-.043.065c-.512.758.821 1.882 1.466 1.427.3-.212.587-.441.86-.687 1.499 1.084-.58 2.49-1.458 2.417a26.793 26.793 0 0 0-4.063 0c-.763.061-1.44.246-1.858.668-.497.513.025 1.59.72 1.698 1.293.202 2.943.487 4.657.932 2.017.52 7.3 2.243 7.3 2.243l.516.419 7.178 17.558-12.289 2.612-2.745 15.618 22.187-6.04c4.992-2.636 7.373-9.307 4.344-14.075z" fill="#FFBE9D"/>
            <path d="M172.726 45.58a1.51 1.51 0 0 1-.28-.068l-.796-.228-2.921-.87-2.014-.61a46.367 46.367 0 0 0-2.316-.665 22.049 22.049 0 0 0-2.6-.539 4.44 4.44 0 0 1-1.412-.256.944.944 0 0 1-.317-.235.596.596 0 0 1-.108-.195l-.025-.191a1.847 1.847 0 0 1 .046-.766c.089-.256.272-.468.512-.593.218-.113.448-.205.684-.274a4.627 4.627 0 0 1 1.44-.177c.937 0 1.82.144 2.663.108.409-.01.817-.05 1.22-.119.393-.072.768-.173 1.135-.267a6.056 6.056 0 0 1 2.1-.271 5.663 5.663 0 0 1 1.693.433c.405.17.8.364 1.181.582.314.177.551.325.72.423.084.048.163.102.238.162a1.475 1.475 0 0 1-.259-.13l-.72-.39c-.385-.205-.78-.389-1.185-.55a5.602 5.602 0 0 0-1.664-.396 5.952 5.952 0 0 0-2.05.285c-.36.097-.742.206-1.142.282-.412.075-.83.118-1.25.13-.857.04-1.75-.087-2.665-.098a4.504 4.504 0 0 0-1.368.17c-.44.144-.94.3-1.08.748a1.75 1.75 0 0 0-.04.686l.025.166a.29.29 0 0 0 .068.12.85.85 0 0 0 .256.19c.435.15.89.23 1.35.24.885.13 1.76.317 2.623.555.824.214 1.595.452 2.316.683l2.01.632 2.902.929.786.26c.084.027.166.062.244.104zM163.625 32.11c.021.03-.555.362-1.405 1.009-.496.379-.967.789-1.412 1.228-.504.491-1.033 1.083-1.66 1.607-.314.215-.547.53-.663.892-.092.333.1.679.432.773.31.087.638.094.951.018.283-.052.56-.132.829-.238a5.933 5.933 0 0 0 1.458-.889 1.41 1.41 0 0 1-.324.34c-.326.276-.69.504-1.08.675a4.576 4.576 0 0 1-.847.268c-.34.088-.697.088-1.037 0a.802.802 0 0 1-.558-.98c.122-.403.376-.753.72-.996.616-.527 1.145-1.084 1.664-1.59.45-.437.932-.84 1.44-1.206.44-.314.811-.538 1.081-.69.13-.086.267-.16.41-.22z" fill="#EB996E"/>
            <path d="M168.13 33.6c-.128.173-.267.338-.417.494l-1.185 1.307-1.776 1.926c-.355.39-.777.713-1.246.953-.257.13-.54.2-.828.206a1.15 1.15 0 0 1-.829-.332.774.774 0 0 1-.194-.452 1.304 1.304 0 0 1 .046-.462c.083-.283.212-.55.382-.791a124.56 124.56 0 0 0 1.758-1.896c.53-.586 1.059-1.044 1.484-1.445.182-.192.39-.358.616-.495.183-.081.38-.125.58-.13.32-.022.507 0 .49.043a1.473 1.473 0 0 0-.483.022 1.628 1.628 0 0 0-.544.144 3.306 3.306 0 0 0-.58.503c-.41.411-.918.888-1.44 1.466-.523.578-1.11 1.235-1.744 1.918-.158.22-.28.464-.36.722a1.163 1.163 0 0 0-.043.398.633.633 0 0 0 .151.343.975.975 0 0 0 .692.27c.259-.004.513-.067.745-.183.45-.229.856-.536 1.2-.907l1.8-1.896 1.229-1.265.342-.34c.096-.086.147-.127.155-.122zM173.649 35.34s0 .112-.145.213a.762.762 0 0 1-1.112-.191c-.083-.138-.083-.242-.062-.246.022-.003.072.069.166.163.12.122.272.205.44.238a.855.855 0 0 0 .496-.076c.123-.058.195-.119.217-.1z" fill="#EB996E"/>
            <path d="M174.08 36.998c-.039.033-.309-.238-.547-.647a1.505 1.505 0 0 1-.299-.79c.047-.019.227.306.461.697.165.226.295.475.386.74zM174.877 43.456a2.337 2.337 0 0 1-.342-.75 6.157 6.157 0 0 1-.296-1.977 6.21 6.21 0 0 1 .36-1.965c.075-.267.197-.52.36-.744a9.636 9.636 0 0 0-.522 2.713 9.54 9.54 0 0 0 .44 2.723zM184.573 68.485c-.036 0-.072-.383-.26-.972a6.081 6.081 0 0 0-.425-.993 6.016 6.016 0 0 0-1.728-1.969 5.864 5.864 0 0 0-.926-.553c-.555-.263-.933-.36-.926-.383a.794.794 0 0 1 .27.037c.247.052.488.127.72.224.343.143.668.322.973.534a5.561 5.561 0 0 1 1.78 2.03c.17.33.304.678.4 1.037.065.236.11.478.133.722a.898.898 0 0 1-.011.286z" fill="#EB996E"/>
            <path d="M143.376 103.269a5.112 5.112 0 0 0-3 .383c-1.603-.723-3.58.516-3.58.516-.58-.278-4.074 2.012-4.074 2.012l-4.351 2.06-23.243-17.32 6.588-6.864-9.231-9.633-10.806 11.161a8.194 8.194 0 0 0-2.16 5.256 10.693 10.693 0 0 0 5.917 10.114l27.374 14.087a31.881 31.881 0 0 0 6.227-.972c2.363-.618 6.4-2.416 6.4-2.416s0 .122.72 1.527c1.301 2.529 3.206-.202 3.206-.202.19.444.44.86.742 1.235 1.646 1.6 2.788-.549 2.788-.549s.493.864 1.963.22c1.47-.642-.213-5.078-.213-5.078s.494.965 1.441-.256c.947-1.221-1.134-4.949-2.708-5.281z" fill="#FFBE9D"/>
            <path d="M140.087 103.88a.694.694 0 0 1 .303-.12c.292-.064.595-.054.882.029.423.12.818.323 1.164.596.207.155.401.328.58.517.179.221.331.464.453.722.427.861.782 1.757 1.063 2.677.108.36.18.639.227.841.033.103.05.21.047.318-.026 0-.155-.43-.4-1.12a24.742 24.742 0 0 0-1.106-2.633 3.201 3.201 0 0 0-.425-.668 4.72 4.72 0 0 0-.544-.502 3.567 3.567 0 0 0-1.08-.607 2.403 2.403 0 0 0-1.164-.05zM142.886 113.675a2.043 2.043 0 0 1-.205-.4l-.508-1.106c-.429-.935-1.056-2.214-1.654-3.67a9.765 9.765 0 0 0-.947-1.976 3.244 3.244 0 0 0-1.336-1.116 2.156 2.156 0 0 0-1.153-.206c-.28.036-.425.112-.432.094-.007-.018.033-.025.101-.061.1-.05.207-.086.317-.105.413-.07.838-.017 1.221.155.572.24 1.065.635 1.423 1.142.404.625.733 1.297.98 2 .594 1.446 1.202 2.739 1.602 3.689.198.473.36.863.454 1.13.061.138.107.282.137.43zM132.217 108.102c.113-.08.234-.15.36-.206l1.038-.502c.223-.105.457-.22.72-.336.296-.118.616-.165.933-.137.353.028.692.153.98.36.29.239.534.528.72.853.198.325.36.661.504.972.144.31.314.61.472.892.314.56.609 1.062.825 1.503.178.344.332.7.461 1.065.058.13.096.268.115.409-.029 0-.223-.56-.691-1.413-.234-.426-.537-.917-.861-1.477a18.561 18.561 0 0 1-.483-.896c-.158-.314-.31-.643-.5-.957a3.068 3.068 0 0 0-.667-.806 1.816 1.816 0 0 0-.882-.36 1.879 1.879 0 0 0-.861.108c-.26.104-.508.22-.72.31l-1.063.48a1.747 1.747 0 0 1-.4.138zM132.722 106.184a1.39 1.39 0 0 1-.317.198c-.21.12-.515.286-.897.488a204.508 204.508 0 0 1-6.011 3.041l-.923.434c-.113.06-.234.105-.36.134a1.57 1.57 0 0 1 .32-.203c.21-.115.516-.281.898-.484.76-.404 1.819-.95 2.993-1.546 1.174-.596 2.24-1.12 3.014-1.491.39-.188.72-.336.926-.438.112-.061.232-.106.357-.133zM105.438 90.963a11.72 11.72 0 0 0-2.744-.09 11.86 11.86 0 0 0-2.651.722c.216-.173.46-.31.72-.405a6.871 6.871 0 0 1 3.89-.462c.273.035.538.114.785.235z" fill="#EB996E"/>
            <path d="M156.767 28.394a72.197 72.197 0 0 0-17.116 1.806c-1.3.3-2.676.683-3.555 1.687-.932 1.062-1.08 2.575-1.217 3.973l-.447 5.147c-.246.425-.52.834-.817 1.225-1.354 1.773-3.08 3.25-4.322 5.115-1.243 1.863-1.913 4.334-.912 6.328.61 1.206 1.733 2.059 2.554 3.128 1.394 1.806 1.848 4.158 2.662 6.3.814 2.141 2.283 4.334 4.527 4.753 1.08.206 2.183-.022 3.26.137 1.61.235 2.964 1.293 4.243 2.301 1.278 1.008 2.669 2.034 4.29 2.196 1.62.163 3.475-.939 3.508-2.571a3.794 3.794 0 0 1-3.916-.109c-.943-.625-1.552-1.636-2.362-2.424-1.992-1.936-5.198-2.55-6.584-4.959-1.08-1.903-.66-4.291-.162-6.433.428-1.857.868-3.869.331-5.653.043-.287.065-.577.068-.867 0-1.9-.738-3.937.144-5.617 1.167-2.225 4.531-2.506 5.71-4.72.687-1.29.446-2.937 1.195-4.19.702-1.178 2.11-1.72 3.45-2.013 1.34-.292 2.749-.426 3.93-1.12 1.181-.693 2.075-2.16 1.538-3.42z" fill="#000"/>
            <path d="M161.132 67.148a.361.361 0 0 1-.054.09l-.176.25c-.242.312-.52.594-.829.841a5.588 5.588 0 0 1-1.646.885 5.672 5.672 0 0 1-2.449.286 5.168 5.168 0 0 1-2.759-1.135c-.857-.66-1.62-1.538-2.59-2.236a3.733 3.733 0 0 0-1.649-.697 3.593 3.593 0 0 0-1.837.336 9.192 9.192 0 0 1-1.905.658 3.338 3.338 0 0 1-2.053-.362 10.328 10.328 0 0 1-1.733-1.152 14.091 14.091 0 0 1-1.52-1.325 4.765 4.765 0 0 1-1.08-1.633 3.39 3.39 0 0 1-.123-1.878c.132-.58.314-1.147.544-1.694a21.095 21.095 0 0 0 1.448-8.767c-.021-.51-.054-.907-.083-1.174 0-.126 0-.224-.025-.303a.33.33 0 0 1 0-.105c.013.032.02.066.022.101l.043.303c.04.268.086.661.119 1.174a20.604 20.604 0 0 1-1.365 8.846 10.192 10.192 0 0 0-.537 1.648 3.184 3.184 0 0 0 .123 1.784 4.6 4.6 0 0 0 1.044 1.568c.469.47.97.905 1.502 1.303.527.434 1.097.812 1.7 1.131a3.14 3.14 0 0 0 1.941.361 9.138 9.138 0 0 0 1.866-.646 3.798 3.798 0 0 1 1.927-.34c.626.097 1.22.345 1.729.723.987.722 1.743 1.603 2.586 2.257a5.006 5.006 0 0 0 2.676 1.123 5.75 5.75 0 0 0 4.034-1.083 6.67 6.67 0 0 0 1.11-1.138z" fill="#263238"/>
            <path d="M125.147 55.662a4.179 4.179 0 0 1-.288-.401 4.092 4.092 0 0 1-.511-1.315 5.455 5.455 0 0 1 .036-2.232 6.872 6.872 0 0 1 1.246-2.68 12.473 12.473 0 0 1 2.6-2.464c1.034-.773 2.208-1.492 3.379-2.326a12.414 12.414 0 0 0 3.205-3.125c.43-.67.757-1.4.973-2.167.23-.773.389-1.582.576-2.398.162-.814.404-1.61.72-2.377.317-.753.801-1.424 1.416-1.961a6.003 6.003 0 0 1 2.042-1.131 9.445 9.445 0 0 1 2.19-.433c1.37-.07 2.743-.027 4.106.13 1.18.126 2.369.142 3.551.047a7.548 7.548 0 0 0 2.784-.831 5.52 5.52 0 0 0 1.704-1.38c.297-.361.53-.77.692-1.21.1-.303.14-.47.147-.466a3.544 3.544 0 0 1-.111.48c-.15.45-.377.871-.67 1.243a5.598 5.598 0 0 1-1.711 1.445 7.627 7.627 0 0 1-2.82.87c-1.192.105-2.39.097-3.58-.025a25.14 25.14 0 0 0-4.078-.112 9.208 9.208 0 0 0-2.16.433 5.851 5.851 0 0 0-1.982 1.084 5.215 5.215 0 0 0-1.365 1.9c-.316.756-.558 1.541-.72 2.344-.187.813-.36 1.626-.584 2.41a8.03 8.03 0 0 1-.997 2.203 12.522 12.522 0 0 1-3.242 3.164c-1.181.838-2.355 1.55-3.386 2.312a12.336 12.336 0 0 0-2.586 2.42 6.669 6.669 0 0 0-1.25 2.619 5.346 5.346 0 0 0-.068 2.196c.125.623.378 1.213.742 1.734z" fill="#455A64"/>
            <path d="M126.202 57.558a7.974 7.974 0 0 1-1.105-1.066 4.969 4.969 0 0 1-.962-1.527 2.51 2.51 0 0 1-.166-1.131c.045-.433.214-.843.487-1.181.583-.723 1.548-1.106 2.56-1.319.508-.104 1.041-.187 1.57-.321a4.46 4.46 0 0 0 1.535-.64 3.71 3.71 0 0 0 1.117-1.325c.274-.556.505-1.132.691-1.723.192-.62.433-1.224.72-1.806a3.825 3.825 0 0 1 1.351-1.5 6.623 6.623 0 0 1 1.877-.722c.637-.166 1.268-.3 1.862-.502a6.023 6.023 0 0 0 2.86-2.113 21.897 21.897 0 0 0 1.79-2.792 15.462 15.462 0 0 1 1.617-2.402 6.155 6.155 0 0 1 1.848-1.513 4.651 4.651 0 0 1 1.725-.524 3.233 3.233 0 0 1 1.138.094c.124.033.244.076.36.13 0 0-.133-.036-.385-.094a3.523 3.523 0 0 0-1.12-.058c-.59.073-1.16.257-1.682.542a6.127 6.127 0 0 0-1.801 1.506c-.6.75-1.13 1.553-1.585 2.399a21.772 21.772 0 0 1-1.772 2.813c-.37.48-.798.913-1.271 1.29a5.527 5.527 0 0 1-1.646.874c-.606.21-1.243.343-1.873.51-.641.145-1.256.389-1.823.722a3.648 3.648 0 0 0-1.29 1.445 12.055 12.055 0 0 0-.72 1.78c-.194.6-.435 1.183-.72 1.745a3.97 3.97 0 0 1-1.174 1.387 4.761 4.761 0 0 1-1.596.658c-.54.13-1.08.209-1.577.314-.998.202-1.938.574-2.49 1.246a2.127 2.127 0 0 0-.471 1.112c-.035.368.014.739.144 1.084.216.555.527 1.069.919 1.517.316.361.587.647.77.83l.213.207c.054.025.079.05.075.054z" fill="#455A64"/>
            <path d="M170.54 34.224c-.05.1-.113.194-.187.278-.13.173-.32.42-.57.722a34.166 34.166 0 0 1-2.023 2.222c-.411.404-.796.86-1.326 1.026a1.164 1.164 0 0 1-.76 0 .974.974 0 0 1-.49-.452 1.474 1.474 0 0 1-.133-.917.862.862 0 0 1 .083-.325c.012.11.012.222 0 .332-.026.293.035.587.176.845a.833.833 0 0 0 .43.361c.21.074.44.074.651 0 .461-.148.832-.581 1.246-.993.825-.827 1.542-1.607 2.06-2.167.26-.33.542-.64.843-.932z" fill="#EB996E"/>
            <path d="M173.292 34.224c-.06.104-.133.199-.22.282-.147.173-.36.419-.64.722l-.97 1.051-.576.614c-.2.231-.419.444-.656.636a1.694 1.694 0 0 1-.878.361.9.9 0 0 1-.818-.361.724.724 0 0 1-.133-.419.829.829 0 0 1 .122-.386c.133-.217.27-.383.39-.55.237-.328.435-.592.575-.773.065-.1.144-.19.235-.267-.045.11-.103.215-.173.31-.123.192-.303.467-.53.806-.111.17-.248.362-.36.55a.54.54 0 0 0 0 .628.72.72 0 0 0 .666.274c.284-.03.554-.14.778-.317.236-.18.454-.38.652-.6l.587-.607.998-1.026c.285-.289.519-.52.684-.679a1.32 1.32 0 0 1 .267-.25z" fill="#EB996E"/>
        </g>
        <g>
            <path d="M210.898 144.808a4.559 4.559 0 0 1 7.416-1.29 5.93 5.93 0 0 1-3.317 2.558 3.596 3.596 0 0 1-4.099-1.268" fill="#FF6121"/>
            <path d="M208.34 145.4c.331-.148.678-.257 1.034-.325.652-.159 1.56-.336 2.565-.502a45.23 45.23 0 0 1 2.586-.361c.357-.06.719-.088 1.08-.083-.346.102-.7.174-1.058.216l-2.576.423c-1 .166-1.909.325-2.564.448a9.527 9.527 0 0 1-1.066.184z" fill="#263238"/>
            <path d="M82.16 121.94a6.026 6.026 0 0 1-1.08 10.002c-1.322-3.4-1.83-7.058 1.08-10.002M87.17 124.548a7.787 7.787 0 0 0 3.852 6.302 7.742 7.742 0 0 0 7.368.232c-2.522-3.973-5.933-7.322-11.22-6.542" fill="#FF6121"/>
            <path d="M75.691 111.985c.064.053.12.114.17.18l.45.539c.381.473.94 1.155 1.646 1.983a108.558 108.558 0 0 0 5.727 6.281 85.796 85.796 0 0 0 3.385 3.226 46.21 46.21 0 0 0 2.94 2.438 22.382 22.382 0 0 0 2.12 1.445c.523.31.833.44.826.458a.916.916 0 0 1-.231-.086 5.493 5.493 0 0 1-.63-.307c-.751-.42-1.473-.889-2.161-1.405a48.563 48.563 0 0 1-2.972-2.417 69.018 69.018 0 0 1-3.407-3.222 89.13 89.13 0 0 1-5.695-6.328 62.529 62.529 0 0 1-1.602-2.023l-.425-.564a1.308 1.308 0 0 1-.14-.198z" fill="#263238"/>
            <path d="M81.883 127.076c-.033 0 .086-.506.19-1.326.268-2.144.041-4.321-.662-6.364-.27-.78-.49-1.246-.461-1.26.075.094.136.199.183.31.15.294.285.595.404.903a12.464 12.464 0 0 1 .666 6.422 8.937 8.937 0 0 1-.216.986 1.491 1.491 0 0 1-.104.33z" fill="#263238"/>
            <path d="M240.825 53.978a4.587 4.587 0 0 1-.685-4.207 4.57 4.57 0 0 1 3.07-2.948 5.946 5.946 0 0 1 .673 4.136 3.607 3.607 0 0 1-3.058 3.02" fill="#FF6121"/>
            <path d="M240.14 56.518c.026-.362.095-.72.206-1.066.17-.65.443-1.535.774-2.503.332-.968.656-1.835.9-2.46.116-.344.263-.676.44-.993-.075.355-.18.703-.313 1.04-.238.69-.53 1.535-.85 2.474-.32.94-.623 1.843-.825 2.478-.093.349-.203.692-.331 1.03z" fill="#263238"/>
            <path d="M224.977 80.852a8.869 8.869 0 0 1 1.806-8.044 8.812 8.812 0 0 1 7.635-3.06c.5 2.731-.36 5.534-1.783 7.908-1.697 2.799-5.068 3.973-7.658 3.196" fill="#FF725E"/>
            <path d="M214.32 91.544a1.26 1.26 0 0 1 .155-.195l.464-.531c.414-.455 1.02-1.105 1.772-1.9 1.513-1.59 3.624-3.76 5.972-6.14 2.348-2.38 4.484-4.53 6.04-6.072l1.852-1.824.511-.488c.115-.108.18-.166.187-.159-.048.068-.102.13-.162.188l-.486.513-1.8 1.86-6.009 6.112-6.007 6.104-1.801 1.857-.49.505c-.06.064-.126.121-.198.17z" fill="#263238"/>
            <path d="M224.977 80.852a8.869 8.869 0 0 1 1.806-8.044 8.812 8.812 0 0 1 7.635-3.06c.5 2.731-.36 5.534-1.783 7.908-1.697 2.799-5.068 3.973-7.658 3.196" opacity=".3" fill="#FF6121"/>
            <path d="M220.04 81.925a5.427 5.427 0 0 1-1.127-8.886c1.44.903 2.362 2.446 2.84 4.078.57 1.93-.287 3.974-1.714 4.808" fill="#FF725E"/>
            <path d="M220.04 81.925a5.427 5.427 0 0 1-1.127-8.886c1.44.903 2.362 2.446 2.84 4.078.57 1.93-.287 3.974-1.714 4.808" opacity=".3" fill="#FF6121"/>
            <path d="M220.601 85.003a1.411 1.411 0 0 1-.108-.333c-.061-.213-.13-.527-.205-.92a46.28 46.28 0 0 1-.454-3.075 75.556 75.556 0 0 1-.306-3.095 7.85 7.85 0 0 1-.05-1.286c.09.42.15.846.183 1.275l.36 3.085c.137 1.18.281 2.29.397 3.074.115.783.212 1.267.183 1.275z" fill="#263238"/>
            <path d="M152.582 123.79a8.53 8.53 0 0 1 6.333-5.092 8.51 8.51 0 0 1 7.714 2.534c-4.085 3.175-8.85 5.342-14.018 2.557" fill="#FF725E"/>
            <path d="M152.582 123.79a8.53 8.53 0 0 1 6.333-5.092 8.51 8.51 0 0 1 7.714 2.534c-4.085 3.175-8.85 5.342-14.018 2.557" opacity=".3" fill="#FF6121"/>
            <path d="M150.287 125.06c.098-.097.207-.182.325-.252.216-.156.536-.361.947-.6a17.974 17.974 0 0 1 6.97-2.308c.468-.05.85-.076 1.112-.08.136-.018.275-.018.41 0 0 .03-.579.066-1.508.203-1.21.177-2.4.458-3.562.838a21.218 21.218 0 0 0-3.357 1.445c-.843.462-1.319.78-1.337.755z" fill="#263238"/>
            <path d="M57.65 76.724a6.568 6.568 0 0 1 6.242.365 6.607 6.607 0 0 1 3.123 5.432c-3.98-.296-7.83-1.52-9.365-5.797" fill="#FF725E"/>
            <path d="M57.65 76.724a6.568 6.568 0 0 1 6.242.365 6.607 6.607 0 0 1 3.123 5.432c-3.98-.296-7.83-1.52-9.365-5.797" opacity=".3" fill="#FF6121"/>
            <path d="M55.673 76.258a.973.973 0 0 1 .317 0c.286.03.571.076.853.137.933.195 1.843.487 2.716.87.872.388 1.702.863 2.478 1.42.295.217.526.401.677.538.085.065.161.14.227.224-.022.025-.36-.253-.98-.65a16.487 16.487 0 0 0-5.147-2.258c-.702-.177-1.145-.252-1.141-.281z" fill="#263238"/>
            <path d="M186.712 119.364a5.914 5.914 0 0 1 2.046-5.22 5.876 5.876 0 0 1 5.475-1.151c-1.358 3.312-3.469 6.256-7.52 6.371" fill="#FF6121"/>
            <path d="M185.765 120.921c.11-.338.261-.66.45-.96a12.14 12.14 0 0 1 3.39-3.793 4.32 4.32 0 0 1 .903-.553c-.264.234-.54.453-.828.657a14.968 14.968 0 0 0-3.357 3.753c-.169.31-.355.608-.558.896z" fill="#263238"/>
            <path d="M215.054 100.6a5.919 5.919 0 0 1 1.031-5.514 5.881 5.881 0 0 1 5.16-2.162c-.72 3.51-2.232 6.798-6.19 7.676" fill="#FF725E"/>
            <path d="M215.054 100.6a5.92 5.92 0 0 1 1.031-5.514 5.881 5.881 0 0 1 5.16-2.162c-.72 3.51-2.232 6.798-6.19 7.676" opacity=".3" fill="#FF6121"/>
            <path d="M214.417 102.308a4.17 4.17 0 0 1 .263-1.026 11.9 11.9 0 0 1 1.08-2.322c.439-.735.956-1.42 1.542-2.041.23-.272.492-.515.782-.723-.214.28-.443.547-.685.802a15.776 15.776 0 0 0-1.48 2.052c-.43.726-.802 1.484-1.113 2.268-.11.337-.24.668-.389.99z" fill="#263238"/>
            <path d="M1.408 74.77a5.9 5.9 0 0 1 3.662-4.242 5.875 5.875 0 0 1 5.544.741c-2.377 2.67-5.345 4.743-9.206 3.5" fill="#FF6121"/>
            <path d="M0 75.922c.217-.28.466-.534.742-.755a12.022 12.022 0 0 1 2.096-1.445c.749-.414 1.54-.744 2.36-.986a4.085 4.085 0 0 1 1.033-.22 9.707 9.707 0 0 1-.994.36 14.82 14.82 0 0 0-4.409 2.42c-.263.225-.54.434-.828.626z" fill="#263238"/>
        </g>
        <g>
            <path d="m166.042 27.632 2.881-5.234c-3.833-6.107-2.388-14.138 3.332-18.516 5.72-4.378 13.826-3.656 18.688 1.663 4.862 5.32 4.875 13.48.03 18.815-4.845 5.335-12.948 6.082-18.682 1.722l-6.25 1.55z" stroke="#0CAC9D" stroke-width=".5"/>
            <path d="m166.042 27.632 6.256-1.59-.025.076-.22-.278.288.213a14.264 14.264 0 0 0 2.86 1.67c1.208.52 2.484.867 3.789 1.029.723.09 1.452.117 2.179.08.36-.026.756-.04 1.142-.077l1.156-.191a13.853 13.853 0 0 0 8.518-5.624 13.794 13.794 0 0 0 2.262-5.342 14.08 14.08 0 0 0-.245-6.123 13.62 13.62 0 0 0-2.993-5.624l-.565-.61c-.188-.206-.407-.362-.61-.564a7.364 7.364 0 0 0-.626-.538l-.663-.488a5.693 5.693 0 0 0-.666-.437l-.72-.426-.72-.361a6.34 6.34 0 0 0-.72-.322 13.928 13.928 0 0 0-6.156-.892 13.46 13.46 0 0 0-5.63 1.72 14 14 0 0 0-6.461 8.09 15.212 15.212 0 0 0-.57 4.494c.083 2.432.804 4.8 2.09 6.863v.047l-2.936 5.209 2.856-5.256v.047a13.877 13.877 0 0 1-2.143-6.888 15.212 15.212 0 0 1 .558-4.537 14.167 14.167 0 0 1 6.505-8.207 13.687 13.687 0 0 1 5.702-1.748c2.12-.173 4.252.134 6.238.9.255.092.504.2.746.324l.742.362.72.422c.241.135.474.286.695.452l.645.484c.23.159.421.361.637.545.216.184.425.361.616.571l.587.636a13.706 13.706 0 0 1 3.033 5.7c.527 2.024.604 4.14.223 6.198a13.88 13.88 0 0 1-2.298 5.418 13.969 13.969 0 0 1-8.626 5.671l-1.174.191c-.385.037-.77.047-1.149.073-.735.036-1.471.005-2.2-.09a13.818 13.818 0 0 1-3.822-1.055 14.038 14.038 0 0 1-2.882-1.702l.065-.065.047.058h-.072l-6.263 1.492z" fill="#263238"/>
            <path d="m176.843 12.606 1.801-.018a1.537 1.537 0 0 1 .45-1.113 1.528 1.528 0 0 1 1.11-.448 1.44 1.44 0 0 1 1.422.921 1.626 1.626 0 0 1-.111 1.467c-.303.51-.97.975-2.19.773l.04 4.085h1.8l-.032-2.416a3.503 3.503 0 0 0 2.474-3.443c-.025-2.647-2.398-3.25-3.414-3.229-.774.018-3.415.231-3.35 3.42zM179.376 19.116l1.811-.017.017 1.698-1.812.017z" fill="#FF6121"/>
        </g>
    </g>
</svg>
