<?xml version="1.0" encoding="UTF-8"?>
<svg width="20px" height="20px" viewBox="0 0 20 20" version="1.1" xmlns="http://www.w3.org/2000/svg" xmlns:xlink="http://www.w3.org/1999/xlink">
    <title>93056982-773D-4A7E-A962-B81231FF0937</title>
    <g id="Page-1" stroke="none" stroke-width="1" fill="none" fill-rule="evenodd">
        <g id="1--Currency" transform="translate(-1255.000000, -26.000000)" fill="#202020" fill-rule="nonzero">
            <g id="edit" transform="translate(1255.000000, 26.000000)">
                <path d="M17.5,6.91953125 L17.5,17.5 C17.5,18.880625 16.380625,20 15,20 L2.5,20 C1.119375,20 0,18.880625 0,17.5 L0,5 C0,3.619375 1.119375,2.5 2.5,2.5 L13.0798437,2.5 L10.5810547,5 L2.5,5 L2.5,17.5 L15,17.5 L15,9.42015625 L17.5,6.91953125 Z M15.5810547,1.76757812 L14.6972656,2.65136719 L17.3486328,5.30335938 L18.2324219,4.41957031 L15.5810547,1.76757812 Z M17.3486328,0 L16.4648438,0.883789062 L19.1162109,3.53578125 L20,2.65136719 L17.3486328,0 Z M5.859375,11.4917188 L8.51074219,14.1430859 L16.4648438,6.18773437 L13.8134766,3.53574219 L5.859375,11.4917188 Z M5,15 L7.5,15 L5,12.5 L5,15 Z" id="Shape"></path>
            </g>
        </g>
    </g>
</svg>