<?xml version="1.0" encoding="UTF-8"?>
<svg width="151px" height="46px" viewBox="0 0 151 46" version="1.1" xmlns="http://www.w3.org/2000/svg" xmlns:xlink="http://www.w3.org/1999/xlink">
    <title>Group 31@1x</title>
    <defs>
        <polygon id="path-1" points="0 0 37.7438355 0 37.7438355 39.9117869 0 39.9117869"></polygon>
        <polygon id="path-3" points="0 0 32.749995 0 32.749995 39.2543213 0 39.2543213"></polygon>
        <polygon id="path-5" points="0 0 35.7462392 0 35.7462392 39.9122688 0 39.9122688"></polygon>
        <polygon id="path-7" points="0 0 41.5028009 0 41.5028009 20.62316 0 20.62316"></polygon>
    </defs>
    <g id="Page-1" stroke="none" stroke-width="1" fill="none" fill-rule="evenodd">
        <g id="Home" transform="translate(-1380.000000, -24.000000)">
            <g id="Group-31" transform="translate(1380.000000, 24.000000)">
                <g id="Group-3" transform="translate(0.000000, 6.088093)">
                    <mask id="mask-2" fill="white">
                        <use xlink:href="#path-1"></use>
                    </mask>
                    <g id="Clip-2"></g>
                    <path d="M29.8322354,19.8504724 C29.8322354,17.0251897 29.3763636,14.5764106 28.465823,12.5053398 C27.5540795,10.434269 26.2532211,8.86801422 24.5620452,7.80597298 C22.8714707,6.74393174 20.930708,6.21260992 18.7403585,6.21260992 C17.1808922,6.21260992 15.739303,6.50718631 14.4167938,7.09513426 C13.0936832,7.68308222 11.9546052,8.53910071 11.0001613,9.66198493 C10.0445146,10.7854715 9.29154436,12.2204019 8.73944638,13.9661736 C8.1873484,15.7131501 7.91129941,17.6745831 7.91129941,19.8504724 C7.91129941,22.0450364 8.1873484,24.0281559 8.73944638,25.8004335 C9.29154436,27.5733134 10.0709768,29.0431833 11.0783451,30.2100432 C12.0863148,31.3781078 13.2428338,32.2503912 14.547902,32.8299055 C15.8535716,33.4094198 17.2861396,33.6985745 18.8456059,33.6985745 C20.8435029,33.6985745 22.6784168,33.1985778 24.3521517,32.1979819 C26.0252853,31.1973861 27.3574171,29.6534203 28.3473444,27.5648797 C29.3372717,25.4757368 29.8322354,22.9046693 29.8322354,19.8504724 M18.7403585,0 C22.7355511,0 26.1654147,0.812042876 29.0305506,2.43492382 C31.8956865,4.05840716 34.0637837,6.36682578 35.5354436,9.35897486 C37.0077049,12.3517264 37.7438355,15.8667636 37.7438355,19.9034841 C37.7438355,22.8871995 37.3402868,25.5986276 36.5349935,28.0383706 C35.7284975,30.4781137 34.5196555,32.5925577 32.9072648,34.3835098 C31.2954755,36.1738595 29.3156208,37.5425253 26.9670995,38.4901094 C24.6191795,39.438296 21.9290551,39.9117869 18.8979289,39.9117869 C15.8842438,39.9117869 13.1850981,39.4250431 10.8022961,38.450953 C8.41949418,37.476863 6.43061834,36.1033781 4.83627004,34.3304981 C3.24132032,32.5582205 2.03668824,30.4257044 1.22237379,27.9329496 C0.407457931,25.4407973 -0.00030070696,22.746839 -0.00030070696,19.8504724 C-0.00030070696,16.8848292 0.424898935,14.1637627 1.2746968,11.6890801 C2.12449467,9.2143975 3.35558897,7.10838719 4.96737827,5.37044676 C6.57976899,3.63310874 8.54218261,2.30359937 10.8552206,1.38191866 C13.1682585,0.46023795 15.7964373,0 18.7403585,0" id="Fill-1" fill="#EA6B38" mask="url(#mask-2)"></path>
                </g>
                <g id="Group-6" transform="translate(38.637356, 6.745679)">
                    <mask id="mask-4" fill="white">
                        <use xlink:href="#path-3"></use>
                    </mask>
                    <g id="Clip-5"></g>
                    <path d="M28.7548023,6.45056017 L20.2387812,6.45056017 L20.2387812,34.4889308 C20.2387812,36.1045829 19.8797371,37.3021654 19.1610475,38.0828832 C18.4423579,38.8636009 17.5137748,39.2545622 16.3752982,39.2545622 C15.2187792,39.2545622 14.2763636,38.8593841 13.5492542,38.0696302 C12.8221448,37.2798764 12.4588908,36.0865107 12.4588908,34.4889308 L12.4588908,6.45056017 L3.94286966,6.45056017 C2.61073783,6.45056017 1.62081051,6.1571886 0.972486309,5.56863824 C0.324162103,4.98069028 0,4.20418934 0,3.23853301 C0,2.23793715 0.337393209,1.44818329 1.01217963,0.869271417 C1.68636463,0.289757139 2.66366225,0 3.94286966,0 L28.7548023,0 C30.1037738,0 31.1075336,0.298793224 31.7642776,0.895174861 C32.421623,1.49276131 32.749995,2.27347909 32.749995,3.23853301 C32.749995,4.20418934 32.4168117,4.98069028 31.7510465,5.56863824 C31.0852813,6.1571886 30.0863328,6.45056017 28.7548023,6.45056017" id="Fill-4" fill="#EA6B38" mask="url(#mask-4)"></path>
                </g>
                <g id="Group-9" transform="translate(69.862827, 6.087731)">
                    <mask id="mask-6" fill="white">
                        <use xlink:href="#path-5"></use>
                    </mask>
                    <g id="Clip-8"></g>
                    <path d="M11.9591158,24.1685164 L23.4713811,24.1685164 L17.6629254,8.24030749 L11.9591158,24.1685164 Z M27.4142507,34.8841089 L25.5739241,30.0395623 L9.90889575,30.0395623 L8.06917057,34.9889275 C7.35048093,36.9196378 6.73703873,38.2232437 6.22944538,38.8985405 C5.72064921,39.5744397 4.88889376,39.9123893 3.73237479,39.9123893 C2.75086727,39.9123893 1.8836284,39.5527531 1.13005676,38.8328783 C0.376485114,38.1136059 0,37.2973461 0,36.3847015 C0,35.8581989 0.0872050184,35.3136242 0.262817883,34.7521821 C0.437829334,34.19074 0.727109429,33.4094198 1.13005676,32.4088239 L10.9866295,7.34573503 C11.2668884,6.62586023 11.6042816,5.76140806 11.9988091,4.75237852 C12.3927352,3.74274658 12.8131236,2.90540266 13.2605755,2.23793715 C13.7068247,1.57107405 14.2938046,1.03131855 15.0209141,0.618670648 C15.7480235,0.206625153 16.6459345,0 17.7152484,0 C18.801402,0 19.7083342,0.206625153 20.4354436,0.618670648 C21.162553,1.03131855 21.7501344,1.56264037 22.1963836,2.2114313 C22.6438355,2.86082464 23.0203206,3.55901284 23.3270417,4.30479109 C23.6337628,5.05056934 24.023479,6.04634595 24.4967918,7.29272333 L34.563258,32.1985843 C35.3517116,34.0937527 35.7462392,35.4720569 35.7462392,36.3316898 C35.7462392,37.2268647 35.3733625,38.0479436 34.6288121,38.7931195 C33.8842617,39.5388977 32.9863507,39.9123893 31.9350792,39.9123893 C31.321637,39.9123893 30.7960012,39.8027514 30.3575704,39.5828733 C29.9197411,39.3635977 29.5516758,39.0654069 29.2539759,38.6883009 C28.9556746,38.3105925 28.6363238,37.7316806 28.2947207,36.9503605 C27.9531176,36.1696427 27.6590262,35.4804906 27.4142507,34.8841089 L27.4142507,34.8841089 Z" id="Fill-7" fill="#EA6B38" mask="url(#mask-6)"></path>
                </g>
                <path d="M126.78912,22.4767805 L120.45984,22.6743696 C115.97209,22.818947 115.24498,16.2671826 120.904887,15.9726063 L126.538932,15.8003182 C125.69154,15.8226072 124.850763,16.178629 124.226496,16.8442873 C122.968939,18.1852424 123.034493,20.2870358 124.372639,21.5466661 C125.042013,22.1761801 125.94233,22.5075032 126.78912,22.4767805" id="Fill-10" fill="#7AD3C4"></path>
                <path d="M120.904766,15.9723653 C116.717723,16.4675428 115.975578,22.9355727 122.807039,22.6012376 L118.706598,22.72955 C116.335223,22.7018393 113.726891,21.7144964 111.863109,19.960291 C110.446178,18.6271672 109.513385,16.9789852 109.070745,15.226587 C109.070745,15.2181534 109.065933,15.2139365 109.070143,15.2097197 C108.786276,12.9838306 111.941293,10.9543259 115.166676,10.7772186 C120.270275,10.4910759 133.870649,10.1296325 140.415837,9.96276609 C140.598667,10.4049319 140.881331,10.8187846 141.250599,11.1663727 C142.658509,12.4916652 144.875321,12.4217861 146.20204,11.0073376 C147.524549,9.59710583 147.455387,7.37724085 146.047477,6.05194832 C144.639567,4.7272582 142.423356,4.79653486 141.100246,6.20676659 C140.724963,6.60736637 140.460943,7.07182116 140.311792,7.5621794 L115.310414,8.07723627 C115.310414,8.07723627 109.657725,8.47783605 109.0942,10.2826435 C109.489329,8.75373786 110.270565,7.30073533 111.426483,6.06941809 C113.275229,4.09774425 115.767489,2.99293221 118.266363,2.91040263 L143.79037,2.10860065 C145.59822,2.05679376 147.264738,2.73992182 148.485609,3.88870948 C149.71129,5.04171398 150.491324,6.66098048 150.552067,8.471812 C150.665133,12.1019087 147.819242,15.1356238 144.199332,15.2446592 L126.538812,15.8006797 L120.904766,15.9723653 Z" id="Fill-12" fill="#53A99D"></path>
                <path d="M140.311491,7.56223964 L137.15046,7.62729945 C138.529502,5.7381552 139.533262,3.83877004 139.897117,2.23034684 L143.790671,2.10866089 C145.598521,2.056854 147.265039,2.73998206 148.485909,3.88876972 C149.71099,5.04177422 150.491625,6.66104072 150.551766,8.47187224 C150.664832,12.1019689 147.819543,15.135684 144.199632,15.2441171 L128.401692,15.7423066 C130.673232,14.4633993 133.10956,12.3881117 135.160381,10.0977652 C137.149257,10.0441511 138.957709,10.0001755 140.416137,9.96282633" id="Fill-14" fill="#53A99D"></path>
                <path d="M139.71128,11.1766738 C130.877713,11.4019735 119.743135,11.7242606 115.233132,11.9712469 C112.87138,12.0995593 109.36634,13.7513557 109.563002,16.6736258 C109.354311,16.2067613 109.196139,15.7212224 109.071045,15.2266473 C109.070444,15.2182136 109.066234,15.2139968 109.070444,15.2097799 C108.785975,12.9838909 111.940993,10.9543861 115.166375,10.7772788 C120.269974,10.4911361 133.870348,10.1296927 140.416137,9.96282633" id="Fill-16" fill="#7AD3C4"></path>
                <path d="M133.263401,24.6645975 L139.592681,24.4670085 C144.080432,24.3224311 144.807542,30.8741954 139.147635,31.1693742 L133.51359,31.3410598 C134.360982,31.3187708 135.201758,30.9627491 135.826628,30.2970908 C137.083583,28.9561357 137.01863,26.8543422 135.679883,25.5947119 C135.010509,24.965198 134.110192,24.6338748 133.263401,24.6645975" id="Fill-18" fill="#F48862"></path>
                <g id="Group-22" transform="translate(109.497199, 24.412129)">
                    <mask id="mask-8" fill="white">
                        <use xlink:href="#path-7"></use>
                    </mask>
                    <g id="Clip-21"></g>
                    <path d="M29.6505563,6.75718467 C33.8376,6.26200719 34.5797448,-0.206625153 27.7482841,0.128312413 L31.8487242,0 C34.2200993,0.0277106619 36.8284314,1.01505359 38.6922132,2.76925898 C40.1091444,4.10238278 41.0419374,5.75056476 41.484578,7.50236051 C41.484578,7.51079419 41.4893893,7.51501103 41.4851794,7.51983028 C41.7696482,9.74571932 38.6140294,11.7752241 35.3886465,11.9523314 C30.2856494,12.2384741 16.6846736,12.5999175 10.1394859,12.7661815 C9.95665608,12.3240157 9.67399154,11.9107654 9.30472339,11.5631773 C7.8968134,10.2378848 5.68060311,10.3071614 4.35328259,11.72161 C3.03077338,13.1324441 3.09993598,15.3523091 4.50784596,16.6769992 C5.91575595,18.0022918 8.13196625,17.9330151 9.45507687,16.522181 C9.83035916,16.1221836 10.0943799,15.6577288 10.2435305,15.1667682 L35.2449086,14.6517113 C35.2449086,14.6517113 40.897598,14.2511115 41.4611229,12.446304 C41.0659939,13.9758121 40.2847572,15.4282122 39.1294411,16.6601319 C37.2800933,18.6318057 34.787834,19.7360153 32.2889592,19.8185449 L6.76495241,20.6203469 C4.95710216,20.6727562 3.29058419,19.9896281 2.06971393,18.8408405 C0.844032363,17.6872336 0.0639985083,16.0685695 0.00325570237,14.257738 C-0.109810115,10.6276413 2.73608056,7.59392618 6.35599094,7.48489075 L24.0165107,6.92887029 L29.6505563,6.75718467 Z" id="Fill-20" fill="#EA6B38" mask="url(#mask-8)"></path>
                </g>
                <path d="M119.74097,39.5791384 L122.902603,39.5140786 C121.52296,41.4038253 120.5192,43.302608 120.155946,44.9110312 L116.261791,45.0327172 C114.45394,45.0851265 112.787422,44.401396 111.566552,43.2526084 C110.341472,42.0996039 109.561438,40.4803373 109.500695,38.6695058 C109.38763,35.0394091 112.232919,32.005694 115.852829,31.897261 L131.65077,31.3990715 C129.37923,32.6785812 126.942902,34.7532664 124.89208,37.0436129 C122.903205,37.097227 121.094753,37.1412026 119.636926,37.1785517" id="Fill-23" fill="#F4784D"></path>
                <path d="M120.341241,35.9650055 C129.174809,35.7391033 140.309386,35.4168163 144.819389,35.1704324 C147.181743,35.0415175 150.686182,33.3903235 150.48952,30.4680535 C150.69821,30.9349179 150.856382,31.4204569 150.981476,31.9144296 C150.982078,31.9234657 150.986288,31.9270801 150.982078,31.9318993 C151.266547,34.1577884 148.111529,36.1872932 144.886146,36.3644004 C139.782548,36.6505431 126.182173,37.0119866 119.636986,37.1782505" id="Fill-25" fill="#F48862"></path>
                <path d="M138.543395,9.98125994 L134.975807,17.1950681 L135.43649,17.2444654 L140.908756,10.003549 C140.908756,10.003549 145.293664,10.2222222 146.372601,10.1246325 C146.779157,10.054151 148.431241,9.7860805 148.502809,8.94030291 C148.503411,8.93729088 148.503411,8.93427885 148.503411,8.93126682 L148.503411,8.92162833 C148.472738,8.07404352 146.835088,7.72645543 146.432141,7.63609458 C145.359219,7.48669797 140.968296,7.49573405 140.968296,7.49573405 L135.84906,0 L135.386573,0.0271082562 L138.60534,7.40416839" id="Fill-27" fill="#FFFFFF"></path>
                <path d="M111.513508,39.0552864 L111.039593,39.0733586 L111.063048,39.706487 L111.537564,39.6884148 L111.513508,39.0552864 Z M111.48885,38.1908343 L111.464793,37.5583083 L110.990879,37.5757781 L111.014334,38.2089064 L111.48885,38.1908343 Z M113.054931,36.9486737 L113.17341,40.0872074 L110.537413,40.1866043 L110.419536,37.0486731 L113.054931,36.9486737 Z M113.53065,40.6287701 L113.370674,36.38181 L115.55561,36.298678 C115.967579,36.2830154 116.997801,36.473978 117.570949,36.7908434 C117.634698,36.7540967 117.706868,36.7300005 117.786255,36.7269884 C118.044863,36.7173499 118.263176,36.9203607 118.2734,37.1793951 L118.274001,37.2101178 L119.758291,37.1540941 L119.784753,37.8528847 L123.518331,37.7125241 L123.555017,38.6884214 L119.821439,38.8293843 L119.849104,39.5504639 L118.353388,39.6070901 C118.3161,39.8203417 118.133872,39.9860032 117.908943,39.9944369 C117.840382,39.9968465 117.774828,39.984196 117.715288,39.9594974 C117.172813,40.2866037 116.103499,40.5317828 115.715587,40.5468429 L113.53065,40.6287701 Z" id="Fill-29" fill="#FFFFFF"></path>
            </g>
        </g>
    </g>
</svg>