<?xml version="1.0" encoding="UTF-8"?>
<svg width="66px" height="52px" viewBox="0 0 66 52" version="1.1" xmlns="http://www.w3.org/2000/svg" xmlns:xlink="http://www.w3.org/1999/xlink">
    <title>Group 4@1.5x</title>
    <g id="Page-1" stroke="none" stroke-width="1" fill="none" fill-rule="evenodd">
        <g id="Home" transform="translate(-1347.000000, -111.000000)">
            <g id="Group-4" transform="translate(1347.000035, 110.999882)">
                <path d="M19.6446511,10.542591 L19.6338548,10.542591 C19.7394182,10.4776761 19.8451815,10.4181542 19.9481458,10.3584325 L19.6446511,10.542591 Z" id="Fill-37" fill="#0BAC9C"></path>
                <path d="M21.9957755,9.20508514 C21.8522253,9.28358219 21.7112742,9.36207924 21.5703231,9.43777995 C21.2994171,9.58938112 21.0285111,9.74098229 20.7630032,9.89258346 C20.5596737,10.0062344 20.3565441,10.1226817 20.1560137,10.239129 C20.0522497,10.2992501 19.9444871,10.3627668 19.8375242,10.4254845 L19.644991,10.542531 L19.6379934,10.542531 C17.3997698,11.8657955 14.5865456,13.6868072 12.5852398,15.1145347 C12.5844401,16.2390598 12.5838403,17.513788 12.5838403,18.8706084 C15.9522719,16.2879956 20.7402111,13.2465846 24.8569831,11.0999999 C25.618319,10.701922 26.3906511,10.3122331 27.1735795,9.93313028 C27.6884009,9.68425669 28.2060214,9.44057629 28.7234419,9.20508514 C29.4198003,8.88290769 30.1189578,8.57171583 30.8153163,8.27650301 C31.0750262,8.16484945 31.3343362,8.05679117 31.5936463,7.94853316 L31.5920468,7.93994442 C34.4898417,6.73132957 37.371842,5.72265249 40.1578756,4.94127729 C40.4255827,4.86597605 40.6970885,4.7900756 40.9773913,4.71737095 C41.7181343,4.51563554 42.5218556,4.31769514 43.3497684,4.13253798 C43.6836526,4.05464015 44.0305322,3.97933891 44.3664157,3.9094306 L45.0543771,3.77181109 C45.3662689,3.71288837 45.6699636,3.65676198 45.9790563,3.60622826 L46.0876187,3.58865131 L46.1531959,3.58865131 C46.1913827,3.58225969 46.2297694,3.57586808 46.2675563,3.56927672 C46.34333,3.55849087 46.4193036,3.54490868 46.4924782,3.53412283 C46.6712162,3.50715819 46.8473551,3.47999382 47.023494,3.45302919 C47.2728076,3.41787529 47.5219212,3.38252166 47.7686356,3.3501641 C48.0083524,3.31780654 48.2454702,3.28824531 48.485187,3.26128067 C48.6221395,3.24590084 48.7604915,3.22872337 48.8956446,3.21474171 C49.0311976,3.19856293 49.1639516,3.18757734 49.2967055,3.17419489 C49.367281,3.16860222 49.4348576,3.1632093 49.5026341,3.15521977 C49.5542162,3.14982685 49.6055984,3.14703051 49.6543815,3.14163759 C49.7031645,3.13884126 49.7491486,3.13344833 49.7979317,3.13085173 C50.0906301,3.10648369 50.3779305,3.08750858 50.6596328,3.07113006 C50.8195773,3.06314054 50.9765228,3.05495128 51.1338683,3.04696176 C51.3571908,3.03737433 51.5733158,3.034578 51.7912402,3.02998403 C51.9757762,3.02698796 52.1603122,3.02259372 52.3422491,3.02259372 L52.3538451,3.02259372 C52.6171537,3.02239398 52.8796627,3.02319293 53.1333747,3.03058324 C53.415077,3.0387725 53.6915811,3.04955835 53.9624871,3.06573713 C54.1116353,3.07672273 54.2605837,3.08750858 54.4041339,3.09829443 C54.542286,3.10908029 54.6750399,3.12006588 54.8079938,3.13624466 C54.9351497,3.14982685 55.0571074,3.1632093 55.1790651,3.17679148 C55.4553692,3.20934878 55.7208771,3.2498956 55.9809869,3.29323876 C56.1193389,3.3176068 56.254692,3.34197484 56.3874459,3.36893947 C56.5365942,3.39890018 56.6801444,3.42846141 56.8182965,3.46101871 C56.9592476,3.49357601 57.0973997,3.5287299 57.2301536,3.56668013 C57.2589436,3.57427017 57.286734,3.58325839 57.3153241,3.59124791 L60.0133882,3.59124791 C61.227567,3.59124791 62.3725698,3.94278685 63.3484313,4.54879205 C63.3298378,4.50764602 63.3136434,4.4661005 63.2940502,4.42475473 C63.1938849,4.21902455 63.0799245,4.02148364 62.9553677,3.82913591 C62.925578,3.78039983 62.8929893,3.73166375 62.8606005,3.685724 C62.836209,3.6531667 62.8144166,3.6180128 62.7874259,3.58565524 C62.7684325,3.56108746 62.7520382,3.53691916 62.7332447,3.51514771 C62.6736654,3.43405407 62.611287,3.35555702 62.5463096,3.27705998 C62.4025594,3.10109077 62.2454139,2.93331082 62.0774722,2.77352039 C62.0666759,2.76273453 62.0558797,2.75454527 62.0448835,2.74375942 C61.9773069,2.67864482 61.9067314,2.61372996 61.8335568,2.55420802 C61.8119643,2.53263632 61.7901719,2.5136612 61.7659802,2.49468609 C61.6954047,2.43236782 61.6250291,2.37564222 61.5518545,2.32131347 C61.5410583,2.31072736 61.530262,2.3025381 61.5192658,2.29175225 C61.4326959,2.22663765 61.3431269,2.16172278 61.2511588,2.09680792 C61.123803,2.00752502 60.9936481,1.92363504 60.8580952,1.84234166 C60.7797224,1.79080925 60.7011496,1.7448695 60.6225769,1.70152635 C60.5979854,1.68534757 60.5763929,1.67176538 60.5520013,1.66097953 C60.4518361,1.60405419 60.3514709,1.54992518 60.2485066,1.4985925 C60.131947,1.43907057 60.0127884,1.3793489 59.8908307,1.32521989 C59.7906654,1.27648381 59.6877011,1.23334039 59.5819378,1.18720091 C59.3084327,1.07354996 59.0239314,0.965291949 58.7286338,0.867819787 C58.601278,0.824476633 58.4683241,0.783929812 58.3355702,0.745979585 C58.2436021,0.716218618 58.151434,0.689253983 58.0566669,0.664885943 C57.8615346,0.610756935 57.6610042,0.559224522 57.4576747,0.513284773 C57.3793019,0.49430966 57.3007291,0.478130879 57.2219565,0.459155766 C57.1433837,0.442777247 57.0622119,0.426598466 56.9808401,0.410419685 C56.888872,0.391444572 56.7939049,0.372469458 56.6991378,0.356290677 C56.5879764,0.334519231 56.4770149,0.315544118 56.3658534,0.299365337 C56.1761192,0.267007775 55.9837859,0.237246808 55.7860545,0.210082435 C55.4039871,0.15874976 55.0111233,0.1180032 54.6074634,0.0856456387 C54.3363574,0.0612775983 54.0628523,0.0448990793 53.7809501,0.0313168929 L53.7565585,0.0313168929 C52.8108865,-0.0146228553 51.8138324,-0.00922992838 50.7733933,0.0423024849 C50.5864581,0.0502920063 50.396724,0.0584812658 50.2071897,0.0720634522 C50.1935944,0.0720634522 50.1799991,0.0720634522 50.1664038,0.0746600467 C49.9632743,0.0856456387 49.7573457,0.10182442 49.5514172,0.1180032 C49.453851,0.12619246 49.3562849,0.134181981 49.2587187,0.145167573 C49.2209318,0.147764168 49.185744,0.1505605 49.1477572,0.155953427 C49.0881779,0.161346354 49.0285985,0.166739281 48.9662202,0.174928541 C48.8170719,0.185714395 48.6653245,0.201893176 48.5137771,0.218271694 C48.3484345,0.237246808 48.1804927,0.256022183 48.0097519,0.277793629 C47.8688008,0.291176078 47.7224516,0.310151191 47.5789014,0.329126304 C47.202232,0.375265791 46.8229636,0.429394798 46.438297,0.488916733 C46.2837506,0.513284773 46.1294042,0.537652814 45.9748578,0.562020854 C45.9260747,0.570210114 45.8800907,0.578199635 45.8339067,0.586388895 C45.7879226,0.594378416 45.7391396,0.602567676 45.6931555,0.610756935 C45.4708326,0.645910829 45.2487097,0.686457651 45.0237877,0.727004472 C45.0211886,0.727004472 45.0157905,0.727004472 45.0129914,0.729800804 C44.7446845,0.778536885 44.4765775,0.827272966 44.2056715,0.881401974 C43.9319664,0.935530981 43.6554623,0.992256584 43.3765591,1.05197826 C43.0458738,1.12228604 42.7099903,1.19539017 42.3739069,1.27388721 C42.1761755,1.31723037 41.978444,1.36596645 41.7779136,1.4119062 C41.5637879,1.46343861 41.3496622,1.51477129 41.1329373,1.57169663 C40.7942548,1.6555866 40.4555723,1.7448695 40.1142907,1.83694874 C39.9435499,1.88288849 39.7728091,1.92902797 39.5994693,1.97776405 C39.4287285,2.0237038 39.2553886,2.07243988 39.0846478,2.12377256 C38.8515287,2.19148375 38.6186095,2.25659835 38.3854904,2.32690614 C38.1145843,2.40540319 37.8436783,2.48649683 37.5727723,2.57038681 C37.3180606,2.64908359 37.063349,2.7273809 36.8086373,2.81147061 C36.5539257,2.89256426 36.2966149,2.97645423 36.0391043,3.06054395 C35.8305766,3.1280554 35.6192499,3.20115952 35.4077233,3.27426364 C35.1991956,3.34477117 34.9878689,3.41787529 34.7765422,3.49357601 C34.5842089,3.55849087 34.3944747,3.62620206 34.2021415,3.69650985 C34.0585912,3.74804226 33.912242,3.80217127 33.7684919,3.85350395 C33.5463689,3.93479733 33.3214469,4.0186873 33.099324,4.10257728 C32.378574,4.37322232 31.6524259,4.65744954 30.9234787,4.95525895 C30.3356826,5.19614302 29.7476866,5.44261976 29.1568915,5.69968261 L29.1568915,5.70247895 C28.0596721,6.17605783 26.9596537,6.68219401 25.8540372,7.2182909 C24.5318958,7.85984947 23.2449422,8.52297975 21.9957755,9.20508514" id="Fill-38" fill="#FF0000"></path>
                <path d="M60.8074127,10.3288113 L60.8074127,11.2881531 C61.0973122,11.256994 61.3880114,11.2282317 61.6821093,11.2086574 L61.7712784,11.2044629 C61.8202614,11.2030647 61.8682448,11.2022658 61.9154284,11.2022658 C63.8919428,11.2022658 64.7120583,12.4164733 64.9729678,12.9385885 C64.9913614,12.9753403 65.0065562,13.0130908 65.0233503,13.0502421 L65.0233503,9.94990828 C65.0233503,9.80649637 65.0179522,9.66568105 65.0043569,9.52766207 C64.7904311,6.96142779 62.6363783,4.94467284 60.0134881,4.94467284 C60.0134881,4.94467284 49.3679808,4.94207624 46.1976805,4.94207624 C45.8997838,4.99081232 45.6070854,5.04494133 45.319785,5.09907034 L44.64242,5.23449273 C44.3173327,5.30200418 43.9814493,5.3751083 43.6453658,5.45360535 C42.8570393,5.6297743 42.0739109,5.82192229 41.3179731,6.02745273 C41.0470671,6.09796026 40.7841583,6.17106438 40.5240485,6.2441685 C37.7740025,7.01555679 34.95598,8.00366086 32.1137659,9.18930584 L59.6666085,9.18930584 C60.2951904,9.18930584 60.8074127,9.70083495 60.8074127,10.3288113" id="Fill-39" fill="#0BAC9C"></path>
                <path d="M6.95989111,32.4846131 L6.95989111,32.3501894 C6.95729201,31.3171443 6.95729201,30.1768399 6.95449298,28.9722198 C6.95189388,27.1997445 6.94909485,25.2928454 6.94909485,23.3807532 C6.94649575,16.9176298 6.95189388,10.4441201 6.97608549,9.34416274 C7.02986683,6.86701162 9.03557111,4.97369477 11.6280718,4.94673014 C13.8381052,4.92256184 17.451052,4.92795476 19.8578171,4.93334769 C19.9062004,4.93594429 19.9573826,4.93594429 20.0031667,4.93334769 L20.0031667,4.93874062 L27.5221586,4.93874062 C26.7764172,5.27469999 26.0280768,5.6244413 25.2849346,5.98496845 C23.9551959,6.62772545 22.6386525,7.30823294 21.3678933,8.00451973 C21.3678933,8.00451973 21.0450053,8.17929051 20.9318446,8.24140904 C20.6545408,8.39480785 20.3826351,8.54800693 20.1243247,8.69601281 C19.9115985,8.81166113 19.7042704,8.93250265 19.4969423,9.0509473 C19.4189694,9.09668731 19.3407965,9.14242732 19.2654226,9.18816733 L12.7370871,9.18816733 C11.4907195,9.18816733 11.2350082,9.44363228 11.2322091,10.6728202 L11.2322091,14.0963301 C11.22961,16.3557667 11.22961,19.4539034 11.22961,22.6517094 L11.22961,30.4325046 C11.2350082,32.1158967 11.2350082,33.796892 11.2322091,35.4806837 C11.2322091,35.7659096 11.2322091,36.0183785 11.2350082,36.2418853 C11.0384763,36.2418853 10.8473426,36.239089 10.6562089,36.2336961 C9.26429177,36.1961453 8.0179241,36.0481394 6.95449298,35.8008638 C6.95449298,34.695114 6.95729201,33.5897637 6.95989111,32.4846131" id="Fill-40" fill="#0BAC9C"></path>
                <path d="M65.0230305,15.6832088 L65.0230305,39.7784071 C65.0230305,42.5593597 62.769812,44.8132037 59.9833786,44.8132037 C56.1203186,44.8132037 50.4184964,44.8158003 44.1862582,44.8158003 C44.5873191,46.0288094 45.0045744,47.2392219 45.397638,48.4574242 C45.5321913,48.8852631 45.7475166,49.0572375 46.2053578,49.049248 C47.5083059,49.0222834 48.8112539,49.0330692 50.114202,49.0438551 C50.9649069,49.0546409 51.1964266,49.2939271 51.2368125,50.1518019 C51.2394116,50.2217103 51.2422107,50.2944149 51.2422107,50.3643232 C51.255606,51.8515726 51.1156546,51.9941856 49.6403663,51.9941856 C45.0907445,51.9967822 40.5437217,51.9941856 35.9940999,51.9941856 C31.3773013,51.9941856 26.7575038,51.9967822 22.1379062,51.991589 C21.6748668,51.991589 21.03149,52.1018444 20.9265264,51.528796 C20.8025694,50.840299 20.8699461,50.0954758 20.991104,49.3987896 C21.0206938,49.2320083 21.5860976,49.0680234 21.9091856,49.0572375 C23.0693831,49.0168904 24.2323797,48.9953187 25.3899782,49.0572375 C26.1465157,49.094988 26.5259841,48.8796704 26.7415094,48.1132756 C27.0536011,46.999736 27.4440657,45.9105645 27.8155368,44.8158003 C21.3005967,44.8158003 15.4372305,44.8158003 11.757307,44.8132037 C8.92788846,44.8132037 6.9679683,42.8525752 6.96257018,40.0366683 C6.96257018,39.6519729 6.95997108,39.2674772 6.95997108,38.8827817 C8.24392571,39.1302571 9.67882798,39.2540947 11.2348882,39.2620842 C11.2456845,40.2759545 11.5363836,40.5475982 12.5864194,40.5475982 C21.5079248,40.5503946 30.4322291,40.5503946 39.3539344,40.5503946 L59.6576916,40.5503946 C60.2930712,40.5503946 60.8072928,40.0366683 60.8072928,39.4046972 L60.8072928,20.247223 C62.0670558,19.257521 63.257043,18.1547673 64.3230733,16.8720496 L64.3608601,16.8289062 L64.395848,16.7805696 C64.6649547,16.4228388 64.8748818,16.0543221 65.0230305,15.6832088" id="Fill-41" fill="#0BAC9C"></path>
                <path d="M61.844453,13.6396091 C56.6074696,13.9887512 52.0920359,16.4051819 47.631783,19.1182237 C47.6315831,19.1184234 47.6011937,19.1367993 47.5528104,19.1659611 C45.5211152,18.4005649 34.4667497,17.3020057 32.5800041,17.2189147 C31.3648256,17.1653849 30.158644,17.3034039 29.2223688,18.2501622 C28.8908838,18.5853226 28.7943173,19.0880632 28.9754545,19.5230927 C29.1184049,19.8666421 29.4169013,20.1227063 29.778176,20.2131876 C33.5528667,21.1577488 37.1328249,22.0533741 40.7083846,22.9480008 C40.8567331,22.9851521 40.9554989,23.1249687 40.9409039,23.2769693 C40.9307075,23.382431 40.8667297,23.4741108 40.7721625,23.5218482 C39.5917719,24.1176667 38.481757,24.9268055 37.2667784,25.1401257 C35.8316762,25.3921951 34.2946094,25.0648245 33.0554392,25.0015075 C33.0534399,25.0015075 33.0514406,25.0023065 33.0498412,25.0035049 C32.1505531,25.7425356 31.3758218,26.3791008 30.5375126,27.0677975 C30.533514,27.0711931 30.5379125,27.0809802 30.5379125,27.0809802 L37.8657706,29.8583376 C37.8657706,29.8583376 37.870569,29.859536 37.8727682,29.8585373 C40.9261091,28.4997195 43.9752514,27.142899 47.0511844,25.7740943 C47.0535836,25.7728958 47.0565826,25.7732953 47.0589817,25.7748932 C48.7220049,26.8954236 50.3806295,28.0129579 52.1956,29.2359539 C52.1987989,29.238151 52.2031973,29.2377515 52.2059964,29.2347555 C52.7640028,28.6441301 53.3771901,27.9953809 54.0361615,27.2980955 C54.0383608,27.2956986 54.0389606,27.2923031 54.037561,27.2891073 C53.3188104,25.6937996 52.3875334,24.3150079 52.5778674,22.6659707 C52.5782672,22.6633741 52.5796667,22.6609772 52.581866,22.6597788 C56.245995,20.4982138 59.7955637,18.5102211 62.447044,15.3174086 C63.095619,14.4557387 63.0318411,13.603856 61.844453,13.6396091" id="Fill-42" fill="#FF0000"></path>
                <path d="M34.6616021,33.4985234 L34.6346114,33.5658351 L32.7824539,38.1134707 C32.5509342,38.6785296 31.9991256,39.0442499 31.3907367,39.0442499 C30.5212383,39.0442499 29.8776615,38.3315846 29.8776615,37.5354288 C29.8776615,37.3444792 29.9128493,37.1455402 29.9962204,36.9545906 L30.6907795,35.1605436 C27.1210177,36.5081761 23.6510214,37.5300359 20.4149439,38.21314 C19.8577372,38.3315846 19.3085277,38.4390437 18.7675153,38.538713 C18.5413938,38.57906 18.3206703,38.6194071 18.0971479,38.6541615 C16.9045615,38.8560967 15.7549603,39.0092958 14.643146,39.1087653 C14.5085927,39.1249441 14.3712403,39.13573 14.2392861,39.1465158 C13.9969701,39.1652912 13.7574532,39.18147 13.5205354,39.1948524 C13.3535933,39.2056383 13.1840521,39.2164241 13.01711,39.221817 C12.4061219,39.2513783 11.8137274,39.2647607 11.2349282,39.2619644 C9.67886796,39.2537751 8.24396569,39.130337 6.96001107,38.8828616 C6.48617543,38.7913816 6.0339323,38.6865191 5.60308175,38.5626815 C5.42014521,38.5091517 5.23700873,38.4550227 5.06206941,38.3961 C2.88142582,37.6698525 1.30117397,36.489201 0.49885228,34.8379666 C-1.11098931,31.5299053 1.33076371,26.1399744 5.59228549,21.317699 L5.59228549,23.3805934 C5.59228549,24.3541166 5.59228549,25.3224466 5.59508452,26.2745978 C5.28539195,26.6752723 4.80355908,27.2804786 4.73078433,27.3961269 C3.11834364,29.9375937 2.54494254,32.1323152 3.22070814,33.5198953 C3.53819801,34.1736379 4.16558038,34.7223183 5.05667129,35.1499574 C5.22621248,35.2358448 5.40934895,35.3139424 5.59768362,35.3864473 C6.00694166,35.545239 6.46198382,35.682459 6.95461294,35.800704 C8.01784413,36.0481794 9.26441173,36.1961853 10.656129,36.233736 C10.8472627,36.239129 11.0383964,36.2417255 11.2349282,36.2417255 C11.5472199,36.2445219 11.8649097,36.239129 12.1905967,36.2311394 C12.3225509,36.2283431 12.4571043,36.2229502 12.5890585,36.2203536 C12.7667968,36.2121643 12.9471343,36.2041748 13.1302708,36.1933889 C13.4129727,36.1772102 13.7008728,36.1584348 13.9917719,36.1342665 C14.6565413,36.080537 15.335106,36.0052357 16.0214679,35.9137557 C16.514097,35.8492403 17.0175224,35.7765357 17.5237468,35.6958415 C19.281737,35.4054224 21.109503,35.0019516 22.986052,34.4964146 C24.8596021,33.9906779 26.7845344,33.3802784 28.7308593,32.6728063 L28.7282602,32.6674134 L27.0080569,32.0542176 C26.1599511,31.7504161 25.7642883,30.7820861 26.157352,29.9725478 C26.4184614,29.4400462 26.9540756,29.1226625 27.5194795,29.1226625 C27.6890207,29.1226625 27.8613609,29.1522237 28.0309021,29.2115459 L32.9735876,30.9866178 L33.6601495,31.2366898 C33.9724411,31.3469452 34.2309515,31.5432877 34.4220852,31.7825739 C34.7935563,32.255953 34.9093161,32.9039032 34.6616021,33.4985234" id="Fill-43" fill="#FF0000"></path>
                <path d="M19.6446511,10.542591 L19.6338548,10.542591 C19.7394182,10.4776761 19.8451815,10.4181542 19.9481458,10.3584325 L19.6446511,10.542591 Z" id="Fill-44" fill="#0BAC9C"></path>
                <path d="M21.9957755,9.20508514 C21.8522253,9.28358219 21.7112742,9.36207924 21.5703231,9.43777995 C21.2994171,9.58938112 21.0285111,9.74098229 20.7630032,9.89258346 C20.5596737,10.0062344 20.3565441,10.1226817 20.1560137,10.239129 C20.0522497,10.2992501 19.9444871,10.3627668 19.8375242,10.4254845 L19.644991,10.542531 L19.6379934,10.542531 C17.3997698,11.8657955 14.5865456,13.6868072 12.5852398,15.1145347 C12.5844401,16.2390598 12.5838403,17.513788 12.5838403,18.8706084 C15.9522719,16.2879956 20.7402111,13.2465846 24.8569831,11.0999999 C25.618319,10.701922 26.3906511,10.3122331 27.1735795,9.93313028 C27.6884009,9.68425669 28.2060214,9.44057629 28.7234419,9.20508514 C29.4198003,8.88290769 30.1189578,8.57171583 30.8153163,8.27650301 C31.0750262,8.16484945 31.3343362,8.05679117 31.5936463,7.94853316 L31.5920468,7.93994442 C34.4898417,6.73132957 37.371842,5.72265249 40.1578756,4.94127729 C40.4255827,4.86597605 40.6970885,4.7900756 40.9773913,4.71737095 C41.7181343,4.51563554 42.5218556,4.31769514 43.3497684,4.13253798 C43.6836526,4.05464015 44.0305322,3.97933891 44.3664157,3.9094306 L45.0543771,3.77181109 C45.3662689,3.71288837 45.6699636,3.65676198 45.9790563,3.60622826 L46.0876187,3.58865131 L46.1531959,3.58865131 C46.1913827,3.58225969 46.2297694,3.57586808 46.2675563,3.56927672 C46.34333,3.55849087 46.4193036,3.54490868 46.4924782,3.53412283 C46.6712162,3.50715819 46.8473551,3.47999382 47.023494,3.45302919 C47.2728076,3.41787529 47.5219212,3.38252166 47.7686356,3.3501641 C48.0083524,3.31780654 48.2454702,3.28824531 48.485187,3.26128067 C48.6221395,3.24590084 48.7604915,3.22872337 48.8956446,3.21474171 C49.0311976,3.19856293 49.1639516,3.18757734 49.2967055,3.17419489 C49.367281,3.16860222 49.4348576,3.1632093 49.5026341,3.15521977 C49.5542162,3.14982685 49.6055984,3.14703051 49.6543815,3.14163759 C49.7031645,3.13884126 49.7491486,3.13344833 49.7979317,3.13085173 C50.0906301,3.10648369 50.3779305,3.08750858 50.6596328,3.07113006 C50.8195773,3.06314054 50.9765228,3.05495128 51.1338683,3.04696176 C51.3571908,3.03737433 51.5733158,3.034578 51.7912402,3.02998403 C51.9757762,3.02698796 52.1603122,3.02259372 52.3422491,3.02259372 L52.3538451,3.02259372 C52.6171537,3.02239398 52.8796627,3.02319293 53.1333747,3.03058324 C53.415077,3.0387725 53.6915811,3.04955835 53.9624871,3.06573713 C54.1116353,3.07672273 54.2605837,3.08750858 54.4041339,3.09829443 C54.542286,3.10908029 54.6750399,3.12006588 54.8079938,3.13624466 C54.9351497,3.14982685 55.0571074,3.1632093 55.1790651,3.17679148 C55.4553692,3.20934878 55.7208771,3.2498956 55.9809869,3.29323876 C56.1193389,3.3176068 56.254692,3.34197484 56.3874459,3.36893947 C56.5365942,3.39890018 56.6801444,3.42846141 56.8182965,3.46101871 C56.9592476,3.49357601 57.0973997,3.5287299 57.2301536,3.56668013 C57.2589436,3.57427017 57.286734,3.58325839 57.3153241,3.59124791 L60.0133882,3.59124791 C61.227567,3.59124791 62.3725698,3.94278685 63.3484313,4.54879205 C63.3298378,4.50764602 63.3136434,4.4661005 63.2940502,4.42475473 C63.1938849,4.21902455 63.0799245,4.02148364 62.9553677,3.82913591 C62.925578,3.78039983 62.8929893,3.73166375 62.8606005,3.685724 C62.836209,3.6531667 62.8144166,3.6180128 62.7874259,3.58565524 C62.7684325,3.56108746 62.7520382,3.53691916 62.7332447,3.51514771 C62.6736654,3.43405407 62.611287,3.35555702 62.5463096,3.27705998 C62.4025594,3.10109077 62.2454139,2.93331082 62.0774722,2.77352039 C62.0666759,2.76273453 62.0558797,2.75454527 62.0448835,2.74375942 C61.9773069,2.67864482 61.9067314,2.61372996 61.8335568,2.55420802 C61.8119643,2.53263632 61.7901719,2.5136612 61.7659802,2.49468609 C61.6954047,2.43236782 61.6250291,2.37564222 61.5518545,2.32131347 C61.5410583,2.31072736 61.530262,2.3025381 61.5192658,2.29175225 C61.4326959,2.22663765 61.3431269,2.16172278 61.2511588,2.09680792 C61.123803,2.00752502 60.9936481,1.92363504 60.8580952,1.84234166 C60.7797224,1.79080925 60.7011496,1.7448695 60.6225769,1.70152635 C60.5979854,1.68534757 60.5763929,1.67176538 60.5520013,1.66097953 C60.4518361,1.60405419 60.3514709,1.54992518 60.2485066,1.4985925 C60.131947,1.43907057 60.0127884,1.3793489 59.8908307,1.32521989 C59.7906654,1.27648381 59.6877011,1.23334039 59.5819378,1.18720091 C59.3084327,1.07354996 59.0239314,0.965291949 58.7286338,0.867819787 C58.601278,0.824476633 58.4683241,0.783929812 58.3355702,0.745979585 C58.2436021,0.716218618 58.151434,0.689253983 58.0566669,0.664885943 C57.8615346,0.610756935 57.6610042,0.559224522 57.4576747,0.513284773 C57.3793019,0.49430966 57.3007291,0.478130879 57.2219565,0.459155766 C57.1433837,0.442777247 57.0622119,0.426598466 56.9808401,0.410419685 C56.888872,0.391444572 56.7939049,0.372469458 56.6991378,0.356290677 C56.5879764,0.334519231 56.4770149,0.315544118 56.3658534,0.299365337 C56.1761192,0.267007775 55.9837859,0.237246808 55.7860545,0.210082435 C55.4039871,0.15874976 55.0111233,0.1180032 54.6074634,0.0856456387 C54.3363574,0.0612775983 54.0628523,0.0448990793 53.7809501,0.0313168929 L53.7565585,0.0313168929 C52.8108865,-0.0146228553 51.8138324,-0.00922992838 50.7733933,0.0423024849 C50.5864581,0.0502920063 50.396724,0.0584812658 50.2071897,0.0720634522 C50.1935944,0.0720634522 50.1799991,0.0720634522 50.1664038,0.0746600467 C49.9632743,0.0856456387 49.7573457,0.10182442 49.5514172,0.1180032 C49.453851,0.12619246 49.3562849,0.134181981 49.2587187,0.145167573 C49.2209318,0.147764168 49.185744,0.1505605 49.1477572,0.155953427 C49.0881779,0.161346354 49.0285985,0.166739281 48.9662202,0.174928541 C48.8170719,0.185714395 48.6653245,0.201893176 48.5137771,0.218271694 C48.3484345,0.237246808 48.1804927,0.256022183 48.0097519,0.277793629 C47.8688008,0.291176078 47.7224516,0.310151191 47.5789014,0.329126304 C47.202232,0.375265791 46.8229636,0.429394798 46.438297,0.488916733 C46.2837506,0.513284773 46.1294042,0.537652814 45.9748578,0.562020854 C45.9260747,0.570210114 45.8800907,0.578199635 45.8339067,0.586388895 C45.7879226,0.594378416 45.7391396,0.602567676 45.6931555,0.610756935 C45.4708326,0.645910829 45.2487097,0.686457651 45.0237877,0.727004472 C45.0211886,0.727004472 45.0157905,0.727004472 45.0129914,0.729800804 C44.7446845,0.778536885 44.4765775,0.827272966 44.2056715,0.881401974 C43.9319664,0.935530981 43.6554623,0.992256584 43.3765591,1.05197826 C43.0458738,1.12228604 42.7099903,1.19539017 42.3739069,1.27388721 C42.1761755,1.31723037 41.978444,1.36596645 41.7779136,1.4119062 C41.5637879,1.46343861 41.3496622,1.51477129 41.1329373,1.57169663 C40.7942548,1.6555866 40.4555723,1.7448695 40.1142907,1.83694874 C39.9435499,1.88288849 39.7728091,1.92902797 39.5994693,1.97776405 C39.4287285,2.0237038 39.2553886,2.07243988 39.0846478,2.12377256 C38.8515287,2.19148375 38.6186095,2.25659835 38.3854904,2.32690614 C38.1145843,2.40540319 37.8436783,2.48649683 37.5727723,2.57038681 C37.3180606,2.64908359 37.063349,2.7273809 36.8086373,2.81147061 C36.5539257,2.89256426 36.2966149,2.97645423 36.0391043,3.06054395 C35.8305766,3.1280554 35.6192499,3.20115952 35.4077233,3.27426364 C35.1991956,3.34477117 34.9878689,3.41787529 34.7765422,3.49357601 C34.5842089,3.55849087 34.3944747,3.62620206 34.2021415,3.69650985 C34.0585912,3.74804226 33.912242,3.80217127 33.7684919,3.85350395 C33.5463689,3.93479733 33.3214469,4.0186873 33.099324,4.10257728 C32.378574,4.37322232 31.6524259,4.65744954 30.9234787,4.95525895 C30.3356826,5.19614302 29.7476866,5.44261976 29.1568915,5.69968261 L29.1568915,5.70247895 C28.0596721,6.17605783 26.9596537,6.68219401 25.8540372,7.2182909 C24.5318958,7.85984947 23.2449422,8.52297975 21.9957755,9.20508514" id="Fill-45" fill="#FF6121"></path>
                <path d="M60.8074127,10.3288113 L60.8074127,11.2881531 C61.0973122,11.256994 61.3880114,11.2282317 61.6821093,11.2086574 L61.7712784,11.2044629 C61.8202614,11.2030647 61.8682448,11.2022658 61.9154284,11.2022658 C63.8919428,11.2022658 64.7120583,12.4164733 64.9729678,12.9385885 C64.9913614,12.9753403 65.0065562,13.0130908 65.0233503,13.0502421 L65.0233503,9.94990828 C65.0233503,9.80649637 65.0179522,9.66568105 65.0043569,9.52766207 C64.7904311,6.96142779 62.6363783,4.94467284 60.0134881,4.94467284 C60.0134881,4.94467284 49.3679808,4.94207624 46.1976805,4.94207624 C45.8997838,4.99081232 45.6070854,5.04494133 45.319785,5.09907034 L44.64242,5.23449273 C44.3173327,5.30200418 43.9814493,5.3751083 43.6453658,5.45360535 C42.8570393,5.6297743 42.0739109,5.82192229 41.3179731,6.02745273 C41.0470671,6.09796026 40.7841583,6.17106438 40.5240485,6.2441685 C37.7740025,7.01555679 34.95598,8.00366086 32.1137659,9.18930584 L59.6666085,9.18930584 C60.2951904,9.18930584 60.8074127,9.70083495 60.8074127,10.3288113" id="Fill-46" fill="#0CAC9D"></path>
                <path d="M6.95989111,32.4846131 L6.95989111,32.3501894 C6.95729201,31.3171443 6.95729201,30.1768399 6.95449298,28.9722198 C6.95189388,27.1997445 6.94909485,25.2928454 6.94909485,23.3807532 C6.94649575,16.9176298 6.95189388,10.4441201 6.97608549,9.34416274 C7.02986683,6.86701162 9.03557111,4.97369477 11.6280718,4.94673014 C13.8381052,4.92256184 17.451052,4.92795476 19.8578171,4.93334769 C19.9062004,4.93594429 19.9573826,4.93594429 20.0031667,4.93334769 L20.0031667,4.93874062 L27.5221586,4.93874062 C26.7764172,5.27469999 26.0280768,5.6244413 25.2849346,5.98496845 C23.9551959,6.62772545 22.6386525,7.30823294 21.3678933,8.00451973 C21.3678933,8.00451973 21.0450053,8.17929051 20.9318446,8.24140904 C20.6545408,8.39480785 20.3826351,8.54800693 20.1243247,8.69601281 C19.9115985,8.81166113 19.7042704,8.93250265 19.4969423,9.0509473 C19.4189694,9.09668731 19.3407965,9.14242732 19.2654226,9.18816733 L12.7370871,9.18816733 C11.4907195,9.18816733 11.2350082,9.44363228 11.2322091,10.6728202 L11.2322091,14.0963301 C11.22961,16.3557667 11.22961,19.4539034 11.22961,22.6517094 L11.22961,30.4325046 C11.2350082,32.1158967 11.2350082,33.796892 11.2322091,35.4806837 C11.2322091,35.7659096 11.2322091,36.0183785 11.2350082,36.2418853 C11.0384763,36.2418853 10.8473426,36.239089 10.6562089,36.2336961 C9.26429177,36.1961453 8.0179241,36.0481394 6.95449298,35.8008638 C6.95449298,34.695114 6.95729201,33.5897637 6.95989111,32.4846131" id="Fill-47" fill="#0CAC9D"></path>
                <path d="M65.0230305,15.6832088 L65.0230305,39.7784071 C65.0230305,42.5593597 62.769812,44.8132037 59.9833786,44.8132037 C56.1203186,44.8132037 50.4184964,44.8158003 44.1862582,44.8158003 C44.5873191,46.0288094 45.0045744,47.2392219 45.397638,48.4574242 C45.5321913,48.8852631 45.7475166,49.0572375 46.2053578,49.049248 C47.5083059,49.0222834 48.8112539,49.0330692 50.114202,49.0438551 C50.9649069,49.0546409 51.1964266,49.2939271 51.2368125,50.1518019 C51.2394116,50.2217103 51.2422107,50.2944149 51.2422107,50.3643232 C51.255606,51.8515726 51.1156546,51.9941856 49.6403663,51.9941856 C45.0907445,51.9967822 40.5437217,51.9941856 35.9940999,51.9941856 C31.3773013,51.9941856 26.7575038,51.9967822 22.1379062,51.991589 C21.6748668,51.991589 21.03149,52.1018444 20.9265264,51.528796 C20.8025694,50.840299 20.8699461,50.0954758 20.991104,49.3987896 C21.0206938,49.2320083 21.5860976,49.0680234 21.9091856,49.0572375 C23.0693831,49.0168904 24.2323797,48.9953187 25.3899782,49.0572375 C26.1465157,49.094988 26.5259841,48.8796704 26.7415094,48.1132756 C27.0536011,46.999736 27.4440657,45.9105645 27.8155368,44.8158003 C21.3005967,44.8158003 15.4372305,44.8158003 11.757307,44.8132037 C8.92788846,44.8132037 6.9679683,42.8525752 6.96257018,40.0366683 C6.96257018,39.6519729 6.95997108,39.2674772 6.95997108,38.8827817 C8.24392571,39.1302571 9.67882798,39.2540947 11.2348882,39.2620842 C11.2456845,40.2759545 11.5363836,40.5475982 12.5864194,40.5475982 C21.5079248,40.5503946 30.4322291,40.5503946 39.3539344,40.5503946 L59.6576916,40.5503946 C60.2930712,40.5503946 60.8072928,40.0366683 60.8072928,39.4046972 L60.8072928,20.247223 C62.0670558,19.257521 63.257043,18.1547673 64.3230733,16.8720496 L64.3608601,16.8289062 L64.395848,16.7805696 C64.6649547,16.4228388 64.8748818,16.0543221 65.0230305,15.6832088" id="Fill-48" fill="#0CAC9D"></path>
                <path d="M61.844453,13.6396091 C56.6074696,13.9887512 52.0920359,16.4051819 47.631783,19.1182237 C47.6315831,19.1184234 47.6011937,19.1367993 47.5528104,19.1659611 C45.5211152,18.4005649 34.4667497,17.3020057 32.5800041,17.2189147 C31.3648256,17.1653849 30.158644,17.3034039 29.2223688,18.2501622 C28.8908838,18.5853226 28.7943173,19.0880632 28.9754545,19.5230927 C29.1184049,19.8666421 29.4169013,20.1227063 29.778176,20.2131876 C33.5528667,21.1577488 37.1328249,22.0533741 40.7083846,22.9480008 C40.8567331,22.9851521 40.9554989,23.1249687 40.9409039,23.2769693 C40.9307075,23.382431 40.8667297,23.4741108 40.7721625,23.5218482 C39.5917719,24.1176667 38.481757,24.9268055 37.2667784,25.1401257 C35.8316762,25.3921951 34.2946094,25.0648245 33.0554392,25.0015075 C33.0534399,25.0015075 33.0514406,25.0023065 33.0498412,25.0035049 C32.1505531,25.7425356 31.3758218,26.3791008 30.5375126,27.0677975 C30.533514,27.0711931 30.5379125,27.0809802 30.5379125,27.0809802 L37.8657706,29.8583376 C37.8657706,29.8583376 37.870569,29.859536 37.8727682,29.8585373 C40.9261091,28.4997195 43.9752514,27.142899 47.0511844,25.7740943 C47.0535836,25.7728958 47.0565826,25.7732953 47.0589817,25.7748932 C48.7220049,26.8954236 50.3806295,28.0129579 52.1956,29.2359539 C52.1987989,29.238151 52.2031973,29.2377515 52.2059964,29.2347555 C52.7640028,28.6441301 53.3771901,27.9953809 54.0361615,27.2980955 C54.0383608,27.2956986 54.0389606,27.2923031 54.037561,27.2891073 C53.3188104,25.6937996 52.3875334,24.3150079 52.5778674,22.6659707 C52.5782672,22.6633741 52.5796667,22.6609772 52.581866,22.6597788 C56.245995,20.4982138 59.7955637,18.5102211 62.447044,15.3174086 C63.095619,14.4557387 63.0318411,13.603856 61.844453,13.6396091" id="Fill-49" fill="#FF6121"></path>
                <path d="M34.6616021,33.4985234 L34.6346114,33.5658351 L32.7824539,38.1134707 C32.5509342,38.6785296 31.9991256,39.0442499 31.3907367,39.0442499 C30.5212383,39.0442499 29.8776615,38.3315846 29.8776615,37.5354288 C29.8776615,37.3444792 29.9128493,37.1455402 29.9962204,36.9545906 L30.6907795,35.1605436 C27.1210177,36.5081761 23.6510214,37.5300359 20.4149439,38.21314 C19.8577372,38.3315846 19.3085277,38.4390437 18.7675153,38.538713 C18.5413938,38.57906 18.3206703,38.6194071 18.0971479,38.6541615 C16.9045615,38.8560967 15.7549603,39.0092958 14.643146,39.1087653 C14.5085927,39.1249441 14.3712403,39.13573 14.2392861,39.1465158 C13.9969701,39.1652912 13.7574532,39.18147 13.5205354,39.1948524 C13.3535933,39.2056383 13.1840521,39.2164241 13.01711,39.221817 C12.4061219,39.2513783 11.8137274,39.2647607 11.2349282,39.2619644 C9.67886796,39.2537751 8.24396569,39.130337 6.96001107,38.8828616 C6.48617543,38.7913816 6.0339323,38.6865191 5.60308175,38.5626815 C5.42014521,38.5091517 5.23700873,38.4550227 5.06206941,38.3961 C2.88142582,37.6698525 1.30117397,36.489201 0.49885228,34.8379666 C-1.11098931,31.5299053 1.33076371,26.1399744 5.59228549,21.317699 L5.59228549,23.3805934 C5.59228549,24.3541166 5.59228549,25.3224466 5.59508452,26.2745978 C5.28539195,26.6752723 4.80355908,27.2804786 4.73078433,27.3961269 C3.11834364,29.9375937 2.54494254,32.1323152 3.22070814,33.5198953 C3.53819801,34.1736379 4.16558038,34.7223183 5.05667129,35.1499574 C5.22621248,35.2358448 5.40934895,35.3139424 5.59768362,35.3864473 C6.00694166,35.545239 6.46198382,35.682459 6.95461294,35.800704 C8.01784413,36.0481794 9.26441173,36.1961853 10.656129,36.233736 C10.8472627,36.239129 11.0383964,36.2417255 11.2349282,36.2417255 C11.5472199,36.2445219 11.8649097,36.239129 12.1905967,36.2311394 C12.3225509,36.2283431 12.4571043,36.2229502 12.5890585,36.2203536 C12.7667968,36.2121643 12.9471343,36.2041748 13.1302708,36.1933889 C13.4129727,36.1772102 13.7008728,36.1584348 13.9917719,36.1342665 C14.6565413,36.080537 15.335106,36.0052357 16.0214679,35.9137557 C16.514097,35.8492403 17.0175224,35.7765357 17.5237468,35.6958415 C19.281737,35.4054224 21.109503,35.0019516 22.986052,34.4964146 C24.8596021,33.9906779 26.7845344,33.3802784 28.7308593,32.6728063 L28.7282602,32.6674134 L27.0080569,32.0542176 C26.1599511,31.7504161 25.7642883,30.7820861 26.157352,29.9725478 C26.4184614,29.4400462 26.9540756,29.1226625 27.5194795,29.1226625 C27.6890207,29.1226625 27.8613609,29.1522237 28.0309021,29.2115459 L32.9735876,30.9866178 L33.6601495,31.2366898 C33.9724411,31.3469452 34.2309515,31.5432877 34.4220852,31.7825739 C34.7935563,32.255953 34.9093161,32.9039032 34.6616021,33.4985234" id="Fill-50" fill="#FF6121"></path>
            </g>
        </g>
    </g>
</svg>