<svg width="490" height="442" viewBox="0 0 490 442" xmlns="http://www.w3.org/2000/svg">
    <g fill="none" fill-rule="evenodd">
        <ellipse cx="245" cy="14.308" rx="245" ry="14.308" transform="translate(0 413.364)" fill="#FFFCFA"/>
        <path d="m303.353 136.027.392-9.77s2.616-2.592 2.616-4.273c0-1.68-3.008-11.3-4.322-11.754-1.314-.455-8.378 2.894-8.504 5.055-.126 2.162 3.664 10.112 4.322 10.693l-1.05 10.378 6.546-.33z" fill="#FFBF9D" fill-rule="nonzero"/>
        <path d="m409.786 122.54-3.36-9.669a27.195 27.195 0 0 1-3.968-3.463c-.923-1.264 4.22-10.377 4.978-10.377a26.142 26.142 0 0 1 6.925 3.868c.758.91-3.26 8.342-3.26 8.342l4.99 8.342-6.305 2.957z" fill="#E4897B" fill-rule="nonzero"/>
        <path d="M390.239 120.91c4.637.455 26.914 24.28 26.914 24.28l-9.616-26.72 7.582-2.59s18.777 29.917 14.658 40.901c-4.12 10.984-40.903-14.194-40.903-14.194l1.365-21.677z" stroke="#000" stroke-width=".921" fill="#FFF" fill-rule="nonzero"/>
        <path fill="#FFBF9D" fill-rule="nonzero" d="m318.946 405.237-5.193-6.788 8.794-8.493 7.999-7.71 7.518 7.027-10.108 8.456z"/>
        <path d="M313.45 396.364c.77-.544 7.202 9.1 7.202 9.1s-1.428 10.112 1.478 16.546c2.907 6.433-2.742 5.94-7.442-.203l-11.6-15.167c-3.336-4.411 2.464-4.55 10.361-10.276z" fill="#000" fill-rule="nonzero"/>
        <path d="M320.55 407.335s4.31-1.39 4.815.935c.569 2.68-4.814-.935-4.814-.935s4.347 3.236 3.197 4.702c-1.744 2.2-3.197-4.702-3.197-4.702z" stroke="#000" stroke-width=".623" stroke-linecap="round" stroke-linejoin="round"/>
        <path fill="#EFA37B" fill-rule="nonzero" d="m327.956 397.729-5.409-7.773 7.999-7.71 7.518 7.027z"/>
        <path fill="#FFBF9D" fill-rule="nonzero" d="M370.918 415.993h-8.555l-1.402-11.906-1.264-10.921 10.147-1.656.569 12.968z"/>
        <path d="M360.531 415.45c0-.948 11.6-.203 11.6-.203s7.127 7.243 14.039 8.848c6.912 1.605 3.058 5.802-4.7 5.802h-19.107c-5.496 0-2.06-4.677-1.832-14.447z" fill="#000" fill-rule="nonzero"/>
        <path d="M373.559 416.46s1.516-4.271 3.664-3.26c2.528 1.175-3.664 3.26-3.664 3.26s5.219-1.49 5.674.304c.695 2.73-5.674-.303-5.674-.303z" stroke="#000" stroke-width=".623" stroke-linecap="round" stroke-linejoin="round"/>
        <path fill="#EFA37B" fill-rule="nonzero" d="m370.413 404.744-9.452-.417-1.264-11.047 10.147-1.707z"/>
        <path d="M392.248 210.297s25.272 59.722 29.227 85.949c3.955 26.227-85.748 96.452-85.748 96.452l-9.174-9.757s66.743-68.633 66.743-80.439c0-11.805-26.03-65.725-26.03-65.725s-2.514-21.753 24.982-26.48z" fill="#407BFF" fill-rule="nonzero"/>
        <path d="M373.963 360c-9.16 8.443-18.031 16.065-24.918 21.828-7.999 6.674-13.318 10.845-13.318 10.845l-9.174-9.758s9.174-9.416 20.698-21.891c9.072-9.809 19.624-21.488 28.33-31.953 10.109-12.134 17.69-22.612 17.69-26.543 0-6.232-7.24-24.154-14.076-39.726-6.141-13.904-11.954-26-11.954-26a22.29 22.29 0 0 1 .72-7.381c1.757-6.763 7.304-16.154 24.274-19.074 0 0 25.272 59.722 29.215 85.95 2.198 14.244-23.63 41.735-47.487 63.703z" fill="#000" fill-rule="nonzero"/>
        <path d="M375.58 329.07 373.964 360c-9.16 8.443-18.031 16.065-24.918 21.828a73.645 73.645 0 0 1-1.794-20.804c9.072-9.809 19.624-21.488 28.33-31.953zM379.22 262.751c-6.141-13.903-11.954-26-11.954-26a22.29 22.29 0 0 1 .72-7.381 8.73 8.73 0 0 1 2.869-1.264s7.468 11.793 8.365 34.645z" fill="#000" fill-rule="nonzero" opacity=".2"/>
        <path d="M346.733 73.234s7.67-9.569 20.217-7.432c12.548 2.136 10.375 25.354 10.375 25.354a16.775 16.775 0 0 1 5.408 16.634c-2.452 10.529-31.072 16.621-42.015 9.303-10.943-7.318-2.527-30.537 2.792-33.824 5.32-3.286 3.223-10.035 3.223-10.035z" fill="#2E353A" fill-rule="nonzero"/>
        <path d="m371.095 228.17 1.529 84.078v86.05h-14.317c-34.193-163.05-10.753-203.927-10.753-203.927h.088c0-.063 0-.139.076-.19 5.497-12.21 41.51-3.21 41.51-3.21 2.59 10.112 4.182 30.676 4.182 30.676l-22.315 6.522z" fill="#407BFF" fill-rule="nonzero"/>
        <path d="m371.095 228.17 1.529 84.078v86.05h-14.317c-34.193-163.05-10.753-203.927-10.753-203.927h.088c0-.063 0-.139.076-.19 5.497-12.21 41.51-3.21 41.51-3.21 2.59 10.112 4.182 30.676 4.182 30.676l-22.315 6.522z" fill="#000" fill-rule="nonzero"/>
        <path fill="#2E353A" fill-rule="nonzero" d="M347.352 188.077v6.117l41.699-3.198v-7.23z"/>
        <path fill="#407BFF" fill-rule="nonzero" d="m359.26 185.656 2.07-.105.537 10.54-2.07.105z"/>
        <path fill="#FFF" fill-rule="nonzero" d="m370.304 186.045 9.112-.816.619 6.911-9.112.817z"/>
        <path fill="#407BFF" fill-rule="nonzero" d="m384.748 182.832 2.07-.105.537 10.54-2.07.106z"/>
        <path fill="#000" fill-rule="nonzero" d="m359.26 185.656 2.07-.105.537 10.54-2.07.105zM384.748 182.832l2.07-.105.537 10.54-2.07.106z"/>
        <path d="m389.228 184.5-41.7 3.602c-.985-15.509-1.97-25.507-11.157-53.086a435.43 435.43 0 0 0-2.603-7.685 123.804 123.804 0 0 1 17.311-4.184 132.895 132.895 0 0 1 18.727-1.972c8.112 0 17.438.847 17.438.847s1.327.316 2.16 8.924c.746 8.013 1.492 24.167-.176 53.554z" fill="#407BFF" fill-rule="nonzero"/>
        <path d="m389.228 184.5-41.7 3.602c-.985-15.509-1.97-25.507-11.157-53.086a435.43 435.43 0 0 0-2.603-7.685 123.804 123.804 0 0 1 17.311-4.184 132.895 132.895 0 0 1 18.727-1.972c8.112 0 17.438.847 17.438.847s1.327.316 2.16 8.924c.746 8.013 1.492 24.167-.176 53.554z" fill="#000" fill-rule="nonzero"/>
        <path d="M366.306 130.34c-10.286-1.265-13.369-5.714-13.369-5.714 6.52-6.155 1.1-16.823 1.1-16.823l12.37 2.313c-.29 1.725-.45 3.47-.48 5.22-.101 7.508 3.298 7.584 3.298 7.584 2.224 4.057-2.92 7.42-2.92 7.42z" fill="#FFBF9D" fill-rule="nonzero"/>
        <path d="M366.458 110.116c-.29 1.725-.451 3.47-.48 5.22-5.965-1.39-11.891-7.584-11.891-7.584l12.37 2.364z" fill="#000" fill-rule="nonzero" opacity=".2"/>
        <path d="M355.426 75.85c10.488-2.528 15.164 2.338 18.512 12.956 4.157 13.271 3.437 23.572-10.349 23.8-18.764.303-25.563-32.623-8.163-36.756z" fill="#FFBF9D" fill-rule="nonzero"/>
        <path d="M367.026 89.893a22.899 22.899 0 0 0 4.082 3.627 2.944 2.944 0 0 1-2.528 1.833l-1.554-5.46z" fill="#DE5753" fill-rule="nonzero"/>
        <path d="M360.405 90.487c.227.86 0 1.668-.62 1.82-.618.151-1.263-.417-1.44-1.264-.177-.847 0-1.669.62-1.82.619-.152 1.225.404 1.44 1.264z" fill="#2E353A" fill-rule="nonzero"/>
        <path d="m358.724 89.311 1.68-1.264s-.505 1.846-1.68 1.264zM371.006 87.529c.228.847-.063 1.668-.631 1.82-.569.152-1.264-.43-1.44-1.264-.178-.834.062-1.668.631-1.82.569-.152 1.213.404 1.44 1.264z" fill="#2E353A" fill-rule="nonzero"/>
        <path d="m369.339 86.34 1.667-1.263s-.518 1.858-1.667 1.264z" fill="#2E353A" fill-rule="nonzero"/>
        <path d="M358.585 83.27a5.61 5.61 0 0 0-4.17 2.666M366.104 81.045a5.053 5.053 0 0 1 4.384-.127" stroke="#2E353A" stroke-width=".934" stroke-linecap="round" stroke-linejoin="round"/>
        <path d="M368.075 99.777a28.232 28.232 0 0 0-.367 3.93l-.682.102c-3.121.417-4.713-.43-5.522-1.48a4.184 4.184 0 0 1-.745-1.781 3.894 3.894 0 0 1 0-1.1 14.83 14.83 0 0 0 6.318.455c.581-.05.998-.126.998-.126z" fill="#2E353A" fill-rule="nonzero"/>
        <path d="m367 99.903-.125 1.163c-2.945.38-5.055.253-6.116-.518a3.894 3.894 0 0 1 0-1.1 14.83 14.83 0 0 0 6.242.455z" fill="#FFF" fill-rule="nonzero"/>
        <path d="M367.026 103.796c-3.121.417-4.713-.43-5.522-1.479a10.106 10.106 0 0 1 3.538.215 3.79 3.79 0 0 1 1.984 1.264z" fill="#DE5753" fill-rule="nonzero"/>
        <path d="M348.16 96.212s2.856-9.77.544-16.242c0 0 18.752-13.41 24.78 7.433 0 0-2.402-19.213-20.522-15.358-18.12 3.856-11.79 30.209-.632 35.859 0 .025-5.926-5.562-4.17-11.692z" fill="#2E353A" fill-rule="nonzero"/>
        <path d="M350.397 98.045a4.726 4.726 0 0 0-5.939-3.02c-3.171 1.111-3.134 8.152 5.32 7.848 1.213-.05 1.605-1.34.62-4.828zM389.392 130.883c-15.669 7.748-39.677 5.94-53.071 4.07a435.429 435.429 0 0 0-2.603-7.685 123.804 123.804 0 0 1 17.31-4.184 132.895 132.895 0 0 1 18.728-1.972c8.112 0 17.437.847 17.437.847s1.365.316 2.199 8.924z" fill="#FFBF9D" fill-rule="nonzero"/>
        <path d="M342.512 123.046s11.234 14.359 11.575 29.918c.341 15.56-10.033 87.34-10.033 87.34l-12.51-3.54s9.452-55.235 0-108.586l10.968-5.132zM377.325 121.491s4.574 14.877 3.967 25.57c-.606 10.693 10.956 63.337 10.956 63.337l3.36 8.09-3.322-32.649s2.009-47.916-2.047-64.348h-12.914z" stroke="#000" stroke-width=".921" fill="#FFF" fill-rule="nonzero"/>
        <path d="M355.426 75.85s3.88 13.208-7.935 19.187c-14.279 7.23-12.914 22.852 1.01 24.837 0 0-14.063-1.416-16.793-10.605-2.729-9.189 5.055-23.333 5.055-23.333s-4.271-7.773 7.266-13.903c6.47-3.413 11.397 3.817 11.397 3.817z" fill="#2E353A" fill-rule="nonzero"/>
        <path fill="#FFF" fill-rule="nonzero" d="m356.462 396.237 17.893-2.629-1.491 7.154-14.772 1.985zM326.553 379.616l12.004 13.057-6.002 3.438-9.262-9.834z"/>
        <path d="M397.669 92.875c-2.161-3.867-6.318-5.637-9.376-3.943-3.058 1.694-3.703 6.18-1.555 10.048 2.148 3.868 6.318 5.625 9.376 3.944s3.715-6.193 1.555-10.049zM422.195 79.326l-7.43-13.664s-5.18 11.136-12.636 15.307l3.79 6.775.595 1.062 3.79 6.774c7.456-4.17 19.65-2.768 19.65-2.768l-7.759-13.486z" fill="#407BFF" fill-rule="nonzero"/>
        <path d="M397.669 92.875c-2.161-3.867-6.318-5.637-9.376-3.943-3.058 1.694-3.703 6.18-1.555 10.048 2.148 3.868 6.318 5.625 9.376 3.944s3.715-6.193 1.555-10.049zM422.195 79.326l-7.43-13.664s-5.18 11.136-12.636 15.307l3.79 6.775.595 1.062 3.79 6.774c7.456-4.17 19.65-2.768 19.65-2.768l-7.759-13.486z" fill="#FFF" fill-rule="nonzero"/>
        <path d="M397.163 100.876s5.37 7.774 10.387 10.618a.821.821 0 0 0 1.049-.228l4.283-5.296a.847.847 0 0 0-.316-1.264c-2.11-.935-7.038-3.337-9.881-6.699-3.69-4.398-5.522 2.87-5.522 2.87z" fill="#407BFF" fill-rule="nonzero"/>
        <path d="M397.163 100.876s5.37 7.774 10.387 10.618a.821.821 0 0 0 1.049-.228l4.283-5.296a.847.847 0 0 0-.316-1.264c-2.11-.935-7.038-3.337-9.881-6.699-3.69-4.398-5.522 2.87-5.522 2.87z" fill="#000" fill-rule="nonzero"/>
        <path d="M429.865 93.217c-1.706.948-6.558-4.475-10.829-12.122-4.27-7.647-6.318-14.61-4.637-15.572 1.68-.96 6.558 4.475 10.829 12.11 4.27 7.633 6.356 14.623 4.637 15.584z" fill="#FFF" fill-rule="nonzero"/>
        <path d="M429.17 90.954c-1.263.72-5.054-3.551-8.63-9.682a40.822 40.822 0 0 1-.607-1.074c-.202-.367-.48-.86-.707-1.264-3.273-6.193-4.89-11.527-3.627-12.235 1.264-.708 5.522 4.057 9.262 10.756 3.74 6.7 5.674 12.74 4.31 13.5z" fill="#000" fill-rule="nonzero" opacity=".4"/>
        <path d="M395.369 104.34s-1.832-1.264-5.156-7.256c-3.601-6.446-3.5-8.24-3.5-8.24l16.642-9.316s.202 2.338 3.576 8.38c3.374 6.042 5.054 7.116 5.054 7.116l-16.616 9.316z" fill="#000" fill-rule="nonzero"/>
        <path d="M420.54 81.272a40.822 40.822 0 0 1-.607-1.074c-.202-.367-.48-.86-.707-1.264l1.718-.543a.783.783 0 0 1 .948.43l.139.252a.771.771 0 0 1-.127 1.024l-1.364 1.175z" fill="#FFF" fill-rule="nonzero"/>
        <path d="M420.54 81.272a40.822 40.822 0 0 1-.607-1.074c-.202-.367-.48-.86-.707-1.264l1.718-.543a.783.783 0 0 1 .948.43l.139.252a.771.771 0 0 1-.127 1.024l-1.364 1.175z" fill="#000" fill-rule="nonzero" opacity=".2"/>
        <path d="M331.544 128.165c-5.8 2.528-26.535 39.562-26.535 39.562l-.405-35.012-9.363-1.264s-5.699 49.661 6.507 52.505c12.207 2.844 34.598-32.56 34.598-32.56l-4.802-23.23z" stroke="#000" stroke-width=".921" fill="#FFF" fill-rule="nonzero"/>
        <path d="M354.087 74.283s5.37 3.88 1.377 14.004M376.175 90.335s14.771 9.568 5.193 21.892" stroke="#2E353A" stroke-width=".645" stroke-linecap="round" stroke-linejoin="round"/>
        <g fill-rule="nonzero">
            <g transform="translate(62.498)">
                <rect fill="#000" width="238.492" height="429.075" rx="13.41"/>
                <path d="M230.52 14.384v399.561a5.841 5.841 0 0 1-5.927 5.84H13.419a5.234 5.234 0 0 1-5.294-5.36V13.905a4.715 4.715 0 0 1 4.536-4.905h52.794a3.715 3.715 0 0 1 3.399 2.377l2.186 5.384a3.715 3.715 0 0 0 3.399 2.351h89.88a3.677 3.677 0 0 0 3.399-2.313l2.148-5.41A3.79 3.79 0 0 1 173.303 9h52.035a5.334 5.334 0 0 1 5.181 5.385z" fill="#FDECE4"/>
                <path fill="#FFF" opacity=".2" d="M8.125 34.91h222.394v49.926H8.125z"/>
                <path fill="#FFF" opacity=".6" d="M35.95 25.09h-2.742v-3.665h2.742zM31.477 25.102h-2.742V20.21h2.742zM27.003 25.102h-2.742v-6.105h2.742zM22.518 25.09h-2.742v-7.332h2.742z"/>
                <path fill="#000" d="M204.299 20.097h1.63v3.665h-1.63zM220.006 25.102h-12.977V18.77h12.977z"/>
                <ellipse fill="#FFF" opacity=".6" cx="114.28" cy="9.518" rx="3.058" ry="3.059"/>
                <path d="M123.517 9.518a1.959 1.959 0 1 1-3.918 0 1.959 1.959 0 0 1 3.918 0z" fill="#FFF" opacity=".6"/>
                <path d="M230.52 343.948v69.997a5.841 5.841 0 0 1-5.927 5.84H13.419a5.234 5.234 0 0 1-5.296-5.36v-70.477H230.52z" fill="#FFF" opacity=".2"/>
                <path fill="#407BFF" d="m32.55 210.234 86.696-72.867 86.683 72.867-67.969 91.194-61.044-1.226z"/>
                <path fill="#000" d="m32.55 210.234 86.696-72.867 86.683 72.867-67.969 91.194-61.044-1.226z"/>
                <rect fill="#FFF" x="57.582" y="113.352" width="123.315" height="180.341" rx="2.901"/>
                <rect fill="#000" opacity=".2" x="70.711" y="129.631" width="97.07" height="3.665" rx=".928"/>
                <rect fill="#000" opacity=".2" x="70.711" y="141.854" width="97.07" height="3.665" rx=".928"/>
                <rect fill="#000" opacity=".2" x="70.711" y="154.076" width="97.07" height="3.665" rx=".928"/>
                <rect fill="#000" opacity=".2" x="70.711" y="166.299" width="97.07" height="3.665" rx=".928"/>
                <rect fill="#000" opacity=".2" x="70.711" y="178.521" width="97.07" height="3.665" rx=".928"/>
                <rect fill="#000" opacity=".2" x="70.711" y="190.744" width="97.07" height="3.665" rx=".928"/>
                <rect fill="#000" opacity=".2" x="70.711" y="202.966" width="97.07" height="3.665" rx=".928"/>
                <rect fill="#000" opacity=".2" x="70.711" y="215.176" width="97.07" height="3.665" rx=".928"/>
                <rect fill="#000" opacity=".2" x="70.711" y="227.398" width="97.07" height="3.665" rx=".928"/>
                <path d="m123.884 273.785-.48-.265a5.748 5.748 0 0 0-5.624 0l-2.337 1.327-83.31-64.613v106.652a5.6 5.6 0 0 0 5.712 5.574h162.803c3.133 0 4.599-2.414 4.599-5.574V210.234l-81.363 63.551z" fill="#407BFF"/>
                <path d="m123.884 273.785-.48-.265a5.748 5.748 0 0 0-5.624 0l-2.337 1.327-83.31-64.613v106.652a5.6 5.6 0 0 0 5.712 5.574h162.803c3.133 0 4.599-2.414 4.599-5.574V210.234l-81.363 63.551z" stroke="#000" stroke-width=".921" fill="#FFF"/>
                <path fill="#000" opacity=".2" d="m111.677 271.953 3.766 2.92-58.871 33.431zM188.188 309.568l-64.393-35.72 2.97-2.325z"/>
                <rect stroke="#000" stroke-width=".921" fill="#FFF" x="85.205" y="42.709" width="72.442" height="6.737" rx="1.07"/>
                <path d="M214.939 78.1h-32.437a4.221 4.221 0 0 1-4.208-4.222 4.208 4.208 0 0 1 4.208-4.209h32.437a4.208 4.208 0 0 1 4.208 4.21 4.221 4.221 0 0 1-4.208 4.22zM24.135 354.476h32.437v30.752H24.135zM63.585 354.476h32.437v30.752H63.585zM103.047 354.476h32.437v30.752h-32.437zM142.509 354.476h32.437v30.752h-32.437zM181.959 354.476h32.437v30.752h-32.437zM214.939 406.93h-32.437a4.208 4.208 0 0 1-4.208-4.208 4.221 4.221 0 0 1 4.208-4.222h32.437a4.221 4.221 0 0 1 4.208 4.222 4.21 4.21 0 0 1-4.208 4.209z" stroke="#000" stroke-width=".921" fill="#FFF"/>
                <path d="M87.555.151.543 124.45V13.221A12.566 12.566 0 0 1 13.18.151h74.376z" fill="#FFF" opacity=".1"/>
            </g>
        </g>
        <g fill-rule="nonzero">
            <path d="M353.127 21.525c-55.713 7.85-129.924 29.969-193.66 57.712-41.472 18.05-113.813 53.984-132.3 91.827-5.534 11.375-5.585 21.917-.126 31.384 5.459 9.467 18.133 16.052 36 20.539v-2.073c-17.058-4.31-29.214-10.541-34.307-19.402-5.092-8.86-5.054-18.87.19-29.614 13.306-27.25 61.184-60.392 131.415-90.929 63.483-27.731 137.505-49.737 193.053-57.56a.95.95 0 0 0-.265-1.884z" fill="#FFF"/>
            <path d="M353.127 21.525c-55.713 7.85-129.924 29.969-193.66 57.712-41.472 18.05-113.813 53.984-132.3 91.827-5.534 11.375-5.585 21.917-.126 31.384 5.459 9.467 18.133 16.052 36 20.539v-2.073c-17.058-4.31-29.214-10.541-34.307-19.402-5.092-8.86-5.054-18.87.19-29.614 13.306-27.25 61.184-60.392 131.415-90.929 63.483-27.731 137.505-49.737 193.053-57.56a.95.95 0 0 0-.265-1.884z" fill="#000"/>
            <path d="M27.862 202.928a.938.938 0 0 1-.82-.48c-5.46-9.467-5.41-20.034.125-31.384 18.487-37.843 90.828-73.777 132.3-91.827 63.736-27.743 137.947-49.863 193.66-57.712a.95.95 0 0 1 .265 1.883c-55.599 7.824-129.57 29.88-193.167 57.561-70.168 30.537-118.046 63.678-131.301 90.929-5.244 10.744-5.307 20.716-.19 29.614a.948.948 0 0 1-.353 1.264.947.947 0 0 1-.519.152z" fill="#000"/>
            <g opacity=".8" fill="#000">
                <path d="M27.862 202.928a.938.938 0 0 1-.82-.48c-5.46-9.467-5.41-20.034.125-31.384 18.487-37.843 90.828-73.777 132.3-91.827 63.736-27.743 137.947-49.863 193.66-57.712a.95.95 0 0 1 .265 1.883c-55.599 7.824-129.57 29.88-193.167 57.561-70.168 30.537-118.046 63.678-131.301 90.929-5.244 10.744-5.307 20.716-.19 29.614a.948.948 0 0 1-.353 1.264.947.947 0 0 1-.519.152z"/>
            </g>
            <g>
                <path fill="#407BFF" d="m379.17 34.91 53.677-28.439-46.955 15.459z"/>
                <path fill="#6F6F6F" d="m379.17 34.91 53.677-28.439-46.955 15.459z"/>
                <path fill="#407BFF" d="m366.483 9.732 9.932 6.851 2.754 18.327 6.723-12.98 17.008 8.557L432.847 6.47z"/>
                <path fill="#000" d="m366.483 9.732 9.932 6.851 2.754 18.327 6.723-12.98 17.008 8.557L432.847 6.47z"/>
                <path fill="#474747" d="m376.415 16.583 56.432-10.112-46.955 15.459-6.723 12.98z"/>
            </g>
        </g>
    </g>
</svg>
