<svg width="493" height="437" viewBox="0 0 493 437" xmlns="http://www.w3.org/2000/svg">
    <g fill="none" fill-rule="evenodd">
        <g>
            <path d="M230.755 332.655H6.628A6.64 6.64 0 0 1 0 326.025V10.857a6.64 6.64 0 0 1 6.628-6.572h224.127a6.629 6.629 0 0 1 6.616 6.63v315.11a6.629 6.629 0 0 1-6.616 6.63zM6.628 4.517a6.35 6.35 0 0 0-6.338 6.34v315.168a6.35 6.35 0 0 0 6.338 6.34h224.127a6.339 6.339 0 0 0 6.326-6.34V10.857a6.339 6.339 0 0 0-6.326-6.34H6.628zM481.822 332.655H257.684a6.629 6.629 0 0 1-6.616-6.63V10.857a6.629 6.629 0 0 1 6.616-6.572h224.138a6.629 6.629 0 0 1 6.616 6.572v315.168a6.629 6.629 0 0 1-6.616 6.63zM257.684 4.517a6.339 6.339 0 0 0-6.326 6.34v315.168a6.339 6.339 0 0 0 6.326 6.34h224.138a6.362 6.362 0 0 0 6.35-6.34V10.857a6.362 6.362 0 0 0-6.35-6.34H257.684z" fill="#000" fill-rule="nonzero"/>
            <path d="m195.178 165.37-1.59 136.48c-5.618 45.412-86.092 81.466-86.092 81.466S27.01 347.297 21.358 301.85L19.72 165.37l86.01-28.32 89.447 28.32z" fill="#0CAC9D" fill-rule="nonzero"/>
            <path d="m183.954 174.009-1.382 122.546c-4.898 39.607-75.088 71.05-75.088 71.05s-70.19-31.443-75.076-71.05L30.934 174.01l75.018-24.698 78.002 24.698z" fill="#FFF" fill-rule="nonzero"/>
            <path d="m179.032 181.742-1.3 112.503c-4.643 37.156-70.399 66.603-70.399 66.603s-65.802-29.482-70.387-66.603l-1.381-112.503 70.33-23.153 73.137 23.153z" stroke="#FFF" stroke-width="3.483" stroke-linecap="round" stroke-linejoin="round" stroke-dasharray="0,38.31763643400852"/>
            <path fill="#0CAC9D" fill-rule="nonzero" d="M310.312 119.307h154.819V391.06H310.312z"/>
            <path fill="#FFF" fill-rule="nonzero" d="M321.756 129.99h132.15v261.071h-132.15z"/>
            <path d="M325.47 392.222a1.66 1.66 0 0 1-.672-.14c-.21-.083-.4-.21-.558-.371a1.544 1.544 0 0 1-.383-.57 1.742 1.742 0 0 1 1.95-2.369l.325.094.302.163c.094.067.183.14.267.22.082.078.153.168.21.267.067.093.121.194.162.302.046.104.082.213.104.325a1.58 1.58 0 0 1 0 .337c0 .228-.047.453-.14.662a1.66 1.66 0 0 1-.37.569 1.764 1.764 0 0 1-1.196.51zM323.706 347.704a1.742 1.742 0 0 1 1.765-1.73 1.741 1.741 0 0 1 0 3.483 1.74 1.74 0 0 1-1.765-1.753zm0-42.765a1.741 1.741 0 1 1 3.482 0 1.741 1.741 0 0 1-3.482 0zm0-42.777a1.741 1.741 0 0 1 3.482 0 1.74 1.74 0 1 1-3.482 0zm0-42.776a1.741 1.741 0 1 1 3.482 0 1.741 1.741 0 0 1-3.482.023v-.023zm0-42.765a1.741 1.741 0 1 1 3.482 0 1.74 1.74 0 1 1-3.482 0zM325.47 135.586a1.718 1.718 0 0 1-1.23-.51 1.23 1.23 0 0 1-.22-.268 2.323 2.323 0 0 1-.163-.29 1.161 1.161 0 0 1-.093-.337 1.58 1.58 0 0 1 0-.336c.003-.462.187-.903.511-1.231a1.59 1.59 0 0 1 .256-.22c.094-.063.195-.113.301-.152.105-.045.214-.08.325-.104.226-.047.46-.047.685 0 .112.024.22.059.325.104.106.039.208.09.302.151.094.067.183.141.267.22.324.329.508.77.51 1.232a1.58 1.58 0 0 1 0 .336 1.87 1.87 0 0 1-.104.337c-.042.103-.097.2-.162.29a1.161 1.161 0 0 1-.21.267 1.764 1.764 0 0 1-1.3.511zM406.583 133.845a1.741 1.741 0 1 1 3.482 0 1.741 1.741 0 0 1-3.482 0zm-41.438 0a1.741 1.741 0 1 1 3.482 0 1.741 1.741 0 0 1-3.482 0zM449.763 135.586a1.66 1.66 0 0 1-.337 0l-.325-.093-.302-.162a1.742 1.742 0 0 1-.778-1.451c.003-.462.187-.904.511-1.231.081-.08.17-.15.267-.21.092-.07.193-.124.302-.162a1.52 1.52 0 0 1 .325-.104c.226-.047.459-.047.685 0l.325.104c.105.038.203.093.29.163.099.056.189.126.267.209.324.327.508.77.51 1.23a1.742 1.742 0 0 1-.777 1.452c-.093.061-.19.115-.29.162l-.325.093a1.775 1.775 0 0 1-.348 0zM448.021 347.704a1.741 1.741 0 1 1 3.482 0 1.741 1.741 0 0 1-3.482 0zm0-42.765a1.741 1.741 0 1 1 3.482 0 1.741 1.741 0 0 1-3.482 0zm0-42.777a1.741 1.741 0 0 1 3.482 0 1.74 1.74 0 1 1-3.482 0zm0-42.776a1.741 1.741 0 1 1 3.482 0 1.741 1.741 0 0 1-3.482.023v-.023zm0-42.765a1.741 1.741 0 1 1 3.482 0 1.74 1.74 0 1 1-3.482 0zM449.763 392.222a1.741 1.741 0 0 1-.964-3.193l.302-.163.325-.093c.226-.046.459-.046.685 0l.325.093c.1.047.197.101.29.163a1.742 1.742 0 0 1 .778 1.451c.004.463-.18.907-.511 1.23a1.74 1.74 0 0 1-1.23.512z" fill="#FFF" fill-rule="nonzero"/>
            <path fill="#E0E0E0" fill-rule="nonzero" d="M16.471 391.502h47.834v1H16.471zM113.834 389.179h47.973v1h-47.973zM212.624 389.179h11.607v1h-11.607zM54.531 399.096h53.684v1H54.531zM268.827 391.351h25.072v1h-25.072zM304.229 391.351h32.419v1h-32.419zM420.524 396.262H493v1h-72.476z"/>
            <path fill="#EBEBEB" fill-rule="nonzero" d="M224.963 37.865h-53.476l2.925-33.337h53.464z"/>
            <path fill="#FAFAFA" fill-rule="nonzero" d="m226.042 0-1.463 17.405-1.462 20.924h-51.42L174.62 0z"/>
            <path fill="#E0E0E0" fill-rule="nonzero" d="m221.132 4.528 2.914 33.337h-53.464l-2.925-33.337h4.55l1.579-2.508h14.404l2.066 2.508z"/>
            <path fill="#0CAC9D" fill-rule="nonzero" d="M250.94 45.308h56.899v56.919H250.94zM307.839 45.308h1.451v56.919h-1.451z"/>
            <path fill="#F5F5F5" fill-rule="nonzero" d="M256.186 50.579h46.383v46.399h-46.383z"/>
            <path fill="#E0E0E0" fill-rule="nonzero" d="M256.198 50.579h1v46.399h-1z"/>
            <ellipse fill="#E0E0E0" fill-rule="nonzero" cx="279.819" cy="68.96" rx="9.042" ry="11.519"/>
            <path fill="#E0E0E0" fill-rule="nonzero" d="M284.624 86.307h-9.53v-9.533h9.53z"/>
            <path d="M296.998 96.978h-34.915v-3.25c0-6.183 5.01-11.194 11.19-11.194h12.582c6.18 0 11.19 5.011 11.19 11.193v3.251h-.047zM261.212 77.61c0 1.893 3.483 3.484 3.483 3.484s3.482-1.544 3.482-3.483c0-.906-1.254-1.417-2.078-1.162a2.53 2.53 0 0 0-1.45 1.301 4.492 4.492 0 0 0-1.707-1.393 1.3 1.3 0 0 0-1.73 1.254zM292.111 69.146c0 2.496 4.515 4.517 4.515 4.517s4.516-2.02 4.516-4.517c0-1.161-1.672-1.846-2.728-1.544a3.297 3.297 0 0 0-1.788 1.718 6.106 6.106 0 0 0-2.24-1.835 1.706 1.706 0 0 0-2.275 1.66z" fill="#E0E0E0" fill-rule="nonzero"/>
            <path d="M192.81 353.312c.534 3.356 2.96 6.247 3.146 9.637.15 2.66-1.091 5.156-1.707 7.745-.615 2.59-.313 5.806 1.95 7.176a5.199 5.199 0 0 0 5.247-.314 11.912 11.912 0 0 0 3.656-4.052 37.7 37.7 0 0 0 5.63-19.136c0-2.844-.29-5.863-1.962-8.128-5.177-7.233-17.283-1.288-15.96 7.072zM188.504 344.43c.499.545 1.15.929 1.869 1.102a2.692 2.692 0 0 0 2.565-.5c.54-.693.751-1.587.58-2.45a5.807 5.807 0 0 0-1.056-2.972 3.226 3.226 0 0 0-2.74-1.335 2.322 2.322 0 0 0-2.112 2.02 7.097 7.097 0 0 0 .894 4.134z" fill="#0CAC9D" fill-rule="nonzero"/>
            <path d="M198.15 337.45a2.228 2.228 0 0 0-2.252-.986 2.171 2.171 0 0 0-1.672 1.788 6.435 6.435 0 0 0 0 .847c.004.457.055.912.151 1.359.097.43.3.83.592 1.161.398.388.904.646 1.451.743a2.158 2.158 0 0 0 1.938-.487 2.73 2.73 0 0 0 .604-2.032 4.32 4.32 0 0 0-.813-2.392zM203.524 337.16a1.66 1.66 0 0 0-2.032-.766 2.415 2.415 0 0 0-1.439 1.753c0 .256-.07.511-.081.767-.007.422.04.843.14 1.254.083.404.294.77.603 1.045.329.275.733.445 1.16.487a1.926 1.926 0 0 0 1.544-.499 2.799 2.799 0 0 0 .697-1.858 3.484 3.484 0 0 0-.592-2.183zM208.318 338.275c-.57-.848-1.161-.906-1.811-.546a3.054 3.054 0 0 0-1.16 1.73 4.228 4.228 0 0 0-.14.685 3.6 3.6 0 0 0 0 1.162c.075.372.292.7.603.917.288.18.626.261.964.232.439-.04.85-.232 1.16-.546.428-.458.7-1.039.778-1.66a2.8 2.8 0 0 0-.394-1.974zM209.258 342.978a1.858 1.858 0 0 0 0 .836.87.87 0 0 0 .499.65 1.23 1.23 0 0 0 1.277-.488c.343-.351.594-.782.73-1.254a1.824 1.824 0 0 0-.173-1.416c-1.033-1.684-2.194.836-2.333 1.672z" fill="#0CAC9D" fill-rule="nonzero"/>
            <path d="M210.198 430.864c.778-2.74 1.23-5.747.197-8.406-3.192-8.28-16.378-5.643-17.248 2.786l17.05 5.62zM191.313 415.56a3.703 3.703 0 0 0 1.532 1.545 2.68 2.68 0 0 0 2.6.174 3.054 3.054 0 0 0 1.16-2.218 5.808 5.808 0 0 0-.255-3.135 3.262 3.262 0 0 0-2.321-2.009 2.321 2.321 0 0 0-2.554 1.405 7.167 7.167 0 0 0-.162 4.239z" fill="#F5F5F5" fill-rule="nonzero"/>
            <path d="M202.433 411.276a2.252 2.252 0 0 0-1.927-1.533 2.194 2.194 0 0 0-2.078 1.3 6.713 6.713 0 0 0-.255.814 6.4 6.4 0 0 0-.21 1.346c-.028.454.064.907.268 1.313a2.81 2.81 0 0 0 1.16 1.08c.62.33 1.365.33 1.985 0a2.74 2.74 0 0 0 1.161-1.8 4.46 4.46 0 0 0-.104-2.52zM207.656 412.379a1.672 1.672 0 0 0-1.741-1.266 2.45 2.45 0 0 0-1.846 1.336 7.48 7.48 0 0 0-.278.708c-.131.394-.209.804-.232 1.22-.024.408.082.814.301 1.16.257.364.623.636 1.045.778.528.214 1.125.18 1.625-.093.57-.374.983-.944 1.16-1.602a3.485 3.485 0 0 0-.034-2.241zM211.997 414.69c-.325-.976-.94-1.161-1.602-.999a3.088 3.088 0 0 0-1.602 1.359c-.116.203-.22.412-.313.627a3.566 3.566 0 0 0-.255 1.091c-.023.375.098.744.336 1.034.23.25.536.417.87.476.435.084.886.006 1.266-.221.523-.336.93-.827 1.16-1.405a2.788 2.788 0 0 0 .14-1.962zM211.719 419.474a1.835 1.835 0 0 0-.244.8.894.894 0 0 0 .313.756c.44.232.975.177 1.358-.14.42-.254.774-.604 1.033-1.022.254-.426.325-.937.198-1.416-.604-1.893-2.287.267-2.658 1.022z" fill="#F5F5F5" fill-rule="nonzero"/>
            <path d="M164.442 381.574c.43 3.379-1.161 6.827-.349 10.137.592 2.59 2.484 4.644 3.784 6.967 1.3 2.322 1.916 5.48.105 7.43a5.176 5.176 0 0 1-5.119 1.162 12.176 12.176 0 0 1-4.643-2.891 37.68 37.68 0 0 1-10.702-16.825c-.836-2.729-1.346-5.713-.371-8.395 3.052-8.349 16.262-5.98 17.295 2.415zM166.078 371.867a3.657 3.657 0 0 1-1.485 1.567 2.657 2.657 0 0 1-2.6.233 3.008 3.008 0 0 1-1.242-2.195 5.912 5.912 0 0 1 .185-3.147 3.262 3.262 0 0 1 2.322-2.043 2.321 2.321 0 0 1 2.588 1.347c.325 1.08.731 3.181.232 4.238z" fill="#0CAC9D" fill-rule="nonzero"/>
            <path d="M154.924 367.814a2.252 2.252 0 0 1 1.892-1.579 2.194 2.194 0 0 1 2.1 1.266c.113.26.206.528.28.801.124.436.202.883.231 1.335.042.456-.042.914-.243 1.324a2.717 2.717 0 0 1-1.161 1.161 2.112 2.112 0 0 1-1.985.082 2.74 2.74 0 0 1-1.16-1.789 4.32 4.32 0 0 1 .046-2.6zM149.677 369.022a1.66 1.66 0 0 1 1.741-1.3 2.45 2.45 0 0 1 1.869 1.288c.112.23.208.467.29.709.142.393.232.803.267 1.219a2.01 2.01 0 0 1-.29 1.161 2.101 2.101 0 0 1-1.021.801 1.891 1.891 0 0 1-1.626-.058 2.752 2.752 0 0 1-1.16-1.579 3.485 3.485 0 0 1-.07-2.24zM145.382 371.426c.314-.976.917-1.162 1.59-1.034a3.088 3.088 0 0 1 1.626 1.336c.121.197.23.403.325.615.156.34.25.706.278 1.08a1.44 1.44 0 0 1-.313 1.045 1.532 1.532 0 0 1-.86.487c-.433.096-.887.03-1.276-.185a3.053 3.053 0 0 1-1.219-1.382 2.8 2.8 0 0 1-.15-1.962zM145.777 376.163c.144.246.235.519.267.801a.917.917 0 0 1-.302.767c-.44.234-.976.189-1.37-.116a2.972 2.972 0 0 1-1.044-1 1.8 1.8 0 0 1-.22-1.416c.545-1.87 2.274.256 2.669.964zM135.957 102.819a13.637 13.637 0 0 1-13.65-6.586 13.647 13.647 0 0 1 .86-15.136 13.636 13.636 0 0 1 24.398 6.314c1.034 7.457-4.156 14.347-11.608 15.408zm-2.762-19.856a6.4 6.4 0 0 0-2.986 11.44 6.394 6.394 0 0 0 10.194-5.982 6.408 6.408 0 0 0-7.208-5.458z" fill="#0CAC9D" fill-rule="nonzero"/>
            <path fill="#0CAC9D" fill-rule="nonzero" d="m125.717 49.325 5.127-.716 4.606 32.993-5.127.716z"/>
            <path fill="#0CAC9D" fill-rule="nonzero" d="m125.563 45.378 9.618-1.361.725 5.127-9.618 1.36zM126.925 52.254l9.047-1.262.715 5.129-9.047 1.262zM129.393 61.392l7.898-1.102.715 5.13-7.898 1.101z"/>
        </g>
        <g transform="translate(61.662 156.021)" fill-rule="nonzero">
            <ellipse fill="#000" transform="rotate(-46.25 41.462 41.397)" cx="41.462" cy="41.397" rx="28.025" ry="30.579"/>
            <ellipse transform="rotate(-46.25 41.462 41.397)" cx="41.462" cy="41.397" rx="28.025" ry="30.579" opacity=".8" fill="#FFF"/>
            <path d="M27.82 23.026a1.16 1.16 0 0 1-.697-2.09 22.292 22.292 0 0 1 13.43-4.18 1.16 1.16 0 0 1 0 2.322 19.937 19.937 0 0 0-12.037 3.716c-.201.15-.445.232-.697.232zM33.31 62.97a1.16 1.16 0 0 1-.546-.14 27.054 27.054 0 0 1-13.813-18.787 23.659 23.659 0 0 1 4.643-19.74 1.162 1.162 0 1 1 1.788 1.487 21.359 21.359 0 0 0-4.167 17.858 24.813 24.813 0 0 0 12.629 17.185 1.161 1.161 0 0 1-.546 2.183l.012-.046zM44.929 66a25.064 25.064 0 0 1-7.65-1.23 1.166 1.166 0 0 1 .72-2.218c7.139 2.322 14.266 1.021 19.547-3.484a20.812 20.812 0 0 0 6.709-19.275 1.176 1.176 0 1 1 2.321-.371 23.03 23.03 0 0 1-7.486 21.4A21.4 21.4 0 0 1 44.929 66zM64.452 36.82a1.16 1.16 0 0 1-1.102-.812A24.74 24.74 0 0 0 49.908 21.04a1.165 1.165 0 0 1 .929-2.137A27.098 27.098 0 0 1 65.555 35.3a1.161 1.161 0 0 1-1.103 1.52z" fill="#000"/>
            <path d="M46.16 19.729a.986.986 0 0 1-.268 0 23.59 23.59 0 0 0-5.328-.616 1.16 1.16 0 0 1 0-2.322c1.955.006 3.902.236 5.804.685a1.169 1.169 0 0 1-.267 2.322l.058-.07zM25.684 47.468a1.16 1.16 0 0 1-1.091-.754 18.433 18.433 0 0 1 2.042-17.162 17.41 17.41 0 0 1 14.533-7.501 1.16 1.16 0 0 1 0 2.322 15.192 15.192 0 0 0-12.64 6.503 16.18 16.18 0 0 0-1.753 15.095c.219.599-.087 1.263-.685 1.486-.134.026-.271.03-.406.011zM44.093 60.729a21.623 21.623 0 0 1-17.411-9.835 1.161 1.161 0 0 1 1.938-1.266 19.29 19.29 0 0 0 15.473 8.778 1.16 1.16 0 0 1 0 2.323z" fill="#000"/>
            <path d="M48.434 60.23a1.16 1.16 0 0 1-.313-2.288c9.413-2.322 11.85-10.578 11.073-16.918-1.01-8.267-7.533-16.64-18.06-16.65a1.16 1.16 0 0 1 0-2.323c11.873 0 19.232 9.405 20.37 18.694 1.16 9.58-3.865 17.22-12.826 19.45a1.16 1.16 0 0 1-.244.034z" fill="#000"/>
            <path d="M36.42 30.783a1.16 1.16 0 0 1-1.044-.674 1.161 1.161 0 0 1 .557-1.544 13.588 13.588 0 0 1 5.653-1.161 1.16 1.16 0 0 1 0 2.322 11.21 11.21 0 0 0-4.643 1.01 1.16 1.16 0 0 1-.523.047zM43.884 55.318a15.38 15.38 0 0 1-13.824-9.173c-2.403-5.237-1.695-10.706 1.892-14.654a1.16 1.16 0 0 1 1.636-.07c.47.434.501 1.166.07 1.638a10.778 10.778 0 0 0-1.486 12.11 13.058 13.058 0 0 0 12.083 7.826 10.029 10.029 0 0 0 9.112-6.003 11.998 11.998 0 0 0-2.136-12.633 1.162 1.162 0 0 1 1.765-1.51 14.31 14.31 0 0 1 2.495 15.095 12.327 12.327 0 0 1-11.166 7.385l-.441-.011z" fill="#000"/>
            <path d="M48.77 31.805a1.091 1.091 0 0 1-.614-.186 12.254 12.254 0 0 0-6.57-1.95 1.16 1.16 0 0 1 0-2.323c2.772.01 5.483.816 7.812 2.322a1.161 1.161 0 0 1-.627 2.137zM43.269 50.08a9.285 9.285 0 0 1-7.092-3.366 8.839 8.839 0 0 1-1.393-9.464 7.835 7.835 0 0 1 7.278-4.644 1.16 1.16 0 0 1 0 2.322 5.56 5.56 0 0 0-5.166 3.263 6.516 6.516 0 0 0 1.057 6.967 6.859 6.859 0 0 0 6.964 2.322 5.491 5.491 0 0 0 4.167-4.227 1.16 1.16 0 0 1 1.381-.882 1.16 1.16 0 0 1 .894 1.382 7.79 7.79 0 0 1-5.873 5.98 9.422 9.422 0 0 1-2.217.348z" fill="#000"/>
            <path d="M50.024 40.885a1.16 1.16 0 0 1-1.16-.813 7.336 7.336 0 0 0-6.814-5.11 1.16 1.16 0 0 1 0-2.321 9.716 9.716 0 0 1 9.03 6.734 1.162 1.162 0 0 1-.754 1.463 1.16 1.16 0 0 1-.302.047zM43.582 45.25a1.16 1.16 0 0 1 0-2.322 1.16 1.16 0 0 0 1.161-1.23 1.707 1.707 0 0 0-1.683-1.754c-.344.01-.67.156-.905.407-.24.283-.358.651-.325 1.021a1.163 1.163 0 1 1-2.322.14 3.589 3.589 0 0 1 3.482-3.89 4.015 4.015 0 0 1 4.005 4.076 3.484 3.484 0 0 1-3.482 3.553h.07z" fill="#000"/>
            <path d="M73.448 41.384c1.416 16.175-10.551 29.284-26.697 29.284h-1.254c15.392-.79 26.57-13.585 25.2-29.25-1.633-15.83-14.433-28.178-30.307-29.237h1.242c16.192-.07 30.446 13.04 31.816 29.203z" fill="#000"/>
            <path d="M73.448 41.384c1.416 16.175-10.551 29.284-26.697 29.284h-1.254c15.392-.79 26.57-13.585 25.2-29.25-1.633-15.83-14.433-28.178-30.307-29.237h1.242c16.192-.07 30.446 13.04 31.816 29.203z" opacity=".4" fill="#FFF"/>
        </g>
        <g fill-rule="nonzero">
            <path d="M158.812 54.69c.029.346.075.691.14 1.033a10.59 10.59 0 0 0 3.273 5.806 10.445 10.445 0 0 0 7.045 2.821h98.071a8.634 8.634 0 0 0 8.81-8.592c.017-.344.017-.69 0-1.033a10.738 10.738 0 0 0-10.447-9.615H167.61a8.67 8.67 0 0 0-8.798 9.58z" fill="#000"/>
            <path d="M158.812 54.69c.029.346.075.691.14 1.033a10.59 10.59 0 0 0 3.273 5.806 10.445 10.445 0 0 0 7.045 2.821h98.071a8.634 8.634 0 0 0 8.81-8.592c.017-.344.017-.69 0-1.033a10.738 10.738 0 0 0-10.447-9.615H167.61a8.67 8.67 0 0 0-8.798 9.58z" fill="#FFF" opacity=".8"/>
            <path d="M276.151 55.688c0 .311-.023.622-.07.93a10.738 10.738 0 0 0-10.446-9.29l-104.27.232a8.774 8.774 0 0 1 6.245-2.485h98.071a10.738 10.738 0 0 1 10.447 9.615c.024.332.031.665.023.998z" fill="#000"/>
            <path d="M276.151 55.688c0 .311-.023.622-.07.93a10.738 10.738 0 0 0-10.446-9.29l-104.27.232a8.774 8.774 0 0 1 6.245-2.485h98.071a10.738 10.738 0 0 1 10.447 9.615c.024.332.031.665.023.998z" fill="#FFF" opacity=".5"/>
            <path fill="#000" d="m259.309 49.72.418 4.645 4.364-1.626 1.033 2.322-4.457 1.487 3.203 3.936-2.008 1.474-3.122-4.087-2.321 4.087-2.194-1.474 2.472-3.936-4.643-1.487.627-2.322 4.7 1.568-.417-4.645zM232.438 49.72l.418 4.645 4.364-1.626 1.045 2.322-4.492 1.521 3.203 3.937-1.996 1.474-3.123-4.087-2.321 4.087-2.206-1.474 2.484-3.937-4.643-1.486.627-2.322 4.701 1.567-.406-4.644zM205.625 49.72l.406 4.645 4.364-1.626 1.045 2.322-4.469 1.487 3.204 3.936-1.939 1.51-3.122-4.088-2.322 4.087-2.193-1.474 2.472-3.937-4.643-1.486.638-2.322 4.643 1.567-.406-4.644zM178.8 49.72l.406 4.645 4.376-1.626 1.033 2.322-4.469 1.487 3.216 3.936-2.008 1.474-3.123-4.087-2.321 4.087-2.194-1.474 2.472-3.936-4.643-1.487.627-2.322 4.643 1.568-.406-4.645zM239.24 40.524h4.572v1.16h-4.573zM248.548 40.524h14.915v1.16h-14.915z"/>
        </g>
        <g transform="translate(360.528 77.413)" fill-rule="nonzero">
            <path d="M55.236 6.421 50.49 60.716a7.163 7.163 0 0 1-6.965 6.41H5.835a5.803 5.803 0 0 1-5.803-6.41L4.779 6.41A7.128 7.128 0 0 1 11.743 0h37.69a5.803 5.803 0 0 1 5.803 6.421z" fill="#000" opacity=".8"/>
            <path d="M55.236 6.421 50.49 60.716a7.163 7.163 0 0 1-6.965 6.41H5.835a5.803 5.803 0 0 1-5.803-6.41L4.779 6.41A7.128 7.128 0 0 1 11.743 0h37.69a5.803 5.803 0 0 1 5.803 6.421z" fill="#0CAC9D" opacity=".8"/>
            <path d="M8.215 15.176H8.11a1.161 1.161 0 0 1-1.056-1.254l.441-4.97a1.16 1.16 0 0 1 1.16-1.056h5.247a1.16 1.16 0 0 1 0 2.322H9.724l-.349 3.902a1.16 1.16 0 0 1-1.16 1.056zM50.42 15.176h-.105a1.161 1.161 0 0 1-1.057-1.254l.325-3.704h-3.97a1.16 1.16 0 0 1 0-2.322h5.224a1.16 1.16 0 0 1 1.16 1.265l-.44 4.959a1.16 1.16 0 0 1-1.138 1.056zM10.211 52.646H4.965a1.16 1.16 0 0 1-.848-.371 1.161 1.161 0 0 1-.301-.883l.429-4.97a1.165 1.165 0 1 1 2.321.198l-.325 3.704h3.97a1.16 1.16 0 0 1 0 2.322zM47.134 52.646H41.9a1.16 1.16 0 0 1 0-2.322h4.179l.337-3.902a1.16 1.16 0 0 1 1.253-1.056c.638.055 1.11.616 1.056 1.254l-.429 4.97a1.16 1.16 0 0 1-1.16 1.056z" fill="#000"/>
            <ellipse fill="#FFF" transform="rotate(-75.54 28.348 30.11)" cx="28.348" cy="30.109" rx="19.007" ry="15.276"/>
            <path fill="#FFF" d="M32.904 59.01H17.872l1.312-15.038h15.031z"/>
            <path d="M50.489 60.716a7.163 7.163 0 0 1-6.965 6.41H5.835a5.803 5.803 0 0 1-5.803-6.41s17.318-5.48 19.453-5.48H32.87l17.62 5.48z" fill="#FFF"/>
            <path fill="#000" d="m55.669 43.616 1.756-21.327 1.157.095-1.757 21.328zM58.301 16.718l.345-4.189 1.157.096-.345 4.189z"/>
        </g>
        <g fill-rule="nonzero">
            <path fill="#000" d="M374.152 219.49h4.573v1.161h-4.573zM383.461 219.49h14.915v1.161h-14.915z"/>
            <path d="m425.677 199.67-2.89 33.092a6.013 6.013 0 0 1-5.873 5.4 4.874 4.874 0 0 1-4.933-5.4l2.867-33.092a17.514 17.514 0 0 0-4.473-13.687 17.501 17.501 0 0 0-13.217-5.704h-11.793c-10.915.206-19.96 8.527-21.08 19.39l-1.16 13.516H352.33l1.161-13.515c1.45-16.651 16.18-30.19 32.814-30.19h11.84a27.238 27.238 0 0 1 20.574 8.881 27.258 27.258 0 0 1 6.958 21.309z" fill="#000"/>
            <path d="m425.677 199.67-2.89 33.092a6.013 6.013 0 0 1-5.873 5.4 4.874 4.874 0 0 1-4.933-5.4l2.867-33.092a17.514 17.514 0 0 0-4.473-13.687 17.501 17.501 0 0 0-13.217-5.704h-11.793c-10.915.206-19.96 8.527-21.08 19.39l-1.16 13.516H352.33l1.161-13.515c1.45-16.651 16.18-30.19 32.814-30.19h11.84a27.238 27.238 0 0 1 20.574 8.881 27.258 27.258 0 0 1 6.958 21.309z" opacity=".5" fill="#FFF"/>
            <path d="m426.455 231.555-5.63 64.49a8.208 8.208 0 0 1-8.032 7.373h-64.467a6.65 6.65 0 0 1-6.733-7.374l5.642-64.49a8.21 8.21 0 0 1 4.016-6.258 7.892 7.892 0 0 1 4.016-1.161h64.456a6.964 6.964 0 0 1 3.726 1.057 6.689 6.689 0 0 1 3.006 6.363z" fill="#0CAC9D"/>
            <path d="m359.422 259.724 16.75 25.789 55.24-55.259a.557.557 0 0 0-.732-.824l-52.64 41.278-9.947-16.035-8.67 5.05z" fill="#FFF"/>
        </g>
        <g transform="translate(38.125 73.547)" fill-rule="nonzero">
            <path d="M57.52 61.46H15.525a7.953 7.953 0 0 1-7.766-7.142L4.126 12.331a6.434 6.434 0 0 1 6.512-7.14h41.949a7.94 7.94 0 0 1 7.719 7.14l3.668 41.964a6.434 6.434 0 0 1-6.454 7.164z" fill="#000"/>
            <path d="M57.52 61.46H15.525a7.953 7.953 0 0 1-7.766-7.142L4.126 12.331a6.434 6.434 0 0 1 6.512-7.14h41.949a7.94 7.94 0 0 1 7.719 7.14l3.668 41.964a6.434 6.434 0 0 1-6.454 7.164z" fill="#FFF" opacity=".8"/>
            <path d="M7.782 37.563S22.698 16.79 33.678 17.324c10.981.534 29.228 19.74 29.228 19.74s-26.894 14.13-55.124.499z" fill="#FFF"/>
            <path d="m8.258 37.876-.94-.673c.604-.848 14.823-20.494 25.943-20.494h.452c11.097.534 28.856 19.135 29.61 19.925l-.835.801c-.186-.186-18.2-19.054-28.833-19.565h-.394c-10.563.023-24.863 19.832-25.003 20.006z" fill="#263238"/>
            <path d="M6.239 38.294c-2.252 0-5.177-.836-6.21-4.017a.58.58 0 0 1 .371-.732.569.569 0 0 1 .731.372c1.335 4.11 6.326 3.123 6.535 3.077a.592.592 0 0 1 .685.453.58.58 0 0 1-.453.685 8.54 8.54 0 0 1-1.66.162zM15.095 29.377a.58.58 0 0 1-.36-.116c-.174-.14-4.295-3.321-5.34-6.56a.58.58 0 0 1 .372-.732.592.592 0 0 1 .732.371c.94 2.892 4.898 5.969 4.944 5.992.253.196.3.56.105.813a.58.58 0 0 1-.453.232zM23.615 21.47a.604.604 0 0 1-.569-.593 60.463 60.463 0 0 0-2.519-7.431c-.29-.766-.499-1.324-.545-1.463a.58.58 0 0 1 .836-.683.58.58 0 0 1 .278.346c0 .14.244.65.51 1.382 1.626 4.261 2.624 7.06 2.6 7.873a.57.57 0 0 1-.591.568zM33.678 17.905a.604.604 0 0 1-.58-.534l-.812-9.29a.583.583 0 1 1 1.16-.104l.813 9.359a.592.592 0 0 1-.523.627l-.058-.058zM64.647 37.656a9.793 9.793 0 0 1-1.695-.14.58.58 0 0 1-.452-.685.557.557 0 0 1 .673-.452s2.844.545 4.585-.686a3.251 3.251 0 0 0 1.323-2.322.587.587 0 1 1 1.16.174 4.401 4.401 0 0 1-1.81 3.077 6.614 6.614 0 0 1-3.784 1.034zM54.223 28.761a.557.557 0 0 1-.429-.197.58.58 0 0 1 0-.824s3.482-3.066 3.854-5.922a.592.592 0 0 1 .661-.488.58.58 0 0 1 .488.662c-.488 3.274-4.086 6.48-4.237 6.619a.534.534 0 0 1-.337.15zM44.415 22.015h-.104a.592.592 0 0 1-.476-.673c0-.07 1.277-7.536 1.509-9.069a.587.587 0 1 1 1.16.174c-.232 1.545-1.497 9.022-1.508 9.092a.58.58 0 0 1-.58.476z" fill="#263238"/>
            <ellipse fill="#000" transform="rotate(-46.25 34.829 30.488)" cx="34.829" cy="30.488" rx="12.585" ry="13.745"/>
            <path d="M40.271 30.48a7.492 7.492 0 0 0 0-.883 6.222 6.222 0 0 0-6.082-5.585 5.037 5.037 0 0 0-5.095 5.585c.019.3.073.596.162.883h-7.568a11.858 11.858 0 0 1 3.022-9.29 11.85 11.85 0 0 1 8.968-3.866c7.41.137 13.55 5.783 14.312 13.156h-7.719z" fill="#000" opacity=".3"/>
            <path d="M40.26 29.597c.017.294.017.589 0 .883a5.027 5.027 0 0 1-5.119 4.703 6.21 6.21 0 0 1-5.908-4.703 3.81 3.81 0 0 1-.163-.883 5.04 5.04 0 0 1 5.096-5.585 6.222 6.222 0 0 1 6.094 5.585z" fill="#000" opacity=".7"/>
            <path d="M43.29 24.117a4.111 4.111 0 0 1-4.156 4.552 5.073 5.073 0 0 1-4.945-4.552 4.1 4.1 0 0 1 4.156-4.552c2.562.046 4.686 2.001 4.944 4.552z" fill="#FFF" opacity=".7"/>
            <path fill="#000" d="M20.748 0h4.573v1.161h-4.573zM30.057 0h14.915v1.161H30.057z"/>
        </g>
        <g fill-rule="nonzero">
            <path d="m274.398 158.623.395.476.534.616c.383.406.754.836 1.16 1.23.802.837 1.672 1.65 2.554 2.474a67.444 67.444 0 0 0 5.537 4.586c1.962 1.463 4.028 2.799 6.094 4.122 1.16.627 2.112 1.29 3.203 1.893l2.52 1.393a1.67 1.67 0 0 0 1.16.07c.813-.244 5.479-4.865 6.964-6.584 3.297-3.773 8.288-8.743 10.981-12.97l3.006 4.146a68.156 68.156 0 0 1-7.51 14.677 32.508 32.508 0 0 1-5.92 6.63 16.644 16.644 0 0 1-4.55 2.728 11.035 11.035 0 0 1-6.592.5 10.328 10.328 0 0 1-1.66-.558l-1.045-.452-1.88-.86c-1.266-.557-2.484-1.23-3.715-1.846a77.01 77.01 0 0 1-7.15-4.331 73.756 73.756 0 0 1-6.674-5.179 47.183 47.183 0 0 1-3.1-2.995c-.498-.523-1.01-1.069-1.497-1.638l-.72-.882a18.253 18.253 0 0 1-.823-1.068l8.728-6.178z" fill="#FFB573"/>
            <path d="m315.024 156.568 5.386-11.518 5.142 9.22s-3.378 5.805-7.046 5.805l-3.482-3.507zM326.515 140.266l5.433 6.99-6.35 7.002-5.142-9.208z" fill="#FFB573"/>
            <path d="M324.623 157.439h8.555a.975.975 0 0 0 .963-.882l1.776-20.518a.964.964 0 0 0-.963-1.056h-8.543a.975.975 0 0 0-.963.894l-1.8 20.505a.976.976 0 0 0 .975 1.057z" fill="#000"/>
            <path fill="#FFF" opacity=".3" d="M324.716 155.384h8.567l1.601-18.335h-8.566z"/>
            <path d="m324.16 152.783 1.52-.778a9.286 9.286 0 0 0 2.124-1.486l.278-1.01a1.462 1.462 0 0 0-1.613-.662l-1.265.348-6.28.476-.15 2.647 1.833 2.834h.627c1.43.05 2.677-.96 2.925-2.37z" fill="#FFB573"/>
            <path d="M263.441 147.418c4.353-.79 35.054 25.836 35.054 25.836l-9.1 13.353s-33.568-23.385-32.5-29.029c1.032-5.933.208-8.998 6.546-10.16z" fill="#263238"/>
            <path d="m267.318 155.93-.337 13.933c3.482 2.706 16.065 12.355 16.065 12.355l-15.728-26.288z" fill="#000" opacity=".2"/>
            <path fill="#FFB573" d="m242.977 424.13 10.296 1.01 3.273-23.885-10.307-1.01zM141.61 283.98l-2.635 10.032 22.275 9.603 4.62-10.183z"/>
            <path d="M260.644 427.253a3.922 3.922 0 0 0 2.542-.557 1.37 1.37 0 0 0 .464-1.161.755.755 0 0 0-.395-.662c-1.242-.743-5.444 1.254-5.92 1.475a.244.244 0 0 0-.139.243c.014.106.093.19.198.21 1.067.25 2.155.4 3.25.452zm1.868-2.078a.812.812 0 0 1 .465.104c.1.052.162.155.162.267a.93.93 0 0 1-.313.778c-.639.546-2.322.593-4.643.151a13.368 13.368 0 0 1 4.364-1.312l-.035.012z" fill="#000"/>
            <path d="M257.44 426.754h.093c1.253-.523 3.772-2.682 3.61-3.867a.917.917 0 0 0-.906-.72c-.489-.09-.993.037-1.381.349-1.335 1.033-1.648 3.832-1.671 3.936a.267.267 0 0 0 .058.244.255.255 0 0 0 .197.058zm2.565-4.145h.14c.452.07.475.244.475.302.105.708-1.613 2.426-2.901 3.111a5.551 5.551 0 0 1 1.416-3.158 1.23 1.23 0 0 1 .893-.22l-.023-.035z" fill="#000"/>
            <path d="m252.762 420.983-9.286.395a.813.813 0 0 0-.8.731l-2.23 12.97a1.672 1.672 0 0 0 1.591 1.765h.186c4.05-.209 6-.51 11.131-.685 3.146-.104 12.768 1.034 17.063.058 4.295-.975 3.482-5.236 1.637-5.202-5.967.116-12.85-3.773-16.25-8.325-.593-.383-2.392-1.742-3.042-1.707zM143.71 295.324l4.737-8.046a.801.801 0 0 0-.198-1.068l-9.657-8.906a1.683 1.683 0 0 0-2.321.371l-.105.163c-2.02 3.483-2.82 5.318-5.455 9.718-1.625 2.706-7.824 10.218-9.286 14.317-1.463 4.1 2.507 5.806 3.482 4.204 3.146-5.086 10.145-8.755 15.832-9.197.546-.209 2.647-.987 2.972-1.556z" fill="#263238"/>
            <path fill="#000" opacity=".2" d="m256.546 401.255-1.683 12.32-10.307-1.01 1.671-12.308zM172.718 295.917l-4.76 10.74-14.346-6.34 3.656-10.23z"/>
            <path d="M270.022 159.668c5.885 10.01-1.311 18.451-7.324 48.362l-38.792.104c.627-16.116.557-29.144-6.314-60.855a5.32 5.32 0 0 1 5.212-6.502c3.203 0 7.23.104 11.328.522a141.03 141.03 0 0 1 19.21 2.915 79.78 79.78 0 0 1 10.099 3.158c1.996.673 4.4 6.108 6.581 12.296z" fill="#263238"/>
            <path d="M264.137 210.05s21.787 63.015 21.265 93.321c-.302 17.36-1.613 49.709-6.848 72.455-4.272 18.579-21.683 30.422-21.683 30.422l-13.929-.824s-7.544-28.332-6.233-39.607c2.612-22.445 10.354-39.304 9.414-59.915-1.486-33.742-11.468-96.374-11.468-96.374l29.482.522z" fill="#000"/>
            <path fill="#263238" d="m240.145 409.058 19.674 1.161 1.788-5.91-21.984-2.032z"/>
            <path d="M242.629 337.358s0-.116.116-.105c12.362 1.161 20.893-16.639 18.862-41.011l-6.558-62.121-12.42 103.237z" fill="#000" opacity=".2"/>
            <path d="M254.364 209.528s17.318 110.807-18.688 123.278c-19.001 7.2-34.985-.604-53.916-8.987-10.946-4.842-24.62-17.951-24.62-17.951l5.259-14.317a68.46 68.46 0 0 1 29.018-1.463c18.456 2.856 19.234 8.128 25.792 4.145 13.79-34.091-9.936-61.041 6.187-84.763l30.968.058z" fill="#000"/>
            <path fill="#263238" d="m163.432 288.834-7.034 18.566 5.177 3.96 8.357-22.097z"/>
            <path d="M160.53 188.709c-1.753 2.589-10.644.836-10.644.836l-1.892-11.02 10.923 4.378 1.613 5.806z" fill="#FFB573"/>
            <path d="m150.2 177.956 1.694 11.45-6.558.975a1.44 1.44 0 0 1-1.544-1.162l-2.519-8.128a.755.755 0 0 1 .534-.894l8.392-2.24z" fill="#FFB573"/>
            <path d="m147.263 183.147 3.737.662 3.54-2.66-1.37-.975a4.645 4.645 0 0 1-1.833-2.752 20.14 20.14 0 0 1-.476-3.541v-.395a1.614 1.614 0 0 0-1.37-1.393l-.928.685c-.58 1.265-.163 2.74-.232 3.727l-.151 1.916-1.498.65.58 4.076zM219.46 145.096l-21.96 30.19-40.336 7.965v6.619s37.91 2.81 46.43-2.148c8.52-4.958 22.808-35.032 22.808-35.032l-6.941-7.594z" fill="#FFB573"/>
            <path d="M219.205 87.04c-9.216-3.09-19.906 2.635-24.12 11.39-4.213 8.755-2.74 19.495 2.008 27.972 1.428 2.566 3.134 4.981 4.307 7.663a12.126 12.126 0 0 1 .8 8.558c-.951 2.775-1.926 4.552-5.362 4.11 0 0 0-1.904 1.311-1.672 0 0-2.785 1.545-3.876.534 1.265 1.951 4.643 1.243 5.722-.824 1.613-3.077-1.358-7.246-4.84-7.21-3.482.034-6.315 3.564-6.199 7.036a9.544 9.544 0 0 0 5.804 8 4.318 4.318 0 0 1-4.643-2.496c1.579 4.133 6.732 5.956 11.085 5.143 4.353-.812 8.033-3.6 11.445-6.42 4.643-3.81 9.39-8.628 9.286-14.585-.104-4.447-2.96-8.267-5.363-12.017-2.402-3.75-4.503-8.326-2.971-12.494 1.288-3.542 4.794-5.678 7.881-7.838 2.229-1.544 6.756-4.993 6.222-8.256-.546-3.111-5.885-5.724-8.497-6.595z" fill="#263238"/>
            <path d="m198.44 190.38-6.083-16.104 1.393.116a5.884 5.884 0 0 0 5.63-2.996c4.643-8.267 16.633-29.25 20.011-30.294 4.817-1.428 9.773 2.427 11.607 8.128 1.382 4.191-12.768 22.166-19.291 32.384-5.792 9.045-13.267 8.767-13.267 8.767z" fill="#263238"/>
            <path d="M139.114 300.62v.127c.174.454.569.787 1.045.882.286.09.599.024.824-.174.975-.894.348-4.644.29-5.016a.232.232 0 0 0-.185-.197.279.279 0 0 0-.244.093c-.79 1.114-2.043 3.1-1.73 4.284zm1.788-3.484c.209 1.486.302 3.483-.244 3.971a.383.383 0 0 1-.371 0 .929.929 0 0 1-.697-.58c-.209-.628.232-1.905 1.312-3.414v.023z" fill="#000"/>
            <path d="M140.914 296.927c.301 1.254 1.485 3.39 2.53 3.646a.859.859 0 0 0 .952-.488 1.29 1.29 0 0 0 .07-1.091c-.477-1.44-3.216-2.624-3.332-2.683a.255.255 0 0 0-.244 0 .255.255 0 0 0-.093.233c.029.13.068.258.117.383zm3.157 2.322a.79.79 0 0 1-.105.604c-.15.279-.302.279-.418.255-.708-.139-1.787-1.892-2.135-3.111.893.452 2.321 1.3 2.623 2.182a.105.105 0 0 0 0 .07h.035zM223.767 206.172l-1.08 3.774c-.139.29.198.592.685.58h40.046c.383 0 .696-.197.72-.43l.37-3.773c0-.255-.301-.488-.719-.476H224.44a.743.743 0 0 0-.673.325z" fill="#000"/>
            <path d="m223.767 206.172-1.08 3.774c-.139.29.198.592.685.58h40.046c.383 0 .696-.197.72-.43l.37-3.773c0-.255-.301-.488-.719-.476H224.44a.743.743 0 0 0-.673.325z" fill="#FFF" opacity=".5"/>
            <path d="M231.451 210.875h-1.16c-.221 0-.407-.116-.384-.256l.523-4.911c0-.14.22-.256.452-.256h1.161c.22 0 .395.116.383.267l-.522 4.9a.527.527 0 0 1-.453.256zM260.319 210.875h-1.161c-.21 0-.395-.116-.372-.256l.523-4.9c0-.15.209-.267.43-.267h1.16c.22 0 .406.116.383.256l-.522 4.9c-.024.15-.21.267-.441.267zM247.075 210.852h-1.161c-.22 0-.406-.117-.383-.256l.522-4.9c0-.15.22-.267.441-.267h1.16c.221 0 .396.116.384.255l-.534 4.9c0 .151-.197.268-.43.268z" fill="#000"/>
            <path d="M235.943 120.166c1.23 6.329 2.438 17.754-1.857 21.191 0 0 1.718 6.491 13.197 8.221 12.676 1.904 6.025-5.318 6.025-5.318-6.907-2.729-6.733-7.721-5.549-12.32l-11.816-11.774z" fill="#FFB573"/>
            <path d="M234.132 141.3a123.08 123.08 0 0 1 18.212 2.53l8.683 2.59c1.543 3.112-.987 9.51-8.253 10.729 0 0-18.305 2.52-23.702-16.337l5.06.487z" fill="#FFB573"/>
            <path d="m240.737 124.985 6.964 6.967a17.666 17.666 0 0 0-.568 3.298c-2.647-.778-6.895-3.693-7.185-6.48a9.582 9.582 0 0 1 .789-3.785z" fill="#000" opacity=".2"/>
            <path d="M228.19 112.178c3.11 9.823 4.201 14.05 10.574 17.916 9.495 5.806 20.893-.14 20.777-10.682-.093-9.498-5.142-23.966-15.925-25.545a14.042 14.042 0 0 0-12.813 4.83 14.054 14.054 0 0 0-2.614 13.446v.035z" fill="#FFB573"/>
            <path d="M251.625 110.645a22.06 22.06 0 0 0 3.958 4.645 3.62 3.62 0 0 1-2.82 1.16l-1.138-5.805z" fill="#ED893E"/>
            <path d="M250.522 121.7a6.753 6.753 0 0 0 1.16-.233.232.232 0 0 0 .175-.279.244.244 0 0 0-.29-.174 6.58 6.58 0 0 1-5.804-1.161.255.255 0 0 0-.36 0 .244.244 0 0 0 0 .348 6.963 6.963 0 0 0 5.119 1.498z" fill="#263238"/>
            <path d="M224.812 92.566a9.522 9.522 0 0 0-4.342 7.606 3.554 3.554 0 0 0 .267 1.706c.233.543.738.919 1.324.987.882 0 1.532-.79 2.02-1.532l2.251-3.484a17.313 17.313 0 0 0 2.322-3.704c.754-2.287-2.461-2.461-3.842-1.579z" fill="#000"/>
            <path d="M225.914 94.877c-6.163 7.13-8.926 26.857 9.135 32.36 3.018-2.391-1.857-6.745-3.923-12.25-1.358-3.599 5.525-10.322 8.206-13.085 2.682-2.764 5.154-6.747 8.938-6.108.96.321 1.995.35 2.972.081 3.006-1.358 1.543-3.158 0-4.412a15.446 15.446 0 0 0-8.126-2.996 20.112 20.112 0 0 0-17.202 6.41z" fill="#263238"/>
            <path d="M245.96 92.485c7.255 6.05-2.321 6.2-7.394 10.032-4.863 3.68-1.45 9.707-9.68 12.506-6.72 1.962-8.276.778-10.133-.523a10.588 10.588 0 0 0 8.74-9.51c.569-4.412 10.18-19.518 18.467-12.505z" fill="#263238"/>
            <path d="M227.098 120.433a7.603 7.603 0 0 0 4.829 3.136c2.6.452 3.598-1.928 2.704-4.25-.847-2.09-3.203-4.842-5.722-4.25a3.379 3.379 0 0 0-2.426 4.11c.118.456.328.882.615 1.254z" fill="#FFB573"/>
            <path d="M244.718 93.1c1.405 3.577 5.456 3.1 8.45 6.84 1.846 2.322 5.468-4.843.534-7.664-4.933-2.822-11.19-4.772-8.984.824zM240.447 108.195a.487.487 0 0 0 .499-.29c.952-2.113 3.807-2.648 3.83-2.648a.51.51 0 0 0 .395-.58.488.488 0 0 0-.569-.383c-.15 0-3.4.685-4.562 3.24a.5.5 0 0 0 .244.65h.163v.011zM255.536 103.922a.464.464 0 0 0 .43-.22.476.476 0 0 0-.128-.674 4.874 4.874 0 0 0-4.457-.569.476.476 0 0 0-.255.65c.106.247.391.36.638.256a3.84 3.84 0 0 1 3.482.487c.09.044.19.068.29.07z" fill="#263238"/>
            <path d="m303.254 167.483-6.802 3.867-7.069 15.21s6.826 4.343 12.211.825c5.386-3.518 1.66-19.902 1.66-19.902z" fill="#000"/>
            <path d="m303.254 167.483-6.802 3.867-7.069 15.21s6.826 4.343 12.211.825c5.386-3.518 1.66-19.902 1.66-19.902z" fill="#FFF" opacity=".5"/>
            <path d="m184.313 172.186 8.044 2.322 7.626 15.78s-6.128 5.678-12.768.255c-4.968-4.11-2.902-18.357-2.902-18.357z" fill="#000"/>
            <path d="m184.313 172.186 8.044 2.322 7.626 15.78s-6.128 5.678-12.768.255c-4.968-4.11-2.902-18.357-2.902-18.357z" opacity=".5" fill="#FFF"/>
            <path d="M255.072 107.858c.557-.104 1.16.523 1.288 1.382.128.86-.185 1.649-.742 1.742-.558.093-1.161-.523-1.289-1.382-.128-.86.186-1.66.743-1.742z" fill="#263238"/>
            <path d="m256.79 107.01-1.962.964c1.184.836 1.962-.963 1.962-.963zM245.38 109.856c.557-.105 1.16.522 1.288 1.381.128.86-.185 1.65-.743 1.742-.557.093-1.16-.523-1.288-1.382-.128-.859.163-1.637.743-1.741z" fill="#263238"/>
            <path d="m247.075 109.008-1.962.964c1.184.836 1.962-.964 1.962-.964zM196.234 154.28a8.485 8.485 0 0 1-3.192-.603c-3.598-1.475-5.27-5.214-4.643-10.276a.58.58 0 0 1 .65-.5.569.569 0 0 1 .5.65c-.604 4.494.812 7.792 3.888 9.046a8.936 8.936 0 0 0 10.04-3.089c2.914-3.878 1.962-9.382-2.577-15.094-11.886-14.921-11.096-22.852-9.413-29.122 2.437-9.103 9.576-19.53 29.773-17.521a.583.583 0 0 1-.116 1.16c-19.373-1.927-26.221 8.013-28.543 16.675-1.671 6.27-2.321 13.597 9.205 28.1 6.964 8.743 4.144 14.467 2.6 16.51a10.446 10.446 0 0 1-8.172 4.065z" fill="#263238"/>
        </g>
    </g>
</svg>
