<svg width="166" height="133" viewBox="0 0 166 133" xmlns="http://www.w3.org/2000/svg">
    <g fill-rule="nonzero" fill="none">
        <path d="M162.717 33.002c-7.249-18.607-29.578-29.766-48.49-22.382-21.586 8.43-14.429 43.068-34.037 50.072-10.592 3.784-26.249-10.35-36.95-12.517C23.52 44.18 5.669 58.218 1.273 77.655c-4.485 19.831 2.708 46.318 24.306 51.7 25.726 6.412 39.127-16.919 60.71-23.618 22.147-6.875 46.772 9.362 65.107-10.393 13.546-14.595 18.498-43.917 11.32-62.342z" fill="#FDECE4"/>
        <path d="M154.603 41.182c0-12.919-10.381-23.392-23.187-23.392-9.922 0-18.383 6.288-21.694 15.127H25.877c-3.582 0-6.485 2.93-6.485 6.542v72.419c0 3.612 2.903 6.541 6.485 6.541h114.246c3.581 0 6.484-2.929 6.484-6.541V58.845a23.418 23.418 0 0 0 7.996-17.663z" fill="#0CAC9D" opacity=".1"/>
        <g fill="#FFF">
            <path d="M140.123 110.242H25.877c-3.582 0-6.485-2.928-6.485-6.541V31.282c0-3.613 2.903-6.542 6.485-6.542h114.246c3.581 0 6.484 2.93 6.484 6.542v72.419c0 3.613-2.903 6.541-6.484 6.541z"/>
            <path d="m84.975 55.939 61.633 47.762c0 3.613-2.903 6.541-6.485 6.541H25.877c-3.582 0-6.485-2.928-6.485-6.541l61.633-47.762a3.22 3.22 0 0 1 3.95 0z"/>
            <path d="M81.025 79.044 19.392 31.282c0-3.613 2.903-6.542 6.485-6.542h114.246c3.581 0 6.484 2.93 6.484 6.542L84.975 79.044a3.22 3.22 0 0 1-3.95 0z"/>
        </g>
        <g fill="#FF6121">
            <path d="M120.268 101.538H109.85a1.628 1.628 0 0 1-1.622-1.635v-7.246c0-.903.726-1.636 1.622-1.636h10.418c.895 0 1.621.733 1.621 1.636v7.246c0 .903-.726 1.635-1.621 1.635zM101.114 94.872H92.09a1.628 1.628 0 0 1-1.62-1.636c0-.903.725-1.635 1.62-1.635h9.024c.896 0 1.622.732 1.622 1.635s-.726 1.636-1.622 1.636zM101.114 101.538H69.395a1.628 1.628 0 0 1-1.62-1.635c0-.903.725-1.636 1.62-1.636h31.72c.895 0 1.62.733 1.62 1.636 0 .903-.725 1.635-1.62 1.635z"/>
        </g>
        <g transform="translate(17.771 6.191)">
            <ellipse fill="#FF6121" transform="rotate(-80.792 113.616 26.816)" cx="113.616" cy="26.816" rx="23.384" ry="23.19"/>
            <path d="M113.644 51.84c13.68 0 24.809-11.227 24.809-25.027s-11.13-25.027-24.809-25.027-24.808 11.227-24.808 25.027c0 8.028 3.77 15.18 9.614 19.763l-32.234 24.98c-.58.45-1.393.45-1.975 0L3.301 24.33c.363-2.345 2.38-4.146 4.804-4.146H82.47c.896 0 1.621-.732 1.621-1.635s-.725-1.635-1.62-1.635H8.104C3.636 16.914 0 20.582 0 25.09v72.418c0 4.509 3.636 8.177 8.105 8.177h114.247c4.47 0 8.105-3.668 8.105-8.177V54.29c0-.903-.725-1.635-1.62-1.635-.896 0-1.622.732-1.622 1.635v39.902L84.773 61.3 101.288 48.5a24.481 24.481 0 0 0 12.356 3.34zM45.685 61.3 3.242 94.19V28.41L45.685 61.3zm81.466 36.966c-.362 2.346-2.373 4.15-4.8 4.15H8.106c-2.426 0-4.436-1.804-4.799-4.15l45.04-34.904 13.92 10.787a4.83 4.83 0 0 0 5.926 0l13.92-10.787 45.04 34.904zM92.078 26.813c0-11.996 9.675-21.756 21.566-21.756 11.892 0 21.566 9.76 21.566 21.756 0 11.997-9.674 21.757-21.566 21.757-11.891 0-21.566-9.76-21.566-21.757z" fill="#0CAC9D"/>
        </g>
        <path d="m121.295 25.028 3.309 7.977-3.31 7.977c-.561 1.355.794 2.712 2.133 2.135l19.978-8.608c1.313-.566 1.313-2.443 0-3.008l-19.978-8.609c-1.339-.576-2.694.78-2.132 2.136z" fill="#FFF"/>
        <g fill="#FF6121">
            <path d="M107.26 9.48a4.664 4.664 0 0 1-3.324-1.386 4.777 4.777 0 0 1 0-6.707 4.677 4.677 0 0 1 6.649 0 4.777 4.777 0 0 1 0 6.707 4.664 4.664 0 0 1-3.324 1.387zm0-6.21c-.373 0-.747.142-1.031.43a1.483 1.483 0 0 0 0 2.081c.569.574 1.494.574 2.063 0a1.483 1.483 0 0 0 0-2.081 1.448 1.448 0 0 0-1.031-.43zM70.854 133a4.666 4.666 0 0 1-3.324-1.387 4.777 4.777 0 0 1 0-6.707 4.678 4.678 0 0 1 6.648 0 4.777 4.777 0 0 1 0 6.707A4.665 4.665 0 0 1 70.854 133zm0-6.212c-.373 0-.747.144-1.032.43a1.483 1.483 0 0 0 0 2.082c.57.574 1.495.574 2.064 0a1.483 1.483 0 0 0 0-2.081 1.448 1.448 0 0 0-1.032-.43zM95.573 13.692c-.414 0-.83-.16-1.146-.479l-1.934-1.95-1.934 1.95a1.611 1.611 0 0 1-2.292 0 1.645 1.645 0 0 1 0-2.313l3.08-3.107a1.611 1.611 0 0 1 2.292 0l3.08 3.107a1.645 1.645 0 0 1 0 2.313 1.61 1.61 0 0 1-1.146.48zM142.574 126.788c-.415 0-.83-.16-1.146-.48l-1.934-1.95-1.934 1.95a1.611 1.611 0 0 1-2.292 0 1.645 1.645 0 0 1 0-2.312l3.08-3.107a1.611 1.611 0 0 1 2.292 0l3.08 3.107a1.645 1.645 0 0 1 0 2.313 1.61 1.61 0 0 1-1.146.479zM57.998 128.341c-.415 0-.83-.16-1.146-.478l-1.934-1.951-1.934 1.95a1.611 1.611 0 0 1-2.293 0 1.645 1.645 0 0 1 0-2.312l3.08-3.107a1.611 1.611 0 0 1 2.293 0l3.08 3.107a1.645 1.645 0 0 1 0 2.313 1.61 1.61 0 0 1-1.146.478z"/>
        </g>
    </g>
</svg>
