<svg width="513" height="404" viewBox="0 0 513 404" xmlns="http://www.w3.org/2000/svg">
    <g fill="none" fill-rule="evenodd">
        <path d="M512.507 391.897c0 6.386-114.42 11.564-255.564 11.564-141.145 0-255.565-5.178-255.565-11.564 0-6.387 114.42-11.565 255.565-11.565 141.144 0 255.564 5.178 255.564 11.565" fill="#FFFCFA"/>
        <path d="M331.156 184.645h-75.492c0-5.671 4.598-10.268 10.27-10.268h54.952c5.672 0 10.27 4.597 10.27 10.268" fill="#FFF"/>
        <path d="M256.02 184.295h74.78c-.185-5.308-4.56-9.568-9.914-9.568h-54.953c-5.352 0-9.727 4.26-9.912 9.568zm75.487.701h-76.193v-.35c0-5.857 4.763-10.62 10.619-10.62h54.953c5.857 0 10.62 4.763 10.62 10.62v.35z" fill="#000"/>
        <path d="m163.546 314.234-17.148 20.615 29.513 43.824c2.082 2.707 6.41 1.086 6.201-2.323l-4.37-50.008-14.196-12.108z" stroke="#000" fill="#FDECE4"/>
        <path d="M134.675 212.896s90.913-15.043 106.61 0c15.697 15.044-52.324 127.54-52.324 127.54l-34.01-24.854 39.897-62.789-74.562-3.27 14.389-36.627zM48.341 266.529 27.412 390.143h5.233l30.74-122.961z" fill="#000"/>
        <path d="M27.877 389.75h4.461l30.55-122.197-14.218-.618-20.793 122.816zm5.074.785h-6.003l21.064-124.413 15.87.689-.117.466-30.814 123.258zM74.898 266.529l-20.93 123.614h5.233l30.74-122.961z" fill="#FFF"/>
        <path d="M54.316 389.85h4.655l30.597-122.39-14.424-.627-20.828 123.016zm5.115.586h-5.81l.057-.342 20.974-123.87.259.01 15.402.67-.087.35L59.43 390.436z" fill="#000"/>
        <path fill="#FFF" d="m154.297 266.529 20.929 123.614h-5.233l-30.74-122.961z"/>
        <path d="M170.223 389.85h4.656L154.05 266.832l-14.424.626 30.597 122.39zm5.35.586h-5.81l-.055-.222-30.827-123.31 15.662-.68.043.256 20.987 123.956zM131.663 266.529l20.929 123.614h-5.233l-30.74-122.961z" fill="#000"/>
        <path d="M147.666 389.75h4.461l-20.793-122.815-14.218.618 30.55 122.198zm5.39.785h-6.003l-.075-.297-30.856-123.427 15.87-.69 21.064 124.414z" fill="#000"/>
        <path fill="#FFF" d="m220.355 190.66-20.93 199.155h5.233l30.74-198.102z"/>
        <path d="M199.84 389.443h4.499l30.628-197.387-14.279-1-20.848 198.387zm5.138.745h-5.967l.044-.411 20.967-199.514 15.807 1.106-.062.4-30.79 198.42z" fill="#000"/>
        <path fill="#FFF" d="m461.698 190.66 20.929 199.155h-5.232l-30.74-198.102z"/>
        <path d="M477.715 389.443h4.498l-20.848-198.386-14.28 1 30.63 197.386zm5.326.745h-5.966l-.048-.316-30.803-198.503 15.807-1.106.038.357 20.972 199.568z" fill="#000"/>
        <path fill="#FFF" d="m417.223 190.66 20.929 199.155h-5.233l-30.74-198.102z"/>
        <path d="M433.255 389.423h4.46l-20.843-198.345-14.24.996 30.623 197.35zm5.333.785h-6.005l-.052-.332-30.805-198.525 15.847-1.11.04.378 20.975 199.589z" fill="#000"/>
        <path d="M120.286 73.585s44.475 75.87 57.556 81.755c13.08 5.887 57.556 12.427 57.556 12.427v20.276s-47.09 7.194-73.907-2.616c-26.816-9.81-56.248-56.902-56.248-56.902l15.043-54.94z" stroke="#979797" fill="#FFF"/>
        <path d="M105.667 128.461c1.835 2.892 30.312 47.215 55.959 56.597 25.236 9.234 69.11 3.259 73.38 2.646v-19.598c-4.136-.62-44.945-6.837-57.325-12.408-12.472-5.611-52.204-72.53-57.262-81.113l-14.752 53.876zm93.939 62.489c-13.117 0-27.384-1.18-38.25-5.155-26.634-9.742-56.15-56.59-56.446-57.062l-.091-.146.046-.165 15.289-55.84.47.804c.445.758 44.56 75.828 57.379 81.596 12.882 5.797 57.008 12.332 57.452 12.397l.336.049v20.952l-.334.051c-.279.042-16.855 2.519-35.851 2.519z" fill="#000"/>
        <path fill="#FFF" d="m264.176 190.66-20.929 199.155h5.232l30.74-198.102z"/>
        <path d="M243.682 389.423h4.461l30.623-197.35-14.24-.995-20.844 198.345zm5.133.785h-6.004l21.014-199.967 15.847 1.11-.065.422-30.792 198.435z" fill="#000"/>
        <path d="m230.227 370.466 5.886 26.162 52.73 3.326c3.414 0 4.769-4.42 1.94-6.332l-42.304-27.025-18.252 3.869z" stroke="#000" fill="#FDECE4"/>
        <path fill="#FFF" d="M374.382 185.341h-29.427l-7.847-25.325h29.426z"/>
        <path d="M345.272 184.91h28.525l-7.58-24.463h-28.524l7.58 24.464zm29.694.862h-30.329l-8.113-26.186h30.327l8.115 26.186z" fill="#131E3A"/>
        <path fill="#FFF" d="M370.44 185.341h-29.426l-7.847-25.325h29.426z"/>
        <path d="M341.272 184.99h28.693l-7.63-24.623h-28.692l7.63 24.624zm29.644.702h-30.16l-8.064-26.026h30.16l8.064 26.026z" fill="#000"/>
        <path d="M150.917 124.6a7.093 7.093 0 0 0-7.085 7.086v11.337a7.093 7.093 0 0 0 7.085 7.085h4.143a7.093 7.093 0 0 0 7.085-7.085v-11.337a7.093 7.093 0 0 0-7.085-7.085h-4.143zm4.143 29.433h-4.143c-6.07 0-11.01-4.94-11.01-11.01v-11.337c0-6.07 4.94-11.01 11.01-11.01h4.143c6.07 0 11.009 4.94 11.009 11.01v11.337c0 6.07-4.94 11.01-11.01 11.01z" fill="#131E3A"/>
        <path d="M45.07 207.665s0 43.166 26.163 54.286c18.108 7.695 104.647 5.885 104.647 5.885l44.475 112.496 45.129-9.156s-49.053-141.929-58.21-151.739c-9.157-9.81-72.599-11.772-72.599-11.772H45.071z" fill="#000"/>
        <path d="M41.147 80.126c5.539-13.848 56.901-20.276 79.139-6.541 18.92 11.686 0 74.562 14.39 134.733l-94.183 4.578s-13.735-96.798.654-132.77" stroke="#979797" fill="#FFF"/>
        <path d="M85.524 66.353c-10.684 0-21.414 1.547-29.78 4.306-7.716 2.545-12.771 5.958-14.233 9.612-13.75 34.374-1.567 125.746-.68 132.216l93.353-4.538c-6.741-28.536-6.044-57.924-5.482-81.563.617-25.957 1.104-46.46-8.623-52.467-8.5-5.25-21.492-7.566-34.555-7.566zm-45.37 146.953-.05-.354c-.138-.97-13.585-97.315.678-132.972l.365.146-.365-.146c1.572-3.93 6.66-7.41 14.716-10.066 18.764-6.186 49.357-6.322 64.994 3.337 10.11 6.244 9.617 26.945 8.995 53.154-.564 23.72-1.265 53.24 5.57 81.822l.11.46-95.013 4.619z" fill="#000"/>
        <path d="M155.605 273.722H47.033v-13.734h94.837c7.586 0 13.735 6.149 13.735 13.734" fill="#FFF"/>
        <path d="M47.327 273.429h107.98c-.156-7.276-6.124-13.147-13.437-13.147H47.327v13.147zm108.572.587H46.739v-14.322h95.13c7.736 0 14.03 6.293 14.03 14.029v.293z" fill="#000"/>
        <path d="M482.627 197.2H195.501c0-7.587 6.15-13.735 13.735-13.735h259.657c7.585 0 13.734 6.148 13.734 13.734" fill="#FFF"/>
        <path d="M195.832 196.872h286.464c-.174-7.243-6.12-13.08-13.404-13.08H209.236c-7.284 0-13.23 5.837-13.404 13.08zm287.122.654h-287.78v-.327c0-7.754 6.309-14.062 14.062-14.062h259.656c7.754 0 14.062 6.308 14.062 14.062v.327z" fill="#000"/>
        <path d="m3.866 152.07 43.167 121.652h26.161s-20.929-43.82-19.62-90.257c1.03-36.578-8.503-31.395-49.708-31.395" fill="#FFF"/>
        <path d="M47.24 273.429h25.494c-2.123-4.625-20.681-46.402-19.454-89.973.423-15.029-.98-22.471-5.008-26.545-5.065-5.122-14.758-4.96-30.817-4.69-3.923.064-8.354.14-13.173.143L47.24 273.43zm26.42.587H46.825l-.07-.195L3.45 151.777h.416c4.975 0 9.546-.077 13.579-.144 16.218-.274 26.004-.436 31.245 4.866 4.154 4.201 5.606 11.764 5.177 26.974-1.291 45.836 19.383 89.686 19.592 90.123l.201.42z" fill="#000"/>
        <path d="M45.725 76.201C29.837 77.11-17.718 174.31 9.752 193.93c24.21 17.292 115.113-32.703 115.113-32.703L114.4 140.951l-75.87 21.585s20.637-35.369 24.854-46.438c5.232-13.735 5.232-41.205-17.66-39.897" stroke="#979797" fill="#FFF"/>
        <path d="M47.283 76.549c-.503 0-1.015.015-1.536.045-9.402.536-30.348 36.502-39.319 67.514-4.205 14.536-9.334 40.298 3.552 49.502 3.486 2.489 8.406 3.553 14.26 3.553 32.772.004 94.94-33.3 100.1-36.097l-10.141-19.649L37.7 163.18l.492-.842c.206-.354 20.668-35.467 24.825-46.38 3.705-9.725 4.364-24.541-1.713-32.842-3.195-4.362-7.906-6.567-14.021-6.567M24.424 197.986c-6.091 0-11.23-1.116-14.9-3.738-9.843-7.03-11.21-24.913-3.85-50.358 9.224-31.887 30.173-67.518 40.028-68.08 7.146-.403 12.611 1.893 16.235 6.842 6.24 8.525 5.592 23.667 1.813 33.586-3.816 10.02-21.237 40.215-24.391 45.653l75.242-21.405 10.788 20.9-.335.185c-3.155 1.735-66.67 36.413-100.63 36.415M154.675 157.957h30.362v-41.205h-30.362z" fill="#000"/>
        <path d="M155.051 157.58h29.61v-40.453h-29.61v40.454zm-.753.753h31.115v-41.957h-31.115v41.957z" fill="#000"/>
        <path d="M114.4 140.952c17.659-11.773 22.237-28.125 28.123-27.47 5.887.654-7.848 15.697-7.848 15.697s10.465-1.308 16.351-3.27c5.003-1.668 5.623 20.198-1.308 22.238-11.118 3.27-16.686 1.19-27.47 7.194l-7.848-14.39z" fill="#FDECE4"/>
        <path d="m114.738 141.035 7.612 13.955c6.563-3.61 11.113-4.225 16.372-4.938 3.28-.443 6.673-.902 10.923-2.152 1.924-.566 3.447-2.895 4.288-6.559 1.3-5.664.595-13.024-1.424-14.857-.434-.393-.892-.503-1.401-.332-5.843 1.948-16.296 3.269-16.4 3.282l-.693.087.47-.515c2.883-3.157 10.147-11.926 9.16-14.55-.157-.415-.533-.65-1.15-.719-2.541-.289-5.007 3.033-8.41 7.623-4.163 5.616-9.854 13.294-19.347 19.675zm7.408 14.656-8.085-14.823.196-.13c9.536-6.358 15.246-14.06 19.415-19.684 3.636-4.904 6.038-8.141 8.88-7.828.816.092 1.346.444 1.574 1.05 1.157 3.074-6.738 12.243-8.794 14.557 2.425-.33 10.685-1.526 15.613-3.169.683-.226 1.343-.075 1.91.439 2.17 1.972 2.938 9.434 1.58 15.354-.885 3.852-2.534 6.315-4.645 6.936-4.288 1.261-7.7 1.723-11 2.17-5.267.712-9.817 1.328-16.417 5.002l-.227.126z" fill="#383A00"/>
        <path d="M235.398 170.15s26.723-10.23 45.083 13.315h-45.083V170.15z" fill="#FDECE4"/>
        <path d="M235.655 183.207h44.296c-17.276-21.654-42.033-13.667-44.296-12.877v12.877zm45.352.515h-45.866v-13.749l.165-.063c.269-.103 27.112-10.028 45.377 13.397l.324.415z" fill="#383A00"/>
        <path d="M243.9 175.616s18.314.653 18.314 7.849h-22.938" fill="#FDECE4"/>
        <path d="M262.471 183.722h-23.195v-.515h22.672c-.44-6.626-17.878-7.327-18.057-7.333l.019-.515c.758.028 18.561.747 18.561 8.106v.257z" fill="#383A00"/>
        <path fill="#FFF" d="M300.12 163.528h101.851l18.334-88.027h-101.85z"/>
        <path d="M300.65 163.098h100.97l18.155-87.166h-100.97l-18.155 87.166zm101.672.86H299.59l18.514-88.887h102.73l-18.512 88.888z" fill="#131E3A"/>
        <path fill="#FFF" d="M293.272 163.528h101.85l18.335-88.027h-101.85z"/>
        <path d="M293.703 163.177h101.135l18.188-87.325H311.891l-18.188 87.325zm101.705.702H292.84l18.48-88.728h102.567l-18.48 88.728z" fill="#000"/>
        <path fill="#000" d="M299.032 159.308h92.088l16.577-79.587h-92.088z"/>
        <path d="M71.642 68.231s3.58-25.572 0-40.404c-3.58-14.833 21.48-19.436 27.107-12.275 5.625 7.16 11.252 39.381-7.16 37.847v16.878s-12.275 6.137-19.947-2.046"/>
        <path d="M71.913 68.144c7.016 7.352 18.04 2.606 19.419 1.97V53.119l.278.023c4.622.385 8.013-1.364 10.079-5.199 4.845-8.998.862-27.135-3.143-32.232-3.032-3.861-12.52-4.299-19.522-.906-5.838 2.83-8.437 7.554-7.132 12.961 3.423 14.184.283 38.431.021 40.378m10.052 4.574c-3.525 0-7.4-.993-10.51-4.311l-.085-.09.017-.122c.036-.255 3.533-25.694.005-40.308-1.367-5.664 1.333-10.6 7.407-13.544 7.325-3.553 16.929-3.05 20.152 1.05 4.18 5.32 8.215 23.464 3.19 32.793-2.13 3.955-5.601 5.8-10.295 5.49v16.76l-.142.071c-.075.037-4.524 2.211-9.739 2.211" fill="#383A00"/>
        <path d="M72.92 50.586c-4.602-9.717-16.167-28.057-3.324-30.943 0 0-8.596-11.593 9.206-18.924 8.695-3.58 13.419 7.656 25.573 2.046 6.648-3.068 5.37 18.669-7.416 16.111-10.827-2.165-20.202 2.302-16.11 14.064l-3.58 2.046-3.581-3.58-.767 19.18z" fill="#000"/>
        <path d="M73.688 31.407s-5.795-2.299-5.114 2.046c.68 4.344 4.09 6.649 8.694 6.137" fill="#FDECE4"/>
        <path d="M76 39.919c-4.15 0-7.046-2.38-7.68-6.427-.177-1.127.046-1.949.664-2.442 1.476-1.18 4.663.064 4.799.117l-.19.479c-.03-.012-3.045-1.188-4.289-.194-.462.37-.622 1.03-.477 1.96.651 4.157 3.872 6.424 8.412 5.922l.057.512c-.444.05-.876.073-1.295.073" fill="#383A00"/>
        <path fill="#FFF" d="M417.325 183.013h25.612v-32.266h-25.612z"/>
        <path d="M417.652 182.687h24.958v-31.612h-24.958v31.612zm-.654.654h26.266v-32.92h-26.266v32.92z" fill="#000"/>
        <path d="M427.92 121.486s-5.548-20.698-10.594-20.244c-5.047.454 8.805 28.16 8.805 28.16s-11.414-20.666-15.131-19.53c-3.717 1.135 11.818 29.521 11.818 29.521s-5.088-4.345-8.721-2.853c-3.635 1.491 8.721 14.208 8.721 14.208h6.04l-.938-29.262z" fill="#000"/>
        <path d="M428.858 150.748s-3.861-51.778 4.087-57.908c7.948-6.132 0 35.653 0 35.653s4.088-19.757 12.036-19.53c7.948.227-8.531 29.522-8.531 29.522s13.754-13.171 17.842-10.673c4.087 2.498-16.947 22.936-16.947 22.936h-8.487z" fill="#000"/>
        <path fill="#FDECE4" d="m433.49 150.748-11.532 32.266h20.979v-32.266z"/>
        <path d="M76.94 33.93s0 20.398 18.046 21.969c18.047 1.569 9-23.23 9-23.23s-19.256 6.416-23.712-1.687l-3.334 2.947z" fill="#000"/>
    </g>
</svg>
